<svg version="1.1" viewBox="0.0 0.0 600.0 371.0" fill="none" stroke="none" stroke-linecap="square" stroke-miterlimit="10" width="600" height="371" xmlns:xlink="http://www.w3.org/1999/xlink" xmlns="http://www.w3.org/2000/svg"><path fill="#ffffff" d="M0 0L600.0 0L600.0 371.0L0 371.0L0 0Z" fill-rule="nonzero"/><path stroke="#333333" stroke-width="1.0" stroke-linecap="butt" d="M48.5 332.5L581.5 332.5" fill-rule="nonzero"/><path stroke="#cccccc" stroke-width="1.0" stroke-linecap="butt" d="M48.5 262.5L581.5 262.5" fill-rule="nonzero"/><path stroke="#cccccc" stroke-width="1.0" stroke-linecap="butt" d="M48.5 192.5L581.5 192.5" fill-rule="nonzero"/><path stroke="#cccccc" stroke-width="1.0" stroke-linecap="butt" d="M48.5 122.5L581.5 122.5" fill-rule="nonzero"/><path stroke="#cccccc" stroke-width="1.0" stroke-linecap="butt" d="M48.5 51.5L581.5 51.5" fill-rule="nonzero"/><clipPath id="id_0"><path d="M48.55 51.916668L581.45 51.916668L581.45 332.45L48.55 332.45L48.55 51.916668Z" clip-rule="nonzero"/></clipPath><path stroke="#000000" stroke-width="2.0" stroke-linecap="butt" stroke-opacity="0.0" clip-path="url(#id_0)" d="M155.0 332.0L105.0 332.0L105.0 102.0C105.0 100.89543 105.89543 100.0 107.0 100.0L153.0 100.0C154.10457 100.0 155.0 100.89543 155.0 102.0Z" fill-rule="nonzero"/><path fill="#4285f4" clip-path="url(#id_0)" d="M155.0 332.0L105.0 332.0L105.0 102.0C105.0 100.89543 105.89543 100.0 107.0 100.0L153.0 100.0C154.10457 100.0 155.0 100.89543 155.0 102.0Z" fill-rule="nonzero"/><path stroke="#000000" stroke-width="2.0" stroke-linecap="butt" stroke-opacity="0.0" clip-path="url(#id_0)" d="M314.0 332.0L264.0 332.0L264.0 129.0C264.0 127.89543 264.89542 127.0 266.0 127.0L312.0 127.0C313.10458 127.0 314.0 127.89543 314.0 129.0Z" fill-rule="nonzero"/><path fill="#4285f4" clip-path="url(#id_0)" d="M314.0 332.0L264.0 332.0L264.0 129.0C264.0 127.89543 264.89542 127.0 266.0 127.0L312.0 127.0C313.10458 127.0 314.0 127.89543 314.0 129.0Z" fill-rule="nonzero"/><path stroke="#000000" stroke-width="2.0" stroke-linecap="butt" stroke-opacity="0.0" clip-path="url(#id_0)" d="M473.0 332.0L423.0 332.0L423.0 199.0C423.0 197.89543 423.89542 197.0 425.0 197.0L471.0 197.0C472.10458 197.0 473.0 197.89543 473.0 199.0Z" fill-rule="nonzero"/><path fill="#4285f4" clip-path="url(#id_0)" d="M473.0 332.0L423.0 332.0L423.0 199.0C423.0 197.89543 423.89542 197.0 425.0 197.0L471.0 197.0C472.10458 197.0 473.0 197.89543 473.0 199.0Z" fill-rule="nonzero"/><path stroke="#000000" stroke-width="2.0" stroke-linecap="butt" stroke-opacity="0.0" clip-path="url(#id_0)" d="M207.0 332.0L157.0 332.0L157.0 136.0C157.0 134.89543 157.89543 134.0 159.0 134.0L205.0 134.0C206.10457 134.0 207.0 134.89543 207.0 136.0Z" fill-rule="nonzero"/><path fill="#ea4335" clip-path="url(#id_0)" d="M207.0 332.0L157.0 332.0L157.0 136.0C157.0 134.89543 157.89543 134.0 159.0 134.0L205.0 134.0C206.10457 134.0 207.0 134.89543 207.0 136.0Z" fill-rule="nonzero"/><path stroke="#000000" stroke-width="2.0" stroke-linecap="butt" stroke-opacity="0.0" clip-path="url(#id_0)" d="M366.0 332.0L316.0 332.0L316.0 156.0C316.0 154.89543 316.89542 154.0 318.0 154.0L364.0 154.0C365.10458 154.0 366.0 154.89543 366.0 156.0Z" fill-rule="nonzero"/><path fill="#ea4335" clip-path="url(#id_0)" d="M366.0 332.0L316.0 332.0L316.0 156.0C316.0 154.89543 316.89542 154.0 318.0 154.0L364.0 154.0C365.10458 154.0 366.0 154.89543 366.0 156.0Z" fill-rule="nonzero"/><path stroke="#000000" stroke-width="2.0" stroke-linecap="butt" stroke-opacity="0.0" clip-path="url(#id_0)" d="M525.0 332.0L475.0 332.0L475.0 221.0C475.0 219.89543 475.89542 219.0 477.0 219.0L523.0 219.0C524.10455 219.0 525.0 219.89543 525.0 221.0Z" fill-rule="nonzero"/><path fill="#ea4335" clip-path="url(#id_0)" d="M525.0 332.0L475.0 332.0L475.0 221.0C475.0 219.89543 475.89542 219.0 477.0 219.0L523.0 219.0C524.10455 219.0 525.0 219.89543 525.0 221.0Z" fill-rule="nonzero"/><path stroke="#4285f4" stroke-width="3.0" stroke-linejoin="round" stroke-linecap="round" d="M122.96875 108.577415L122.96875 109.483665L122.765625 109.483665Q121.5 109.514915 120.75 110.24929Q120.0 110.96804 119.875 112.28054Q120.5625 111.514915 121.71875 111.514915Q122.828125 111.514915 123.5 112.296165Q124.171875 113.077415 124.171875 114.327415Q124.171875 115.639915 123.453125 116.43679Q122.734375 117.233665 121.515625 117.233665Q120.296875 117.233665 119.53125 116.296165Q118.78125 115.34304 118.78125 113.858665L118.78125 113.452415Q118.78125 111.09304 119.78125 109.84304Q120.78125 108.59304 122.765625 108.577415L122.96875 108.577415ZM121.546875 112.421165Q120.984375 112.421165 120.515625 112.74929Q120.046875 113.077415 119.859375 113.59304L119.859375 113.983665Q119.859375 115.046165 120.328125 115.68679Q120.8125 116.327415 121.515625 116.327415Q122.25 116.327415 122.671875 115.796165Q123.09375 115.24929 123.09375 114.37429Q123.09375 113.49929 122.671875 112.96804Q122.25 112.421165 121.546875 112.421165ZM125.84375 116.546165Q125.84375 116.264915 126.0 116.077415Q126.171875 115.889915 126.5 115.889915Q126.84375 115.889915 127.015625 116.077415Q127.1875 116.264915 127.1875 116.546165Q127.1875 116.81179 127.015625 116.99929Q126.84375 117.171165 126.5 117.171165Q126.171875 117.171165 126.0 116.99929Q125.84375 116.81179 125.84375 116.546165ZM132.96875 108.577415L132.96875 109.483665L132.76562 109.483665Q131.5 109.514915 130.75 110.24929Q130.0 110.96804 129.875 112.28054Q130.5625 111.514915 131.71875 111.514915Q132.82812 111.514915 133.5 112.296165Q134.17188 113.077415 134.17188 114.327415Q134.17188 115.639915 133.45312 116.43679Q132.73438 117.233665 131.51562 117.233665Q130.29688 117.233665 129.53125 116.296165Q128.78125 115.34304 128.78125 113.858665L128.78125 113.452415Q128.78125 111.09304 129.78125 109.84304Q130.78125 108.59304 132.76562 108.577415L132.96875 108.577415ZM131.54688 112.421165Q130.98438 112.421165 130.51562 112.74929Q130.04688 113.077415 129.85938 113.59304L129.85938 113.983665Q129.85938 115.046165 130.32812 115.68679Q130.8125 116.327415 131.51562 116.327415Q132.25 116.327415 132.67188 115.796165Q133.09375 115.24929 133.09375 114.37429Q133.09375 113.49929 132.67188 112.96804Q132.25 112.421165 131.54688 112.421165ZM141.29688 117.108665L135.70312 117.108665L135.70312 116.327415L138.65625 113.046165Q139.3125 112.296165 139.5625 111.84304Q139.8125 111.37429 139.8125 110.87429Q139.8125 110.202415 139.40625 109.78054Q139.01562 109.34304 138.32812 109.34304Q137.53125 109.34304 137.07812 109.81179Q136.625 110.264915 136.625 111.09304L135.54688 111.09304Q135.54688 109.90554 136.29688 109.18679Q137.0625 108.452415 138.32812 108.452415Q139.53125 108.452415 140.21875 109.077415Q140.90625 109.702415 140.90625 110.74929Q140.90625 111.99929 139.29688 113.74929L137.01562 116.21804L141.29688 116.21804L141.29688 117.108665Z" fill-rule="nonzero"/><path fill="#ffffff" d="M122.96875 108.577415L122.96875 109.483665L122.765625 109.483665Q121.5 109.514915 120.75 110.24929Q120.0 110.96804 119.875 112.28054Q120.5625 111.514915 121.71875 111.514915Q122.828125 111.514915 123.5 112.296165Q124.171875 113.077415 124.171875 114.327415Q124.171875 115.639915 123.453125 116.43679Q122.734375 117.233665 121.515625 117.233665Q120.296875 117.233665 119.53125 116.296165Q118.78125 115.34304 118.78125 113.858665L118.78125 113.452415Q118.78125 111.09304 119.78125 109.84304Q120.78125 108.59304 122.765625 108.577415L122.96875 108.577415ZM121.546875 112.421165Q120.984375 112.421165 120.515625 112.74929Q120.046875 113.077415 119.859375 113.59304L119.859375 113.983665Q119.859375 115.046165 120.328125 115.68679Q120.8125 116.327415 121.515625 116.327415Q122.25 116.327415 122.671875 115.796165Q123.09375 115.24929 123.09375 114.37429Q123.09375 113.49929 122.671875 112.96804Q122.25 112.421165 121.546875 112.421165ZM125.84375 116.546165Q125.84375 116.264915 126.0 116.077415Q126.171875 115.889915 126.5 115.889915Q126.84375 115.889915 127.015625 116.077415Q127.1875 116.264915 127.1875 116.546165Q127.1875 116.81179 127.015625 116.99929Q126.84375 117.171165 126.5 117.171165Q126.171875 117.171165 126.0 116.99929Q125.84375 116.81179 125.84375 116.546165ZM132.96875 108.577415L132.96875 109.483665L132.76562 109.483665Q131.5 109.514915 130.75 110.24929Q130.0 110.96804 129.875 112.28054Q130.5625 111.514915 131.71875 111.514915Q132.82812 111.514915 133.5 112.296165Q134.17188 113.077415 134.17188 114.327415Q134.17188 115.639915 133.45312 116.43679Q132.73438 117.233665 131.51562 117.233665Q130.29688 117.233665 129.53125 116.296165Q128.78125 115.34304 128.78125 113.858665L128.78125 113.452415Q128.78125 111.09304 129.78125 109.84304Q130.78125 108.59304 132.76562 108.577415L132.96875 108.577415ZM131.54688 112.421165Q130.98438 112.421165 130.51562 112.74929Q130.04688 113.077415 129.85938 113.59304L129.85938 113.983665Q129.85938 115.046165 130.32812 115.68679Q130.8125 116.327415 131.51562 116.327415Q132.25 116.327415 132.67188 115.796165Q133.09375 115.24929 133.09375 114.37429Q133.09375 113.49929 132.67188 112.96804Q132.25 112.421165 131.54688 112.421165ZM141.29688 117.108665L135.70312 117.108665L135.70312 116.327415L138.65625 113.046165Q139.3125 112.296165 139.5625 111.84304Q139.8125 111.37429 139.8125 110.87429Q139.8125 110.202415 139.40625 109.78054Q139.01562 109.34304 138.32812 109.34304Q137.53125 109.34304 137.07812 109.81179Q136.625 110.264915 136.625 111.09304L135.54688 111.09304Q135.54688 109.90554 136.29688 109.18679Q137.0625 108.452415 138.32812 108.452415Q139.53125 108.452415 140.21875 109.077415Q140.90625 109.702415 140.90625 110.74929Q140.90625 111.99929 139.29688 113.74929L137.01562 116.21804L141.29688 116.21804L141.29688 117.108665Z" fill-rule="nonzero"/><path stroke="#4285f4" stroke-width="3.0" stroke-linejoin="round" stroke-linecap="round" d="M278.20312 139.82875L278.64062 135.57875L283.01562 135.57875L283.01562 136.57875L279.5625 136.57875L279.29688 138.90688Q279.9375 138.53188 280.73438 138.53188Q281.89062 138.53188 282.57812 139.31313Q283.26562 140.07875 283.26562 141.39125Q283.26562 142.70375 282.54688 143.46938Q281.84375 144.235 280.5625 144.235Q279.4375 144.235 278.71875 143.61Q278.0 142.96938 277.90625 141.86L278.92188 141.86Q279.03125 142.59438 279.45312 142.96938Q279.875 143.34438 280.5625 143.34438Q281.3125 143.34438 281.75 142.82875Q282.1875 142.31313 282.1875 141.40688Q282.1875 140.5475 281.71875 140.03188Q281.25 139.51625 280.46875 139.51625Q279.76562 139.51625 279.35938 139.81313L279.07812 140.0475L278.20312 139.82875ZM284.84375 143.5475Q284.84375 143.26625 285.0 143.07875Q285.17188 142.89125 285.5 142.89125Q285.84375 142.89125 286.01562 143.07875Q286.1875 143.26625 286.1875 143.5475Q286.1875 143.81313 286.01562 144.00063Q285.84375 144.1725 285.5 144.1725Q285.17188 144.1725 285.0 144.00063Q284.84375 143.81313 284.84375 143.5475ZM292.89062 137.7975Q292.89062 138.43813 292.54688 138.93813Q292.20312 139.43813 291.64062 139.71938Q292.29688 140.00063 292.6875 140.56313Q293.07812 141.11 293.07812 141.81313Q293.07812 142.90688 292.32812 143.57875Q291.59375 144.235 290.375 144.235Q289.14062 144.235 288.39062 143.57875Q287.65625 142.90688 287.65625 141.81313Q287.65625 141.11 288.03125 140.56313Q288.40625 140.00063 289.07812 139.71938Q288.51562 139.43813 288.1875 138.93813Q287.85938 138.43813 287.85938 137.7975Q287.85938 136.71938 288.54688 136.09438Q289.23438 135.45375 290.375 135.45375Q291.5 135.45375 292.1875 136.09438Q292.89062 136.71938 292.89062 137.7975ZM292.0 141.78188Q292.0 141.06313 291.54688 140.62563Q291.09375 140.1725 290.35938 140.1725Q289.625 140.1725 289.17188 140.62563Q288.73438 141.06313 288.73438 141.7975Q288.73438 142.51625 289.17188 142.93813Q289.60938 143.34438 290.375 143.34438Q291.125 143.34438 291.5625 142.9225Q292.0 142.50063 292.0 141.78188ZM290.375 136.34438Q289.73438 136.34438 289.32812 136.75063Q288.9375 137.14125 288.9375 137.82875Q288.9375 138.46938 289.32812 138.87563Q289.71875 139.28188 290.35938 139.28188Q291.01562 139.28188 291.40625 138.87563Q291.79688 138.46938 291.79688 137.82875Q291.79688 137.1725 291.39062 136.76625Q290.98438 136.34438 290.375 136.34438ZM295.20312 139.82875L295.64062 135.57875L300.01562 135.57875L300.01562 136.57875L296.5625 136.57875L296.29688 138.90688Q296.9375 138.53188 297.73438 138.53188Q298.89062 138.53188 299.57812 139.31313Q300.26562 140.07875 300.26562 141.39125Q300.26562 142.70375 299.54688 143.46938Q298.84375 144.235 297.5625 144.235Q296.4375 144.235 295.71875 143.61Q295.0 142.96938 294.90625 141.86L295.92188 141.86Q296.03125 142.59438 296.45312 142.96938Q296.875 143.34438 297.5625 143.34438Q298.3125 143.34438 298.75 142.82875Q299.1875 142.31313 299.1875 141.40688Q299.1875 140.5475 298.71875 140.03188Q298.25 139.51625 297.46875 139.51625Q296.76562 139.51625 296.35938 139.81313L296.07812 140.0475L295.20312 139.82875Z" fill-rule="nonzero"/><path fill="#ffffff" d="M278.20312 139.82875L278.64062 135.57875L283.01562 135.57875L283.01562 136.57875L279.5625 136.57875L279.29688 138.90688Q279.9375 138.53188 280.73438 138.53188Q281.89062 138.53188 282.57812 139.31313Q283.26562 140.07875 283.26562 141.39125Q283.26562 142.70375 282.54688 143.46938Q281.84375 144.235 280.5625 144.235Q279.4375 144.235 278.71875 143.61Q278.0 142.96938 277.90625 141.86L278.92188 141.86Q279.03125 142.59438 279.45312 142.96938Q279.875 143.34438 280.5625 143.34438Q281.3125 143.34438 281.75 142.82875Q282.1875 142.31313 282.1875 141.40688Q282.1875 140.5475 281.71875 140.03188Q281.25 139.51625 280.46875 139.51625Q279.76562 139.51625 279.35938 139.81313L279.07812 140.0475L278.20312 139.82875ZM284.84375 143.5475Q284.84375 143.26625 285.0 143.07875Q285.17188 142.89125 285.5 142.89125Q285.84375 142.89125 286.01562 143.07875Q286.1875 143.26625 286.1875 143.5475Q286.1875 143.81313 286.01562 144.00063Q285.84375 144.1725 285.5 144.1725Q285.17188 144.1725 285.0 144.00063Q284.84375 143.81313 284.84375 143.5475ZM292.89062 137.7975Q292.89062 138.43813 292.54688 138.93813Q292.20312 139.43813 291.64062 139.71938Q292.29688 140.00063 292.6875 140.56313Q293.07812 141.11 293.07812 141.81313Q293.07812 142.90688 292.32812 143.57875Q291.59375 144.235 290.375 144.235Q289.14062 144.235 288.39062 143.57875Q287.65625 142.90688 287.65625 141.81313Q287.65625 141.11 288.03125 140.56313Q288.40625 140.00063 289.07812 139.71938Q288.51562 139.43813 288.1875 138.93813Q287.85938 138.43813 287.85938 137.7975Q287.85938 136.71938 288.54688 136.09438Q289.23438 135.45375 290.375 135.45375Q291.5 135.45375 292.1875 136.09438Q292.89062 136.71938 292.89062 137.7975ZM292.0 141.78188Q292.0 141.06313 291.54688 140.62563Q291.09375 140.1725 290.35938 140.1725Q289.625 140.1725 289.17188 140.62563Q288.73438 141.06313 288.73438 141.7975Q288.73438 142.51625 289.17188 142.93813Q289.60938 143.34438 290.375 143.34438Q291.125 143.34438 291.5625 142.9225Q292.0 142.50063 292.0 141.78188ZM290.375 136.34438Q289.73438 136.34438 289.32812 136.75063Q288.9375 137.14125 288.9375 137.82875Q288.9375 138.46938 289.32812 138.87563Q289.71875 139.28188 290.35938 139.28188Q291.01562 139.28188 291.40625 138.87563Q291.79688 138.46938 291.79688 137.82875Q291.79688 137.1725 291.39062 136.76625Q290.98438 136.34438 290.375 136.34438ZM295.20312 139.82875L295.64062 135.57875L300.01562 135.57875L300.01562 136.57875L296.5625 136.57875L296.29688 138.90688Q296.9375 138.53188 297.73438 138.53188Q298.89062 138.53188 299.57812 139.31313Q300.26562 140.07875 300.26562 141.39125Q300.26562 142.70375 299.54688 143.46938Q298.84375 144.235 297.5625 144.235Q296.4375 144.235 295.71875 143.61Q295.0 142.96938 294.90625 141.86L295.92188 141.86Q296.03125 142.59438 296.45312 142.96938Q296.875 143.34438 297.5625 143.34438Q298.3125 143.34438 298.75 142.82875Q299.1875 142.31313 299.1875 141.40688Q299.1875 140.5475 298.71875 140.03188Q298.25 139.51625 297.46875 139.51625Q296.76562 139.51625 296.35938 139.81313L296.07812 140.0475L295.20312 139.82875Z" fill-rule="nonzero"/><path stroke="#4285f4" stroke-width="3.0" stroke-linejoin="round" stroke-linecap="round" d="M438.28125 208.74513L439.09375 208.74513Q439.875 208.7295 440.3125 208.33888Q440.75 207.94826 440.75 207.27638Q440.75 205.77638 439.25 205.77638Q438.54688 205.77638 438.125 206.18263Q437.71875 206.58888 437.71875 207.24513L436.625 207.24513Q436.625 206.2295 437.35938 205.55763Q438.10938 204.88576 439.25 204.88576Q440.45312 204.88576 441.14062 205.52638Q441.82812 206.167 441.82812 207.30763Q441.82812 207.87013 441.46875 208.38576Q441.10938 208.90138 440.48438 209.167Q441.1875 209.38576 441.5625 209.90138Q441.95312 210.417 441.95312 211.167Q441.95312 212.30763 441.20312 212.99513Q440.45312 213.667 439.25 213.667Q438.0625 213.667 437.29688 213.01076Q436.54688 212.3545 436.54688 211.292L437.64062 211.292Q437.64062 211.96388 438.07812 212.37013Q438.51562 212.77638 439.26562 212.77638Q440.04688 212.77638 440.45312 212.37013Q440.875 211.94826 440.875 211.18263Q440.875 210.44826 440.42188 210.05763Q439.96875 209.65138 439.09375 209.63576L438.28125 209.63576L438.28125 208.74513ZM443.84375 212.9795Q443.84375 212.69826 444.0 212.51076Q444.17188 212.32326 444.5 212.32326Q444.84375 212.32326 445.01562 212.51076Q445.1875 212.69826 445.1875 212.9795Q445.1875 213.24513 445.01562 213.43263Q444.84375 213.6045 444.5 213.6045Q444.17188 213.6045 444.0 213.43263Q443.84375 213.24513 443.84375 212.9795ZM451.89062 207.2295Q451.89062 207.87013 451.54688 208.37013Q451.20312 208.87013 450.64062 209.15138Q451.29688 209.43263 451.6875 209.99513Q452.07812 210.542 452.07812 211.24513Q452.07812 212.33888 451.32812 213.01076Q450.59375 213.667 449.375 213.667Q448.14062 213.667 447.39062 213.01076Q446.65625 212.33888 446.65625 211.24513Q446.65625 210.542 447.03125 209.99513Q447.40625 209.43263 448.07812 209.15138Q447.51562 208.87013 447.1875 208.37013Q446.85938 207.87013 446.85938 207.2295Q446.85938 206.15138 447.54688 205.52638Q448.23438 204.88576 449.375 204.88576Q450.5 204.88576 451.1875 205.52638Q451.89062 206.15138 451.89062 207.2295ZM451.0 211.21388Q451.0 210.49513 450.54688 210.05763Q450.09375 209.6045 449.35938 209.6045Q448.625 209.6045 448.17188 210.05763Q447.73438 210.49513 447.73438 211.2295Q447.73438 211.94826 448.17188 212.37013Q448.60938 212.77638 449.375 212.77638Q450.125 212.77638 450.5625 212.3545Q451.0 211.93263 451.0 211.21388ZM449.375 205.77638Q448.73438 205.77638 448.32812 206.18263Q447.9375 206.57326 447.9375 207.26076Q447.9375 207.90138 448.32812 208.30763Q448.71875 208.71388 449.35938 208.71388Q450.01562 208.71388 450.40625 208.30763Q450.79688 207.90138 450.79688 207.26076Q450.79688 206.6045 450.39062 206.19826Q449.98438 205.77638 449.375 205.77638ZM459.21875 205.62013L455.6875 213.542L454.54688 213.542L458.0625 205.90138L453.45312 205.90138L453.45312 205.01076L459.21875 205.01076L459.21875 205.62013Z" fill-rule="nonzero"/><path fill="#ffffff" d="M438.28125 208.74513L439.09375 208.74513Q439.875 208.7295 440.3125 208.33888Q440.75 207.94826 440.75 207.27638Q440.75 205.77638 439.25 205.77638Q438.54688 205.77638 438.125 206.18263Q437.71875 206.58888 437.71875 207.24513L436.625 207.24513Q436.625 206.2295 437.35938 205.55763Q438.10938 204.88576 439.25 204.88576Q440.45312 204.88576 441.14062 205.52638Q441.82812 206.167 441.82812 207.30763Q441.82812 207.87013 441.46875 208.38576Q441.10938 208.90138 440.48438 209.167Q441.1875 209.38576 441.5625 209.90138Q441.95312 210.417 441.95312 211.167Q441.95312 212.30763 441.20312 212.99513Q440.45312 213.667 439.25 213.667Q438.0625 213.667 437.29688 213.01076Q436.54688 212.3545 436.54688 211.292L437.64062 211.292Q437.64062 211.96388 438.07812 212.37013Q438.51562 212.77638 439.26562 212.77638Q440.04688 212.77638 440.45312 212.37013Q440.875 211.94826 440.875 211.18263Q440.875 210.44826 440.42188 210.05763Q439.96875 209.65138 439.09375 209.63576L438.28125 209.63576L438.28125 208.74513ZM443.84375 212.9795Q443.84375 212.69826 444.0 212.51076Q444.17188 212.32326 444.5 212.32326Q444.84375 212.32326 445.01562 212.51076Q445.1875 212.69826 445.1875 212.9795Q445.1875 213.24513 445.01562 213.43263Q444.84375 213.6045 444.5 213.6045Q444.17188 213.6045 444.0 213.43263Q443.84375 213.24513 443.84375 212.9795ZM451.89062 207.2295Q451.89062 207.87013 451.54688 208.37013Q451.20312 208.87013 450.64062 209.15138Q451.29688 209.43263 451.6875 209.99513Q452.07812 210.542 452.07812 211.24513Q452.07812 212.33888 451.32812 213.01076Q450.59375 213.667 449.375 213.667Q448.14062 213.667 447.39062 213.01076Q446.65625 212.33888 446.65625 211.24513Q446.65625 210.542 447.03125 209.99513Q447.40625 209.43263 448.07812 209.15138Q447.51562 208.87013 447.1875 208.37013Q446.85938 207.87013 446.85938 207.2295Q446.85938 206.15138 447.54688 205.52638Q448.23438 204.88576 449.375 204.88576Q450.5 204.88576 451.1875 205.52638Q451.89062 206.15138 451.89062 207.2295ZM451.0 211.21388Q451.0 210.49513 450.54688 210.05763Q450.09375 209.6045 449.35938 209.6045Q448.625 209.6045 448.17188 210.05763Q447.73438 210.49513 447.73438 211.2295Q447.73438 211.94826 448.17188 212.37013Q448.60938 212.77638 449.375 212.77638Q450.125 212.77638 450.5625 212.3545Q451.0 211.93263 451.0 211.21388ZM449.375 205.77638Q448.73438 205.77638 448.32812 206.18263Q447.9375 206.57326 447.9375 207.26076Q447.9375 207.90138 448.32812 208.30763Q448.71875 208.71388 449.35938 208.71388Q450.01562 208.71388 450.40625 208.30763Q450.79688 207.90138 450.79688 207.26076Q450.79688 206.6045 450.39062 206.19826Q449.98438 205.77638 449.375 205.77638ZM459.21875 205.62013L455.6875 213.542L454.54688 213.542L458.0625 205.90138L453.45312 205.90138L453.45312 205.01076L459.21875 205.01076L459.21875 205.62013Z" fill-rule="nonzero"/><path stroke="#ea4335" stroke-width="3.0" stroke-linejoin="round" stroke-linecap="round" d="M171.20312 146.84209L171.64062 142.59209L176.01562 142.59209L176.01562 143.59209L172.5625 143.59209L172.29688 145.92021Q172.9375 145.54521 173.73438 145.54521Q174.89062 145.54521 175.57812 146.32646Q176.26562 147.09209 176.26562 148.40459Q176.26562 149.71709 175.54688 150.48271Q174.84375 151.24834 173.5625 151.24834Q172.4375 151.24834 171.71875 150.62334Q171.0 149.98271 170.90625 148.87334L171.92188 148.87334Q172.03125 149.60771 172.45312 149.98271Q172.875 150.35771 173.5625 150.35771Q174.3125 150.35771 174.75 149.84209Q175.1875 149.32646 175.1875 148.42021Q175.1875 147.56084 174.71875 147.04521Q174.25 146.52959 173.46875 146.52959Q172.76562 146.52959 172.35938 146.82646L172.07812 147.06084L171.20312 146.84209ZM177.84375 150.56084Q177.84375 150.27959 178.0 150.09209Q178.17188 149.90459 178.5 149.90459Q178.84375 149.90459 179.01562 150.09209Q179.1875 150.27959 179.1875 150.56084Q179.1875 150.82646 179.01562 151.01396Q178.84375 151.18584 178.5 151.18584Q178.17188 151.18584 178.0 151.01396Q177.84375 150.82646 177.84375 150.56084ZM184.96875 142.59209L184.96875 143.49834L184.76562 143.49834Q183.5 143.52959 182.75 144.26396Q182.0 144.98271 181.875 146.29521Q182.5625 145.52959 183.71875 145.52959Q184.82812 145.52959 185.5 146.31084Q186.17188 147.09209 186.17188 148.34209Q186.17188 149.65459 185.45312 150.45146Q184.73438 151.24834 183.51562 151.24834Q182.29688 151.24834 181.53125 150.31084Q180.78125 149.35771 180.78125 147.87334L180.78125 147.46709Q180.78125 145.10771 181.78125 143.85771Q182.78125 142.60771 184.76562 142.59209L184.96875 142.59209ZM183.54688 146.43584Q182.98438 146.43584 182.51562 146.76396Q182.04688 147.09209 181.85938 147.60771L181.85938 147.99834Q181.85938 149.06084 182.32812 149.70146Q182.8125 150.34209 183.51562 150.34209Q184.25 150.34209 184.67188 149.81084Q185.09375 149.26396 185.09375 148.38896Q185.09375 147.51396 184.67188 146.98271Q184.25 146.43584 183.54688 146.43584ZM188.20312 146.84209L188.64062 142.59209L193.01562 142.59209L193.01562 143.59209L189.5625 143.59209L189.29688 145.92021Q189.9375 145.54521 190.73438 145.54521Q191.89062 145.54521 192.57812 146.32646Q193.26562 147.09209 193.26562 148.40459Q193.26562 149.71709 192.54688 150.48271Q191.84375 151.24834 190.5625 151.24834Q189.4375 151.24834 188.71875 150.62334Q188.0 149.98271 187.90625 148.87334L188.92188 148.87334Q189.03125 149.60771 189.45312 149.98271Q189.875 150.35771 190.5625 150.35771Q191.3125 150.35771 191.75 149.84209Q192.1875 149.32646 192.1875 148.42021Q192.1875 147.56084 191.71875 147.04521Q191.25 146.52959 190.46875 146.52959Q189.76562 146.52959 189.35938 146.82646L189.07812 147.06084L188.20312 146.84209Z" fill-rule="nonzero"/><path fill="#ffffff" d="M171.20312 146.84209L171.64062 142.59209L176.01562 142.59209L176.01562 143.59209L172.5625 143.59209L172.29688 145.92021Q172.9375 145.54521 173.73438 145.54521Q174.89062 145.54521 175.57812 146.32646Q176.26562 147.09209 176.26562 148.40459Q176.26562 149.71709 175.54688 150.48271Q174.84375 151.24834 173.5625 151.24834Q172.4375 151.24834 171.71875 150.62334Q171.0 149.98271 170.90625 148.87334L171.92188 148.87334Q172.03125 149.60771 172.45312 149.98271Q172.875 150.35771 173.5625 150.35771Q174.3125 150.35771 174.75 149.84209Q175.1875 149.32646 175.1875 148.42021Q175.1875 147.56084 174.71875 147.04521Q174.25 146.52959 173.46875 146.52959Q172.76562 146.52959 172.35938 146.82646L172.07812 147.06084L171.20312 146.84209ZM177.84375 150.56084Q177.84375 150.27959 178.0 150.09209Q178.17188 149.90459 178.5 149.90459Q178.84375 149.90459 179.01562 150.09209Q179.1875 150.27959 179.1875 150.56084Q179.1875 150.82646 179.01562 151.01396Q178.84375 151.18584 178.5 151.18584Q178.17188 151.18584 178.0 151.01396Q177.84375 150.82646 177.84375 150.56084ZM184.96875 142.59209L184.96875 143.49834L184.76562 143.49834Q183.5 143.52959 182.75 144.26396Q182.0 144.98271 181.875 146.29521Q182.5625 145.52959 183.71875 145.52959Q184.82812 145.52959 185.5 146.31084Q186.17188 147.09209 186.17188 148.34209Q186.17188 149.65459 185.45312 150.45146Q184.73438 151.24834 183.51562 151.24834Q182.29688 151.24834 181.53125 150.31084Q180.78125 149.35771 180.78125 147.87334L180.78125 147.46709Q180.78125 145.10771 181.78125 143.85771Q182.78125 142.60771 184.76562 142.59209L184.96875 142.59209ZM183.54688 146.43584Q182.98438 146.43584 182.51562 146.76396Q182.04688 147.09209 181.85938 147.60771L181.85938 147.99834Q181.85938 149.06084 182.32812 149.70146Q182.8125 150.34209 183.51562 150.34209Q184.25 150.34209 184.67188 149.81084Q185.09375 149.26396 185.09375 148.38896Q185.09375 147.51396 184.67188 146.98271Q184.25 146.43584 183.54688 146.43584ZM188.20312 146.84209L188.64062 142.59209L193.01562 142.59209L193.01562 143.59209L189.5625 143.59209L189.29688 145.92021Q189.9375 145.54521 190.73438 145.54521Q191.89062 145.54521 192.57812 146.32646Q193.26562 147.09209 193.26562 148.40459Q193.26562 149.71709 192.54688 150.48271Q191.84375 151.24834 190.5625 151.24834Q189.4375 151.24834 188.71875 150.62334Q188.0 149.98271 187.90625 148.87334L188.92188 148.87334Q189.03125 149.60771 189.45312 149.98271Q189.875 150.35771 190.5625 150.35771Q191.3125 150.35771 191.75 149.84209Q192.1875 149.32646 192.1875 148.42021Q192.1875 147.56084 191.71875 147.04521Q191.25 146.52959 190.46875 146.52959Q189.76562 146.52959 189.35938 146.82646L189.07812 147.06084L188.20312 146.84209Z" fill-rule="nonzero"/><path stroke="#ea4335" stroke-width="3.0" stroke-linejoin="round" stroke-linecap="round" d="M330.20312 166.12875L330.64062 161.87875L335.01562 161.87875L335.01562 162.87875L331.5625 162.87875L331.29688 165.20688Q331.9375 164.83188 332.73438 164.83188Q333.89062 164.83188 334.57812 165.61313Q335.26562 166.37875 335.26562 167.69125Q335.26562 169.00375 334.54688 169.76938Q333.84375 170.535 332.5625 170.535Q331.4375 170.535 330.71875 169.91Q330.0 169.26938 329.90625 168.16L330.92188 168.16Q331.03125 168.89438 331.45312 169.26938Q331.875 169.64438 332.5625 169.64438Q333.3125 169.64438 333.75 169.12875Q334.1875 168.61313 334.1875 167.70688Q334.1875 166.8475 333.71875 166.33188Q333.25 165.81625 332.46875 165.81625Q331.76562 165.81625 331.35938 166.11313L331.07812 166.3475L330.20312 166.12875ZM336.84375 169.8475Q336.84375 169.56625 337.0 169.37875Q337.17188 169.19125 337.5 169.19125Q337.84375 169.19125 338.01562 169.37875Q338.1875 169.56625 338.1875 169.8475Q338.1875 170.11313 338.01562 170.30063Q337.84375 170.4725 337.5 170.4725Q337.17188 170.4725 337.0 170.30063Q336.84375 170.11313 336.84375 169.8475ZM343.26562 170.41L342.1875 170.41L342.1875 163.19125L340.0 163.98813L340.0 163.00375L343.10938 161.83188L343.26562 161.83188L343.26562 170.41ZM352.0625 166.76938Q352.0625 168.67563 351.40625 169.61313Q350.76562 170.535 349.375 170.535Q348.01562 170.535 347.35938 169.62875Q346.70312 168.7225 346.67188 166.91L346.67188 165.4725Q346.67188 163.58188 347.3125 162.67563Q347.96875 161.75375 349.35938 161.75375Q350.73438 161.75375 351.39062 162.64438Q352.04688 163.51938 352.0625 165.36313L352.0625 166.76938ZM350.96875 165.285Q350.96875 163.91 350.57812 163.285Q350.20312 162.64438 349.35938 162.64438Q348.53125 162.64438 348.14062 163.285Q347.76562 163.91 347.76562 165.20688L347.76562 166.94125Q347.76562 168.31625 348.15625 168.98813Q348.5625 169.64438 349.375 169.64438Q350.17188 169.64438 350.5625 169.01938Q350.95312 168.39438 350.96875 167.06625L350.96875 165.285Z" fill-rule="nonzero"/><path fill="#ffffff" d="M330.20312 166.12875L330.64062 161.87875L335.01562 161.87875L335.01562 162.87875L331.5625 162.87875L331.29688 165.20688Q331.9375 164.83188 332.73438 164.83188Q333.89062 164.83188 334.57812 165.61313Q335.26562 166.37875 335.26562 167.69125Q335.26562 169.00375 334.54688 169.76938Q333.84375 170.535 332.5625 170.535Q331.4375 170.535 330.71875 169.91Q330.0 169.26938 329.90625 168.16L330.92188 168.16Q331.03125 168.89438 331.45312 169.26938Q331.875 169.64438 332.5625 169.64438Q333.3125 169.64438 333.75 169.12875Q334.1875 168.61313 334.1875 167.70688Q334.1875 166.8475 333.71875 166.33188Q333.25 165.81625 332.46875 165.81625Q331.76562 165.81625 331.35938 166.11313L331.07812 166.3475L330.20312 166.12875ZM336.84375 169.8475Q336.84375 169.56625 337.0 169.37875Q337.17188 169.19125 337.5 169.19125Q337.84375 169.19125 338.01562 169.37875Q338.1875 169.56625 338.1875 169.8475Q338.1875 170.11313 338.01562 170.30063Q337.84375 170.4725 337.5 170.4725Q337.17188 170.4725 337.0 170.30063Q336.84375 170.11313 336.84375 169.8475ZM343.26562 170.41L342.1875 170.41L342.1875 163.19125L340.0 163.98813L340.0 163.00375L343.10938 161.83188L343.26562 161.83188L343.26562 170.41ZM352.0625 166.76938Q352.0625 168.67563 351.40625 169.61313Q350.76562 170.535 349.375 170.535Q348.01562 170.535 347.35938 169.62875Q346.70312 168.7225 346.67188 166.91L346.67188 165.4725Q346.67188 163.58188 347.3125 162.67563Q347.96875 161.75375 349.35938 161.75375Q350.73438 161.75375 351.39062 162.64438Q352.04688 163.51938 352.0625 165.36313L352.0625 166.76938ZM350.96875 165.285Q350.96875 163.91 350.57812 163.285Q350.20312 162.64438 349.35938 162.64438Q348.53125 162.64438 348.14062 163.285Q347.76562 163.91 347.76562 165.20688L347.76562 166.94125Q347.76562 168.31625 348.15625 168.98813Q348.5625 169.64438 349.375 169.64438Q350.17188 169.64438 350.5625 169.01938Q350.95312 168.39438 350.96875 167.06625L350.96875 165.285Z" fill-rule="nonzero"/><path stroke="#ea4335" stroke-width="3.0" stroke-linejoin="round" stroke-linecap="round" d="M490.28125 231.18779L491.09375 231.18779Q491.875 231.17216 492.3125 230.78154Q492.75 230.39091 492.75 229.71904Q492.75 228.21904 491.25 228.21904Q490.54688 228.21904 490.125 228.62529Q489.71875 229.03154 489.71875 229.68779L488.625 229.68779Q488.625 228.67216 489.35938 228.00029Q490.10938 227.32841 491.25 227.32841Q492.45312 227.32841 493.14062 227.96904Q493.82812 228.60966 493.82812 229.75029Q493.82812 230.31279 493.46875 230.82841Q493.10938 231.34404 492.48438 231.60966Q493.1875 231.82841 493.5625 232.34404Q493.95312 232.85966 493.95312 233.60966Q493.95312 234.75029 493.20312 235.43779Q492.45312 236.10966 491.25 236.10966Q490.0625 236.10966 489.29688 235.45341Q488.54688 234.79716 488.54688 233.73466L489.64062 233.73466Q489.64062 234.40654 490.07812 234.81279Q490.51562 235.21904 491.26562 235.21904Q492.04688 235.21904 492.45312 234.81279Q492.875 234.39091 492.875 233.62529Q492.875 232.89091 492.42188 232.50029Q491.96875 232.09404 491.09375 232.07841L490.28125 232.07841L490.28125 231.18779ZM495.84375 235.42216Q495.84375 235.14091 496.0 234.95341Q496.17188 234.76591 496.5 234.76591Q496.84375 234.76591 497.01562 234.95341Q497.1875 235.14091 497.1875 235.42216Q497.1875 235.68779 497.01562 235.87529Q496.84375 236.04716 496.5 236.04716Q496.17188 236.04716 496.0 235.87529Q495.84375 235.68779 495.84375 235.42216ZM504.29688 235.98466L498.70312 235.98466L498.70312 235.20341L501.65625 231.92216Q502.3125 231.17216 502.5625 230.71904Q502.8125 230.25029 502.8125 229.75029Q502.8125 229.07841 502.40625 228.65654Q502.01562 228.21904 501.32812 228.21904Q500.53125 228.21904 500.07812 228.68779Q499.625 229.14091 499.625 229.96904L498.54688 229.96904Q498.54688 228.78154 499.29688 228.06279Q500.0625 227.32841 501.32812 227.32841Q502.53125 227.32841 503.21875 227.95341Q503.90625 228.57841 503.90625 229.62529Q503.90625 230.87529 502.29688 232.62529L500.01562 235.09404L504.29688 235.09404L504.29688 235.98466ZM507.28125 231.18779L508.09375 231.18779Q508.875 231.17216 509.3125 230.78154Q509.75 230.39091 509.75 229.71904Q509.75 228.21904 508.25 228.21904Q507.54688 228.21904 507.125 228.62529Q506.71875 229.03154 506.71875 229.68779L505.625 229.68779Q505.625 228.67216 506.35938 228.00029Q507.10938 227.32841 508.25 227.32841Q509.45312 227.32841 510.14062 227.96904Q510.82812 228.60966 510.82812 229.75029Q510.82812 230.31279 510.46875 230.82841Q510.10938 231.34404 509.48438 231.60966Q510.1875 231.82841 510.5625 232.34404Q510.95312 232.85966 510.95312 233.60966Q510.95312 234.75029 510.20312 235.43779Q509.45312 236.10966 508.25 236.10966Q507.0625 236.10966 506.29688 235.45341Q505.54688 234.79716 505.54688 233.73466L506.64062 233.73466Q506.64062 234.40654 507.07812 234.81279Q507.51562 235.21904 508.26562 235.21904Q509.04688 235.21904 509.45312 234.81279Q509.875 234.39091 509.875 233.62529Q509.875 232.89091 509.42188 232.50029Q508.96875 232.09404 508.09375 232.07841L507.28125 232.07841L507.28125 231.18779Z" fill-rule="nonzero"/><path fill="#ffffff" d="M490.28125 231.18779L491.09375 231.18779Q491.875 231.17216 492.3125 230.78154Q492.75 230.39091 492.75 229.71904Q492.75 228.21904 491.25 228.21904Q490.54688 228.21904 490.125 228.62529Q489.71875 229.03154 489.71875 229.68779L488.625 229.68779Q488.625 228.67216 489.35938 228.00029Q490.10938 227.32841 491.25 227.32841Q492.45312 227.32841 493.14062 227.96904Q493.82812 228.60966 493.82812 229.75029Q493.82812 230.31279 493.46875 230.82841Q493.10938 231.34404 492.48438 231.60966Q493.1875 231.82841 493.5625 232.34404Q493.95312 232.85966 493.95312 233.60966Q493.95312 234.75029 493.20312 235.43779Q492.45312 236.10966 491.25 236.10966Q490.0625 236.10966 489.29688 235.45341Q488.54688 234.79716 488.54688 233.73466L489.64062 233.73466Q489.64062 234.40654 490.07812 234.81279Q490.51562 235.21904 491.26562 235.21904Q492.04688 235.21904 492.45312 234.81279Q492.875 234.39091 492.875 233.62529Q492.875 232.89091 492.42188 232.50029Q491.96875 232.09404 491.09375 232.07841L490.28125 232.07841L490.28125 231.18779ZM495.84375 235.42216Q495.84375 235.14091 496.0 234.95341Q496.17188 234.76591 496.5 234.76591Q496.84375 234.76591 497.01562 234.95341Q497.1875 235.14091 497.1875 235.42216Q497.1875 235.68779 497.01562 235.87529Q496.84375 236.04716 496.5 236.04716Q496.17188 236.04716 496.0 235.87529Q495.84375 235.68779 495.84375 235.42216ZM504.29688 235.98466L498.70312 235.98466L498.70312 235.20341L501.65625 231.92216Q502.3125 231.17216 502.5625 230.71904Q502.8125 230.25029 502.8125 229.75029Q502.8125 229.07841 502.40625 228.65654Q502.01562 228.21904 501.32812 228.21904Q500.53125 228.21904 500.07812 228.68779Q499.625 229.14091 499.625 229.96904L498.54688 229.96904Q498.54688 228.78154 499.29688 228.06279Q500.0625 227.32841 501.32812 227.32841Q502.53125 227.32841 503.21875 227.95341Q503.90625 228.57841 503.90625 229.62529Q503.90625 230.87529 502.29688 232.62529L500.01562 235.09404L504.29688 235.09404L504.29688 235.98466ZM507.28125 231.18779L508.09375 231.18779Q508.875 231.17216 509.3125 230.78154Q509.75 230.39091 509.75 229.71904Q509.75 228.21904 508.25 228.21904Q507.54688 228.21904 507.125 228.62529Q506.71875 229.03154 506.71875 229.68779L505.625 229.68779Q505.625 228.67216 506.35938 228.00029Q507.10938 227.32841 508.25 227.32841Q509.45312 227.32841 510.14062 227.96904Q510.82812 228.60966 510.82812 229.75029Q510.82812 230.31279 510.46875 230.82841Q510.10938 231.34404 509.48438 231.60966Q510.1875 231.82841 510.5625 232.34404Q510.95312 232.85966 510.95312 233.60966Q510.95312 234.75029 510.20312 235.43779Q509.45312 236.10966 508.25 236.10966Q507.0625 236.10966 506.29688 235.45341Q505.54688 234.79716 505.54688 233.73466L506.64062 233.73466Q506.64062 234.40654 507.07812 234.81279Q507.51562 235.21904 508.26562 235.21904Q509.04688 235.21904 509.45312 234.81279Q509.875 234.39091 509.875 233.62529Q509.875 232.89091 509.42188 232.50029Q508.96875 232.09404 508.09375 232.07841L507.28125 232.07841L507.28125 231.18779Z" fill-rule="nonzero"/><path fill="#000000" d="M19.05 332.21564Q19.05 330.6844 19.3625 329.7625Q19.675 328.825 20.284374 328.325Q20.909374 327.825 21.846874 327.825Q22.534374 327.825 23.05 328.10626Q23.58125 328.3875 23.925 328.91876Q24.26875 329.4344 24.45625 330.1844Q24.64375 330.9344 24.64375 332.21564Q24.64375 333.73126 24.33125 334.65314Q24.034374 335.575 23.409374 336.09064Q22.8 336.59064 21.846874 336.59064Q20.6125 336.59064 19.89375 335.7Q19.05 334.6375 19.05 332.21564ZM20.128124 332.21564Q20.128124 334.325 20.628124 335.02814Q21.128124 335.73126 21.846874 335.73126Q22.58125 335.73126 23.065624 335.02814Q23.565624 334.325 23.565624 332.21564Q23.565624 330.09064 23.065624 329.40314Q22.58125 328.7 21.83125 328.7Q21.1125 328.7 20.675 329.3094Q20.128124 330.09064 20.128124 332.21564ZM26.64375 336.45L26.64375 335.2469L27.846874 335.2469L27.846874 336.45L26.64375 336.45ZM29.05 332.21564Q29.05 330.6844 29.3625 329.7625Q29.675 328.825 30.284374 328.325Q30.909374 327.825 31.846874 327.825Q32.534374 327.825 33.05 328.10626Q33.58125 328.3875 33.925 328.91876Q34.26875 329.4344 34.45625 330.1844Q34.64375 330.9344 34.64375 332.21564Q34.64375 333.73126 34.33125 334.65314Q34.034374 335.575 33.409374 336.09064Q32.8 336.59064 31.846874 336.59064Q30.6125 336.59064 29.89375 335.7Q29.05 334.6375 29.05 332.21564ZM30.128124 332.21564Q30.128124 334.325 30.628124 335.02814Q31.128124 335.73126 31.846874 335.73126Q32.58125 335.73126 33.065624 335.02814Q33.565624 334.325 33.565624 332.21564Q33.565624 330.09064 33.065624 329.40314Q32.58125 328.7 31.83125 328.7Q31.1125 328.7 30.675 329.3094Q30.128124 330.09064 30.128124 332.21564ZM36.05 332.21564Q36.05 330.6844 36.3625 329.7625Q36.675 328.825 37.284374 328.325Q37.909374 327.825 38.846874 327.825Q39.534374 327.825 40.05 328.10626Q40.58125 328.3875 40.925 328.91876Q41.26875 329.4344 41.45625 330.1844Q41.64375 330.9344 41.64375 332.21564Q41.64375 333.73126 41.33125 334.65314Q41.034374 335.575 40.409374 336.09064Q39.8 336.59064 38.846874 336.59064Q37.6125 336.59064 36.89375 335.7Q36.05 334.6375 36.05 332.21564ZM37.128124 332.21564Q37.128124 334.325 37.628124 335.02814Q38.128124 335.73126 38.846874 335.73126Q39.58125 335.73126 40.065624 335.02814Q40.565624 334.325 40.565624 332.21564Q40.565624 330.09064 40.065624 329.40314Q39.58125 328.7 38.83125 328.7Q38.1125 328.7 37.675 329.3094Q37.128124 330.09064 37.128124 332.21564Z" fill-rule="nonzero"/><path fill="#000000" d="M24.596874 265.30106L24.596874 266.31668L18.909374 266.31668Q18.909374 265.94168 19.034374 265.5823Q19.253124 265.00418 19.721874 264.44168Q20.20625 263.87918 21.1125 263.1448Q22.51875 261.98856 23.003124 261.31668Q23.503124 260.6448 23.503124 260.05106Q23.503124 259.42606 23.05 259.00418Q22.596874 258.56668 21.878124 258.56668Q21.1125 258.56668 20.659374 259.0198Q20.20625 259.47293 20.190624 260.28543L19.1125 260.17606Q19.221874 258.9573 19.940624 258.3323Q20.675 257.69168 21.909374 257.69168Q23.14375 257.69168 23.8625 258.37918Q24.58125 259.06668 24.58125 260.0823Q24.58125 260.59793 24.3625 261.09793Q24.159374 261.5823 23.659374 262.1448Q23.175 262.69168 22.05 263.6448Q21.096874 264.44168 20.815624 264.73856Q20.55 265.0198 20.378124 265.30106L24.596874 265.30106ZM26.64375 266.31668L26.64375 265.11356L27.846874 265.11356L27.846874 266.31668L26.64375 266.31668ZM29.05 262.0823Q29.05 260.55106 29.3625 259.62918Q29.675 258.69168 30.284374 258.19168Q30.909374 257.69168 31.846874 257.69168Q32.534374 257.69168 33.05 257.97293Q33.58125 258.25418 33.925 258.78543Q34.26875 259.30106 34.45625 260.05106Q34.64375 260.80106 34.64375 262.0823Q34.64375 263.59793 34.33125 264.5198Q34.034374 265.44168 33.409374 265.9573Q32.8 266.4573 31.846874 266.4573Q30.6125 266.4573 29.89375 265.56668Q29.05 264.50418 29.05 262.0823ZM30.128124 262.0823Q30.128124 264.19168 30.628124 264.8948Q31.128124 265.59793 31.846874 265.59793Q32.58125 265.59793 33.065624 264.8948Q33.565624 264.19168 33.565624 262.0823Q33.565624 259.9573 33.065624 259.2698Q32.58125 258.56668 31.83125 258.56668Q31.1125 258.56668 30.675 259.17606Q30.128124 259.9573 30.128124 262.0823ZM36.05 262.0823Q36.05 260.55106 36.3625 259.62918Q36.675 258.69168 37.284374 258.19168Q37.909374 257.69168 38.846874 257.69168Q39.534374 257.69168 40.05 257.97293Q40.58125 258.25418 40.925 258.78543Q41.26875 259.30106 41.45625 260.05106Q41.64375 260.80106 41.64375 262.0823Q41.64375 263.59793 41.33125 264.5198Q41.034374 265.44168 40.409374 265.9573Q39.8 266.4573 38.846874 266.4573Q37.6125 266.4573 36.89375 265.56668Q36.05 264.50418 36.05 262.0823ZM37.128124 262.0823Q37.128124 264.19168 37.628124 264.8948Q38.128124 265.59793 38.846874 265.59793Q39.58125 265.59793 40.065624 264.8948Q40.565624 264.19168 40.565624 262.0823Q40.565624 259.9573 40.065624 259.2698Q39.58125 258.56668 38.83125 258.56668Q38.1125 258.56668 37.675 259.17606Q37.128124 259.9573 37.128124 262.0823Z" fill-rule="nonzero"/><path fill="#000000" d="M22.425 196.18333L22.425 194.12083L18.70625 194.12083L18.70625 193.15208L22.628124 187.58958L23.4875 187.58958L23.4875 193.15208L24.64375 193.15208L24.64375 194.12083L23.4875 194.12083L23.4875 196.18333L22.425 196.18333ZM22.425 193.15208L22.425 189.29271L19.7375 193.15208L22.425 193.15208ZM26.64375 196.18333L26.64375 194.98021L27.846874 194.98021L27.846874 196.18333L26.64375 196.18333ZM29.05 191.94896Q29.05 190.41771 29.3625 189.49583Q29.675 188.55833 30.284374 188.05833Q30.909374 187.55833 31.846874 187.55833Q32.534374 187.55833 33.05 187.83958Q33.58125 188.12083 33.925 188.65208Q34.26875 189.16771 34.45625 189.91771Q34.64375 190.66771 34.64375 191.94896Q34.64375 193.46458 34.33125 194.38646Q34.034374 195.30833 33.409374 195.82396Q32.8 196.32396 31.846874 196.32396Q30.6125 196.32396 29.89375 195.43333Q29.05 194.37083 29.05 191.94896ZM30.128124 191.94896Q30.128124 194.05833 30.628124 194.76146Q31.128124 195.46458 31.846874 195.46458Q32.58125 195.46458 33.065624 194.76146Q33.565624 194.05833 33.565624 191.94896Q33.565624 189.82396 33.065624 189.13646Q32.58125 188.43333 31.83125 188.43333Q31.1125 188.43333 30.675 189.04271Q30.128124 189.82396 30.128124 191.94896ZM36.05 191.94896Q36.05 190.41771 36.3625 189.49583Q36.675 188.55833 37.284374 188.05833Q37.909374 187.55833 38.846874 187.55833Q39.534374 187.55833 40.05 187.83958Q40.58125 188.12083 40.925 188.65208Q41.26875 189.16771 41.45625 189.91771Q41.64375 190.66771 41.64375 191.94896Q41.64375 193.46458 41.33125 194.38646Q41.034374 195.30833 40.409374 195.82396Q39.8 196.32396 38.846874 196.32396Q37.6125 196.32396 36.89375 195.43333Q36.05 194.37083 36.05 191.94896ZM37.128124 191.94896Q37.128124 194.05833 37.628124 194.76146Q38.128124 195.46458 38.846874 195.46458Q39.58125 195.46458 40.065624 194.76146Q40.565624 194.05833 40.565624 191.94896Q40.565624 189.82396 40.065624 189.13646Q39.58125 188.43333 38.83125 188.43333Q38.1125 188.43333 37.675 189.04271Q37.128124 189.82396 37.128124 191.94896Z" fill-rule="nonzero"/><path fill="#000000" d="M24.51875 119.56563L23.471874 119.64375Q23.33125 119.01875 23.08125 118.7375Q22.64375 118.28438 22.01875 118.28438Q21.51875 118.28438 21.128124 118.56563Q20.64375 118.94063 20.346874 119.64375Q20.065624 120.33125 20.05 121.6125Q20.425 121.03438 20.971874 120.75313Q21.534374 120.47188 22.14375 120.47188Q23.190624 120.47188 23.925 121.25313Q24.675 122.03438 24.675 123.25313Q24.675 124.06563 24.315624 124.76875Q23.971874 125.45625 23.3625 125.83125Q22.753124 126.19063 21.9875 126.19063Q20.659374 126.19063 19.83125 125.22188Q19.003124 124.25313 19.003124 122.03438Q19.003124 119.53438 19.925 118.40938Q20.721874 117.425 22.08125 117.425Q23.096874 117.425 23.7375 118.00313Q24.39375 118.56563 24.51875 119.56563ZM20.221874 123.26875Q20.221874 123.81563 20.440624 124.31563Q20.675 124.8 21.08125 125.06563Q21.503124 125.33125 21.971874 125.33125Q22.628124 125.33125 23.1125 124.8Q23.596874 124.25313 23.596874 123.33125Q23.596874 122.44063 23.1125 121.925Q22.64375 121.40938 21.925 121.40938Q21.20625 121.40938 20.70625 121.925Q20.221874 122.44063 20.221874 123.26875ZM26.64375 126.05L26.64375 124.84688L27.846874 124.84688L27.846874 126.05L26.64375 126.05ZM29.05 121.81563Q29.05 120.28438 29.3625 119.3625Q29.675 118.425 30.284374 117.925Q30.909374 117.425 31.846874 117.425Q32.534374 117.425 33.05 117.70625Q33.58125 117.9875 33.925 118.51875Q34.26875 119.03438 34.45625 119.78438Q34.64375 120.53438 34.64375 121.81563Q34.64375 123.33125 34.33125 124.25313Q34.034374 125.175 33.409374 125.69063Q32.8 126.19063 31.846874 126.19063Q30.6125 126.19063 29.89375 125.3Q29.05 124.2375 29.05 121.81563ZM30.128124 121.81563Q30.128124 123.925 30.628124 124.62813Q31.128124 125.33125 31.846874 125.33125Q32.58125 125.33125 33.065624 124.62813Q33.565624 123.925 33.565624 121.81563Q33.565624 119.69063 33.065624 119.00313Q32.58125 118.3 31.83125 118.3Q31.1125 118.3 30.675 118.90938Q30.128124 119.69063 30.128124 121.81563ZM36.05 121.81563Q36.05 120.28438 36.3625 119.3625Q36.675 118.425 37.284374 117.925Q37.909374 117.425 38.846874 117.425Q39.534374 117.425 40.05 117.70625Q40.58125 117.9875 40.925 118.51875Q41.26875 119.03438 41.45625 119.78438Q41.64375 120.53438 41.64375 121.81563Q41.64375 123.33125 41.33125 124.25313Q41.034374 125.175 40.409374 125.69063Q39.8 126.19063 38.846874 126.19063Q37.6125 126.19063 36.89375 125.3Q36.05 124.2375 36.05 121.81563ZM37.128124 121.81563Q37.128124 123.925 37.628124 124.62813Q38.128124 125.33125 38.846874 125.33125Q39.58125 125.33125 40.065624 124.62813Q40.565624 123.925 40.565624 121.81563Q40.565624 119.69063 40.065624 119.00313Q39.58125 118.3 38.83125 118.3Q38.1125 118.3 37.675 118.90938Q37.128124 119.69063 37.128124 121.81563Z" fill-rule="nonzero"/><path fill="#000000" d="M20.675 51.260418Q20.01875 51.010418 19.690624 50.572918Q19.378124 50.119793 19.378124 49.510418Q19.378124 48.572918 20.05 47.932293Q20.7375 47.291668 21.846874 47.291668Q22.971874 47.291668 23.659374 47.947918Q24.346874 48.604168 24.346874 49.541668Q24.346874 50.135418 24.034374 50.572918Q23.721874 51.010418 23.08125 51.260418Q23.878124 51.510418 24.284374 52.088543Q24.690624 52.666668 24.690624 53.463543Q24.690624 54.557293 23.909374 55.307293Q23.14375 56.057293 21.8625 56.057293Q20.596874 56.057293 19.815624 55.307293Q19.034374 54.557293 19.034374 53.432293Q19.034374 52.588543 19.45625 52.026043Q19.89375 51.463543 20.675 51.260418ZM20.45625 49.463543Q20.45625 50.072918 20.846874 50.463543Q21.253124 50.854168 21.878124 50.854168Q22.4875 50.854168 22.878124 50.479168Q23.26875 50.088543 23.26875 49.526043Q23.26875 48.947918 22.8625 48.557293Q22.45625 48.151043 21.8625 48.151043Q21.253124 48.151043 20.846874 48.541668Q20.45625 48.932293 20.45625 49.463543ZM20.128124 53.432293Q20.128124 53.885418 20.33125 54.307293Q20.55 54.729168 20.971874 54.963543Q21.39375 55.197918 21.878124 55.197918Q22.628124 55.197918 23.1125 54.713543Q23.6125 54.229168 23.6125 53.479168Q23.6125 52.713543 23.1125 52.213543Q22.6125 51.713543 21.846874 51.713543Q21.096874 51.713543 20.6125 52.213543Q20.128124 52.697918 20.128124 53.432293ZM26.64375 55.916668L26.64375 54.713543L27.846874 54.713543L27.846874 55.916668L26.64375 55.916668ZM29.05 51.682293Q29.05 50.151043 29.3625 49.229168Q29.675 48.291668 30.284374 47.791668Q30.909374 47.291668 31.846874 47.291668Q32.534374 47.291668 33.05 47.572918Q33.58125 47.854168 33.925 48.385418Q34.26875 48.901043 34.45625 49.651043Q34.64375 50.401043 34.64375 51.682293Q34.64375 53.197918 34.33125 54.119793Q34.034374 55.041668 33.409374 55.557293Q32.8 56.057293 31.846874 56.057293Q30.6125 56.057293 29.89375 55.166668Q29.05 54.104168 29.05 51.682293ZM30.128124 51.682293Q30.128124 53.791668 30.628124 54.494793Q31.128124 55.197918 31.846874 55.197918Q32.58125 55.197918 33.065624 54.494793Q33.565624 53.791668 33.565624 51.682293Q33.565624 49.557293 33.065624 48.869793Q32.58125 48.166668 31.83125 48.166668Q31.1125 48.166668 30.675 48.776043Q30.128124 49.557293 30.128124 51.682293ZM36.05 51.682293Q36.05 50.151043 36.3625 49.229168Q36.675 48.291668 37.284374 47.791668Q37.909374 47.291668 38.846874 47.291668Q39.534374 47.291668 40.05 47.572918Q40.58125 47.854168 40.925 48.385418Q41.26875 48.901043 41.45625 49.651043Q41.64375 50.401043 41.64375 51.682293Q41.64375 53.197918 41.33125 54.119793Q41.034374 55.041668 40.409374 55.557293Q39.8 56.057293 38.846874 56.057293Q37.6125 56.057293 36.89375 55.166668Q36.05 54.104168 36.05 51.682293ZM37.128124 51.682293Q37.128124 53.791668 37.628124 54.494793Q38.128124 55.197918 38.846874 55.197918Q39.58125 55.197918 40.065624 54.494793Q40.565624 53.791668 40.565624 51.682293Q40.565624 49.557293 40.065624 48.869793Q39.58125 48.166668 38.83125 48.166668Q38.1125 48.166668 37.675 48.776043Q37.128124 49.557293 37.128124 51.682293Z" fill-rule="nonzero"/><path fill="#000000" d="M139.80037 349.45L136.47224 340.85626L137.70662 340.85626L139.941 347.10626Q140.20662 347.85626 140.39412 348.5125Q140.59724 347.8094 140.86287 347.10626L143.17537 340.85626L144.33162 340.85626L140.97224 349.45L139.80037 349.45ZM148.3785 346.075L148.3785 345.075L152.0035 345.0594L152.0035 348.2469Q151.17537 348.91876 150.28474 349.2625Q149.39412 349.59064 148.45662 349.59064Q147.191 349.59064 146.14412 349.0594Q145.11287 348.5125 144.58162 347.4969Q144.066 346.46564 144.066 345.2Q144.066 343.9344 144.58162 342.85626Q145.11287 341.7625 146.09724 341.2469Q147.08162 340.71564 148.36287 340.71564Q149.30037 340.71564 150.05037 341.0125Q150.80037 341.3094 151.22224 341.85626Q151.65974 342.3875 151.8785 343.2625L150.86287 343.54376Q150.65974 342.8875 150.36287 342.5125Q150.08162 342.1375 149.55037 341.91876Q149.01912 341.6844 148.3785 341.6844Q147.59724 341.6844 147.01912 341.91876Q146.45662 342.15314 146.09724 342.54376Q145.7535 342.9344 145.566 343.40314Q145.23787 344.2 145.23787 345.1219Q145.23787 346.27814 145.6285 347.0594Q146.03474 347.825 146.78474 348.2Q147.53474 348.575 148.39412 348.575Q149.1285 348.575 149.83162 348.29376Q150.53474 347.9969 150.89412 347.6844L150.89412 346.075L148.3785 346.075ZM157.3785 346.075L157.3785 345.075L161.0035 345.0594L161.0035 348.2469Q160.17537 348.91876 159.28474 349.2625Q158.39412 349.59064 157.45662 349.59064Q156.191 349.59064 155.14412 349.0594Q154.11287 348.5125 153.58162 347.4969Q153.066 346.46564 153.066 345.2Q153.066 343.9344 153.58162 342.85626Q154.11287 341.7625 155.09724 341.2469Q156.08162 340.71564 157.36287 340.71564Q158.30037 340.71564 159.05037 341.0125Q159.80037 341.3094 160.22224 341.85626Q160.65974 342.3875 160.8785 343.2625L159.86287 343.54376Q159.65974 342.8875 159.36287 342.5125Q159.08162 342.1375 158.55037 341.91876Q158.01912 341.6844 157.3785 341.6844Q156.59724 341.6844 156.01912 341.91876Q155.45662 342.15314 155.09724 342.54376Q154.7535 342.9344 154.566 343.40314Q154.23787 344.2 154.23787 345.1219Q154.23787 346.27814 154.6285 347.0594Q155.03474 347.825 155.78474 348.2Q156.53474 348.575 157.39412 348.575Q158.1285 348.575 158.83162 348.29376Q159.53474 347.9969 159.89412 347.6844L159.89412 346.075L157.3785 346.075ZM165.89412 349.45L164.84724 349.45L164.84724 342.73126Q164.45662 343.09064 163.83162 343.46564Q163.22224 343.825 162.73787 343.9969L162.73787 342.98126Q163.61287 342.5594 164.26912 341.98126Q164.941 341.3875 165.22224 340.825L165.89412 340.825L165.89412 349.45ZM169.08162 347.46564L170.09724 347.3719Q170.22224 348.09064 170.58162 348.41876Q170.95662 348.73126 171.51912 348.73126Q172.0035 348.73126 172.36287 348.5125Q172.73787 348.27814 172.97224 347.91876Q173.20662 347.54376 173.36287 346.91876Q173.51912 346.27814 173.51912 345.6219Q173.51912 345.54376 173.51912 345.40314Q173.20662 345.90314 172.65974 346.23126Q172.11287 346.54376 171.47224 346.54376Q170.39412 346.54376 169.65974 345.77814Q168.92537 344.9969 168.92537 343.73126Q168.92537 342.41876 169.691 341.6219Q170.47224 340.825 171.6285 340.825Q172.45662 340.825 173.14412 341.27814Q173.84724 341.73126 174.20662 342.575Q174.566 343.40314 174.566 344.98126Q174.566 346.6219 174.20662 347.60626Q173.86287 348.575 173.14412 349.09064Q172.441 349.59064 171.5035 349.59064Q170.48787 349.59064 169.84724 349.04376Q169.20662 348.48126 169.08162 347.46564ZM173.39412 343.66876Q173.39412 342.7625 172.90974 342.23126Q172.441 341.7 171.7535 341.7Q171.05037 341.7 170.51912 342.27814Q170.0035 342.84064 170.0035 343.7625Q170.0035 344.575 170.5035 345.09064Q171.0035 345.60626 171.72224 345.60626Q172.45662 345.60626 172.92537 345.09064Q173.39412 344.575 173.39412 343.66876Z" fill-rule="nonzero"/><path fill="#000000" d="M284.4375 349.45L284.4375 340.85626L288.25 340.85626Q289.40625 340.85626 290.0 341.09064Q290.59375 341.325 290.95312 341.91876Q291.3125 342.4969 291.3125 343.2Q291.3125 344.1219 290.71875 344.7469Q290.125 345.3719 288.89062 345.54376Q289.34375 345.7625 289.57812 345.96564Q290.07812 346.41876 290.51562 347.10626L292.01562 349.45L290.57812 349.45L289.45312 347.66876Q288.95312 346.8875 288.625 346.48126Q288.3125 346.075 288.04688 345.91876Q287.79688 345.7469 287.53125 345.66876Q287.34375 345.6375 286.90625 345.6375L285.57812 345.6375L285.57812 349.45L284.4375 349.45ZM285.57812 344.65314L288.03125 344.65314Q288.79688 344.65314 289.23438 344.4969Q289.6875 344.325 289.90625 343.98126Q290.14062 343.6219 290.14062 343.2Q290.14062 342.59064 289.6875 342.2Q289.25 341.8094 288.29688 341.8094L285.57812 341.8094L285.57812 344.65314ZM297.54688 347.45L298.64062 347.575Q298.39062 348.52814 297.6875 349.0594Q296.98438 349.59064 295.90625 349.59064Q294.54688 349.59064 293.73438 348.7469Q292.9375 347.90314 292.9375 346.3875Q292.9375 344.825 293.75 343.96564Q294.5625 343.09064 295.84375 343.09064Q297.09375 343.09064 297.875 343.9344Q298.67188 344.77814 298.67188 346.325Q298.67188 346.41876 298.67188 346.60626L294.03125 346.60626Q294.09375 347.6375 294.60938 348.1844Q295.125 348.71564 295.90625 348.71564Q296.48438 348.71564 296.89062 348.41876Q297.3125 348.10626 297.54688 347.45ZM294.09375 345.7469L297.5625 345.7469Q297.5 344.95 297.17188 344.5594Q296.65625 343.95 295.85938 343.95Q295.125 343.95 294.625 344.4344Q294.14062 344.91876 294.09375 345.7469ZM299.875 347.59064L300.90625 347.4344Q301.0 348.0594 301.39062 348.3875Q301.79688 348.71564 302.53125 348.71564Q303.25 348.71564 303.59375 348.4344Q303.95312 348.1375 303.95312 347.73126Q303.95312 347.3719 303.64062 347.16876Q303.42188 347.02814 302.5625 346.8094Q301.40625 346.5125 300.95312 346.3094Q300.51562 346.09064 300.28125 345.71564Q300.04688 345.34064 300.04688 344.8719Q300.04688 344.46564 300.23438 344.10626Q300.42188 343.7469 300.75 343.5125Q301.0 343.34064 301.42188 343.21564Q301.84375 343.09064 302.34375 343.09064Q303.0625 343.09064 303.60938 343.3094Q304.17188 343.5125 304.4375 343.8719Q304.70312 344.23126 304.79688 344.825L303.76562 344.96564Q303.70312 344.4969 303.35938 344.23126Q303.03125 343.95 302.40625 343.95Q301.6875 343.95 301.375 344.2Q301.0625 344.4344 301.0625 344.7625Q301.0625 344.96564 301.1875 345.1219Q301.32812 345.29376 301.59375 345.40314Q301.75 345.46564 302.53125 345.66876Q303.65625 345.98126 304.09375 346.16876Q304.53125 346.35626 304.78125 346.71564Q305.03125 347.075 305.03125 347.6219Q305.03125 348.15314 304.71875 348.6219Q304.42188 349.075 303.84375 349.34064Q303.26562 349.59064 302.53125 349.59064Q301.3125 349.59064 300.67188 349.09064Q300.04688 348.575 299.875 347.59064ZM307.42188 349.45L307.42188 340.85626L308.57812 340.85626L313.09375 347.60626L313.09375 340.85626L314.1875 340.85626L314.1875 349.45L313.01562 349.45L308.5 342.7L308.5 349.45L307.42188 349.45ZM320.54688 347.45L321.64062 347.575Q321.39062 348.52814 320.6875 349.0594Q319.98438 349.59064 318.90625 349.59064Q317.54688 349.59064 316.73438 348.7469Q315.9375 347.90314 315.9375 346.3875Q315.9375 344.825 316.75 343.96564Q317.5625 343.09064 318.84375 343.09064Q320.09375 343.09064 320.875 343.9344Q321.67188 344.77814 321.67188 346.325Q321.67188 346.41876 321.67188 346.60626L317.03125 346.60626Q317.09375 347.6375 317.60938 348.1844Q318.125 348.71564 318.90625 348.71564Q319.48438 348.71564 319.89062 348.41876Q320.3125 348.10626 320.54688 347.45ZM317.09375 345.7469L320.5625 345.7469Q320.5 344.95 320.17188 344.5594Q319.65625 343.95 318.85938 343.95Q318.125 343.95 317.625 344.4344Q317.14062 344.91876 317.09375 345.7469ZM325.59375 348.5125L325.75 349.4344Q325.29688 349.52814 324.95312 349.52814Q324.375 349.52814 324.0625 349.35626Q323.75 349.16876 323.60938 348.8719Q323.48438 348.575 323.48438 347.6219L323.48438 344.04376L322.71875 344.04376L322.71875 343.23126L323.48438 343.23126L323.48438 341.6844L324.53125 341.0594L324.53125 343.23126L325.59375 343.23126L325.59375 344.04376L324.53125 344.04376L324.53125 347.6844Q324.53125 348.1375 324.57812 348.2625Q324.64062 348.3875 324.76562 348.46564Q324.89062 348.54376 325.125 348.54376Q325.3125 348.54376 325.59375 348.5125ZM329.96875 349.45L328.92188 349.45L328.92188 342.73126Q328.53125 343.09064 327.90625 343.46564Q327.29688 343.825 326.8125 343.9969L326.8125 342.98126Q327.6875 342.5594 328.34375 341.98126Q329.01562 341.3875 329.29688 340.825L329.96875 340.825L329.96875 349.45ZM336.96875 349.45L335.92188 349.45L335.92188 342.73126Q335.53125 343.09064 334.90625 343.46564Q334.29688 343.825 333.8125 343.9969L333.8125 342.98126Q334.6875 342.5594 335.34375 341.98126Q336.01562 341.3875 336.29688 340.825L336.96875 340.825L336.96875 349.45ZM340.0 345.21564Q340.0 343.6844 340.3125 342.7625Q340.625 341.825 341.23438 341.325Q341.85938 340.825 342.79688 340.825Q343.48438 340.825 344.0 341.10626Q344.53125 341.3875 344.875 341.91876Q345.21875 342.4344 345.40625 343.1844Q345.59375 343.9344 345.59375 345.21564Q345.59375 346.73126 345.28125 347.65314Q344.98438 348.575 344.35938 349.09064Q343.75 349.59064 342.79688 349.59064Q341.5625 349.59064 340.84375 348.7Q340.0 347.6375 340.0 345.21564ZM341.07812 345.21564Q341.07812 347.325 341.57812 348.02814Q342.07812 348.73126 342.79688 348.73126Q343.53125 348.73126 344.01562 348.02814Q344.51562 347.325 344.51562 345.21564Q344.51562 343.09064 344.01562 342.40314Q343.53125 341.7 342.78125 341.7Q342.0625 341.7 341.625 342.3094Q341.07812 343.09064 341.07812 345.21564Z" fill-rule="nonzero"/><path fill="#000000" d="M445.9965 349.45L443.71524 340.85626L444.88712 340.85626L446.19962 346.4969Q446.40274 347.3719 446.559 348.2469Q446.88712 346.8719 446.94962 346.65314L448.57462 340.85626L449.94962 340.85626L451.184 345.2Q451.63712 346.825 451.85587 348.2469Q452.01212 347.4344 452.27774 346.3719L453.6215 340.85626L454.76212 340.85626L452.41837 349.45L451.309 349.45L449.51212 342.90314Q449.27774 342.09064 449.23087 341.90314Q449.10587 342.48126 448.98087 342.90314L447.16837 349.45L445.9965 349.45ZM455.51212 349.45L455.51212 340.85626L459.32462 340.85626Q460.48087 340.85626 461.07462 341.09064Q461.66837 341.325 462.02774 341.91876Q462.38712 342.4969 462.38712 343.2Q462.38712 344.1219 461.79337 344.7469Q461.19962 345.3719 459.96524 345.54376Q460.41837 345.7625 460.65274 345.96564Q461.15274 346.41876 461.59024 347.10626L463.09024 349.45L461.65274 349.45L460.52774 347.66876Q460.02774 346.8875 459.69962 346.48126Q459.38712 346.075 459.1215 345.91876Q458.8715 345.7469 458.60587 345.66876Q458.41837 345.6375 457.98087 345.6375L456.65274 345.6375L456.65274 349.45L455.51212 349.45ZM456.65274 344.65314L459.10587 344.65314Q459.8715 344.65314 460.309 344.4969Q460.76212 344.325 460.98087 343.98126Q461.21524 343.6219 461.21524 343.2Q461.21524 342.59064 460.76212 342.2Q460.32462 341.8094 459.3715 341.8094L456.65274 341.8094L456.65274 344.65314ZM464.4965 349.45L464.4965 340.85626L465.65274 340.85626L470.16837 347.60626L470.16837 340.85626L471.26212 340.85626L471.26212 349.45L470.09024 349.45L465.57462 342.7L465.57462 349.45L464.4965 349.45ZM478.6215 348.4344L478.6215 349.45L472.934 349.45Q472.934 349.075 473.059 348.71564Q473.27774 348.1375 473.7465 347.575Q474.23087 347.0125 475.13712 346.27814Q476.54337 345.1219 477.02774 344.45Q477.52774 343.77814 477.52774 343.1844Q477.52774 342.5594 477.07462 342.1375Q476.6215 341.7 475.90274 341.7Q475.13712 341.7 474.684 342.15314Q474.23087 342.60626 474.21524 343.41876L473.13712 343.3094Q473.2465 342.09064 473.96524 341.46564Q474.69962 340.825 475.934 340.825Q477.16837 340.825 477.88712 341.5125Q478.60587 342.2 478.60587 343.21564Q478.60587 343.73126 478.38712 344.23126Q478.184 344.71564 477.684 345.27814Q477.19962 345.825 476.07462 346.77814Q475.1215 347.575 474.84024 347.8719Q474.57462 348.15314 474.40274 348.4344L478.6215 348.4344ZM481.69962 344.79376Q481.04337 344.54376 480.71524 344.10626Q480.40274 343.65314 480.40274 343.04376Q480.40274 342.10626 481.07462 341.46564Q481.76212 340.825 482.8715 340.825Q483.9965 340.825 484.684 341.48126Q485.3715 342.1375 485.3715 343.075Q485.3715 343.66876 485.059 344.10626Q484.7465 344.54376 484.10587 344.79376Q484.90274 345.04376 485.309 345.6219Q485.71524 346.2 485.71524 346.9969Q485.71524 348.09064 484.934 348.84064Q484.16837 349.59064 482.88712 349.59064Q481.6215 349.59064 480.84024 348.84064Q480.059 348.09064 480.059 346.96564Q480.059 346.1219 480.48087 345.5594Q480.91837 344.9969 481.69962 344.79376ZM481.48087 342.9969Q481.48087 343.60626 481.8715 343.9969Q482.27774 344.3875 482.90274 344.3875Q483.51212 344.3875 483.90274 344.0125Q484.29337 343.6219 484.29337 343.0594Q484.29337 342.48126 483.88712 342.09064Q483.48087 341.6844 482.88712 341.6844Q482.27774 341.6844 481.8715 342.075Q481.48087 342.46564 481.48087 342.9969ZM481.15274 346.96564Q481.15274 347.41876 481.35587 347.84064Q481.57462 348.2625 481.9965 348.4969Q482.41837 348.73126 482.90274 348.73126Q483.65274 348.73126 484.13712 348.2469Q484.63712 347.7625 484.63712 347.0125Q484.63712 346.2469 484.13712 345.7469Q483.63712 345.2469 482.8715 345.2469Q482.1215 345.2469 481.63712 345.7469Q481.15274 346.23126 481.15274 346.96564ZM486.94962 346.8719L486.94962 345.8094L490.19962 345.8094L490.19962 346.8719L486.94962 346.8719ZM495.04337 349.45L493.9965 349.45L493.9965 342.73126Q493.60587 343.09064 492.98087 343.46564Q492.3715 343.825 491.88712 343.9969L491.88712 342.98126Q492.76212 342.5594 493.41837 341.98126Q494.09024 341.3875 494.3715 340.825L495.04337 340.825L495.04337 349.45ZM498.07462 345.21564Q498.07462 343.6844 498.38712 342.7625Q498.69962 341.825 499.309 341.325Q499.934 340.825 500.8715 340.825Q501.559 340.825 502.07462 341.10626Q502.60587 341.3875 502.94962 341.91876Q503.29337 342.4344 503.48087 343.1844Q503.66837 343.9344 503.66837 345.21564Q503.66837 346.73126 503.35587 347.65314Q503.059 348.575 502.434 349.09064Q501.82462 349.59064 500.8715 349.59064Q499.63712 349.59064 498.91837 348.7Q498.07462 347.6375 498.07462 345.21564ZM499.15274 345.21564Q499.15274 347.325 499.65274 348.02814Q500.15274 348.73126 500.8715 348.73126Q501.60587 348.73126 502.09024 348.02814Q502.59024 347.325 502.59024 345.21564Q502.59024 343.09064 502.09024 342.40314Q501.60587 341.7 500.85587 341.7Q500.13712 341.7 499.69962 342.3094Q499.15274 343.09064 499.15274 345.21564Z" fill-rule="nonzero"/><path fill="#4285f4" d="M236.0 20.55C236.0 19.997715 236.44771 19.55 237.0 19.55L247.0 19.55C247.55229 19.55 248.0 19.997715 248.0 20.55L248.0 30.55C248.0 31.102285 247.55229 31.55 247.0 31.55L237.0 31.55C236.44771 31.55 236.0 31.102285 236.0 30.55Z" fill-rule="nonzero"/><path fill="#1a1a1a" d="M256.875 29.55L256.875 20.95625L260.10938 20.95625Q261.09375 20.95625 261.6875 21.221874Q262.28125 21.4875 262.60938 22.034374Q262.95312 22.565624 262.95312 23.159374Q262.95312 23.70625 262.65625 24.190624Q262.35938 24.675 261.75 24.971874Q262.53125 25.20625 262.9375 25.76875Q263.35938 26.315624 263.35938 27.065624Q263.35938 27.659374 263.10938 28.190624Q262.85938 28.70625 262.48438 28.9875Q262.10938 29.26875 261.53125 29.409374Q260.96875 29.55 260.15625 29.55L256.875 29.55ZM258.01562 24.565624L259.875 24.565624Q260.625 24.565624 260.95312 24.471874Q261.39062 24.346874 261.60938 24.05Q261.82812 23.7375 261.82812 23.284374Q261.82812 22.8625 261.625 22.534374Q261.42188 22.20625 261.03125 22.096874Q260.65625 21.971874 259.73438 21.971874L258.01562 21.971874L258.01562 24.565624ZM258.01562 28.534374L260.15625 28.534374Q260.70312 28.534374 260.92188 28.4875Q261.32812 28.425 261.57812 28.26875Q261.84375 28.096874 262.01562 27.784374Q262.1875 27.471874 262.1875 27.065624Q262.1875 26.58125 261.9375 26.221874Q261.70312 25.8625 261.26562 25.721874Q260.82812 25.58125 260.0 25.58125L258.01562 25.58125L258.01562 28.534374ZM268.85938 28.784374Q268.26562 29.284374 267.71875 29.4875Q267.1875 29.690624 266.5625 29.690624Q265.53125 29.690624 264.98438 29.190624Q264.4375 28.690624 264.4375 27.909374Q264.4375 27.45625 264.64062 27.08125Q264.84375 26.690624 265.1875 26.471874Q265.53125 26.2375 265.95312 26.128124Q266.25 26.034374 266.89062 25.95625Q268.15625 25.815624 268.76562 25.596874Q268.76562 25.378124 268.76562 25.33125Q268.76562 24.675 268.46875 24.409374Q268.0625 24.065624 267.26562 24.065624Q266.53125 24.065624 266.17188 24.33125Q265.8125 24.58125 265.64062 25.2375L264.60938 25.096874Q264.75 24.440624 265.07812 24.034374Q265.40625 23.628124 266.01562 23.409374Q266.625 23.190624 267.42188 23.190624Q268.21875 23.190624 268.71875 23.378124Q269.21875 23.565624 269.45312 23.846874Q269.6875 24.128124 269.78125 24.565624Q269.82812 24.83125 269.82812 25.534374L269.82812 26.940624Q269.82812 28.409374 269.89062 28.8Q269.96875 29.190624 270.17188 29.55L269.0625 29.55Q268.90625 29.221874 268.85938 28.784374ZM268.76562 26.425Q268.1875 26.659374 267.04688 26.83125Q266.39062 26.925 266.125 27.05Q265.85938 27.159374 265.70312 27.378124Q265.5625 27.596874 265.5625 27.878124Q265.5625 28.3 265.875 28.58125Q266.20312 28.8625 266.8125 28.8625Q267.42188 28.8625 267.89062 28.596874Q268.375 28.33125 268.59375 27.8625Q268.76562 27.503124 268.76562 26.815624L268.76562 26.425ZM271.375 27.690624L272.40625 27.534374Q272.5 28.159374 272.89062 28.4875Q273.29688 28.815624 274.03125 28.815624Q274.75 28.815624 275.09375 28.534374Q275.45312 28.2375 275.45312 27.83125Q275.45312 27.471874 275.14062 27.26875Q274.92188 27.128124 274.0625 26.909374Q272.90625 26.6125 272.45312 26.409374Q272.01562 26.190624 271.78125 25.815624Q271.54688 25.440624 271.54688 24.971874Q271.54688 24.565624 271.73438 24.20625Q271.92188 23.846874 272.25 23.6125Q272.5 23.440624 272.92188 23.315624Q273.34375 23.190624 273.84375 23.190624Q274.5625 23.190624 275.10938 23.409374Q275.67188 23.6125 275.9375 23.971874Q276.20312 24.33125 276.29688 24.925L275.26562 25.065624Q275.20312 24.596874 274.85938 24.33125Q274.53125 24.05 273.90625 24.05Q273.1875 24.05 272.875 24.3Q272.5625 24.534374 272.5625 24.8625Q272.5625 25.065624 272.6875 25.221874Q272.82812 25.39375 273.09375 25.503124Q273.25 25.565624 274.03125 25.76875Q275.15625 26.08125 275.59375 26.26875Q276.03125 26.45625 276.28125 26.815624Q276.53125 27.175 276.53125 27.721874Q276.53125 28.253124 276.21875 28.721874Q275.92188 29.175 275.34375 29.440624Q274.76562 29.690624 274.03125 29.690624Q272.8125 29.690624 272.17188 29.190624Q271.54688 28.675 271.375 27.690624ZM283.04688 27.55L284.14062 27.675Q283.89062 28.628124 283.1875 29.159374Q282.48438 29.690624 281.40625 29.690624Q280.04688 29.690624 279.23438 28.846874Q278.4375 28.003124 278.4375 26.4875Q278.4375 24.925 279.25 24.065624Q280.0625 23.190624 281.34375 23.190624Q282.59375 23.190624 283.375 24.034374Q284.17188 24.878124 284.17188 26.425Q284.17188 26.51875 284.17188 26.70625L279.53125 26.70625Q279.59375 27.7375 280.10938 28.284374Q280.625 28.815624 281.40625 28.815624Q281.98438 28.815624 282.39062 28.51875Q282.8125 28.20625 283.04688 27.55ZM279.59375 25.846874L283.0625 25.846874Q283.0 25.05 282.67188 24.659374Q282.15625 24.05 281.35938 24.05Q280.625 24.05 280.125 24.534374Q279.64062 25.01875 279.59375 25.846874ZM285.76562 29.55L285.76562 20.95625L286.82812 20.95625L286.82812 29.55L285.76562 29.55ZM288.79688 22.175L288.79688 20.95625L289.85938 20.95625L289.85938 22.175L288.79688 22.175ZM288.79688 29.55L288.79688 23.33125L289.85938 23.33125L289.85938 29.55L288.79688 29.55ZM291.79688 29.55L291.79688 23.33125L292.73438 23.33125L292.73438 24.20625Q293.42188 23.190624 294.71875 23.190624Q295.28125 23.190624 295.75 23.39375Q296.23438 23.596874 296.46875 23.925Q296.70312 24.253124 296.79688 24.690624Q296.84375 24.9875 296.84375 25.721874L296.84375 29.55L295.79688 29.55L295.79688 25.76875Q295.79688 25.1125 295.67188 24.8Q295.54688 24.4875 295.23438 24.3Q294.92188 24.096874 294.5 24.096874Q293.82812 24.096874 293.32812 24.534374Q292.84375 24.95625 292.84375 26.14375L292.84375 29.55L291.79688 29.55ZM303.04688 27.55L304.14062 27.675Q303.89062 28.628124 303.1875 29.159374Q302.48438 29.690624 301.40625 29.690624Q300.04688 29.690624 299.23438 28.846874Q298.4375 28.003124 298.4375 26.4875Q298.4375 24.925 299.25 24.065624Q300.0625 23.190624 301.34375 23.190624Q302.59375 23.190624 303.375 24.034374Q304.17188 24.878124 304.17188 26.425Q304.17188 26.51875 304.17188 26.70625L299.53125 26.70625Q299.59375 27.7375 300.10938 28.284374Q300.625 28.815624 301.40625 28.815624Q301.98438 28.815624 302.39062 28.51875Q302.8125 28.20625 303.04688 27.55ZM299.59375 25.846874L303.0625 25.846874Q303.0 25.05 302.67188 24.659374Q302.15625 24.05 301.35938 24.05Q300.625 24.05 300.125 24.534374Q299.64062 25.01875 299.59375 25.846874Z" fill-rule="nonzero"/><path fill="#ea4335" d="M321.0 20.55C321.0 19.997715 321.44772 19.55 322.0 19.55L332.0 19.55C332.55228 19.55 333.0 19.997715 333.0 20.55L333.0 30.55C333.0 31.102285 332.55228 31.55 332.0 31.55L322.0 31.55C321.44772 31.55 321.0 31.102285 321.0 30.55Z" fill-rule="nonzero"/><path fill="#1a1a1a" d="M345.95312 26.175L345.95312 25.175L349.57812 25.159374L349.57812 28.346874Q348.75 29.01875 347.85938 29.3625Q346.96875 29.690624 346.03125 29.690624Q344.76562 29.690624 343.71875 29.159374Q342.6875 28.6125 342.15625 27.596874Q341.64062 26.565624 341.64062 25.3Q341.64062 24.034374 342.15625 22.95625Q342.6875 21.8625 343.67188 21.346874Q344.65625 20.815624 345.9375 20.815624Q346.875 20.815624 347.625 21.1125Q348.375 21.409374 348.79688 21.95625Q349.23438 22.4875 349.45312 23.3625L348.4375 23.64375Q348.23438 22.9875 347.9375 22.6125Q347.65625 22.2375 347.125 22.01875Q346.59375 21.784374 345.95312 21.784374Q345.17188 21.784374 344.59375 22.01875Q344.03125 22.253124 343.67188 22.64375Q343.32812 23.034374 343.14062 23.503124Q342.8125 24.3 342.8125 25.221874Q342.8125 26.378124 343.20312 27.159374Q343.60938 27.925 344.35938 28.3Q345.10938 28.675 345.96875 28.675Q346.70312 28.675 347.40625 28.39375Q348.10938 28.096874 348.46875 27.784374L348.46875 26.175L345.95312 26.175ZM349.98438 29.55L353.28125 20.95625L354.5 20.95625L358.01562 29.55L356.73438 29.55L355.71875 26.940624L352.14062 26.940624L351.1875 29.55L349.98438 29.55ZM352.46875 26.01875L355.375 26.01875L354.48438 23.64375Q354.0625 22.565624 353.875 21.8625Q353.70312 22.690624 353.40625 23.503124L352.46875 26.01875ZM357.875 29.55L357.875 20.95625L359.01562 20.95625L359.01562 28.534374L363.25 28.534374L363.25 29.55L357.875 29.55Z" fill-rule="nonzero"/></svg>