<svg version="1.1" viewBox="0.0 0.0 632.0 399.0" fill="none" stroke="none" stroke-linecap="square" stroke-miterlimit="10" width="632" height="399" xmlns:xlink="http://www.w3.org/1999/xlink" xmlns="http://www.w3.org/2000/svg"><path fill="#ffffff" d="M0 0L632.0 0L632.0 399.0L0 399.0L0 0Z" fill-rule="nonzero"/><path stroke="#cccccc" stroke-width="1.0" stroke-linecap="butt" d="M144.5 19.5L144.5 359.5" fill-rule="nonzero"/><path stroke="#cccccc" stroke-width="1.0" stroke-linecap="butt" d="M237.5 19.5L237.5 359.5" fill-rule="nonzero"/><path stroke="#cccccc" stroke-width="1.0" stroke-linecap="butt" d="M331.5 19.5L331.5 359.5" fill-rule="nonzero"/><path stroke="#cccccc" stroke-width="1.0" stroke-linecap="butt" d="M424.5 19.5L424.5 359.5" fill-rule="nonzero"/><path stroke="#cccccc" stroke-width="1.0" stroke-linecap="butt" d="M518.5 19.5L518.5 359.5" fill-rule="nonzero"/><path stroke="#cccccc" stroke-width="1.0" stroke-linecap="butt" d="M612.5 19.5L612.5 359.5" fill-rule="nonzero"/><clipPath id="id_0"><path d="M144.37 19.95L612.05 19.95L612.05 359.05L144.37 359.05L144.37 19.95Z" clip-rule="nonzero"/></clipPath><path stroke="#000000" stroke-width="2.0" stroke-linecap="butt" stroke-opacity="0.0" clip-path="url(#id_0)" d="M144.0 74.0L144.0 39.0L311.0 39.0C312.10458 39.0 313.0 39.89543 313.0 41.0L313.0 72.0C313.0 73.10457 312.10458 74.0 311.0 74.0Z" fill-rule="nonzero"/><path fill="#34a853" clip-path="url(#id_0)" d="M144.0 74.0L144.0 39.0L311.0 39.0C312.10458 39.0 313.0 39.89543 313.0 41.0L313.0 72.0C313.0 73.10457 312.10458 74.0 311.0 74.0Z" fill-rule="nonzero"/><path stroke="#000000" stroke-width="2.0" stroke-linecap="butt" stroke-opacity="0.0" clip-path="url(#id_0)" d="M144.0 127.0L144.0 92.0L367.0 92.0C368.10458 92.0 369.0 92.89543 369.0 94.0L369.0 125.0C369.0 126.10457 368.10458 127.0 367.0 127.0Z" fill-rule="nonzero"/><path fill="#34a853" clip-path="url(#id_0)" d="M144.0 127.0L144.0 92.0L367.0 92.0C368.10458 92.0 369.0 92.89543 369.0 94.0L369.0 125.0C369.0 126.10457 368.10458 127.0 367.0 127.0Z" fill-rule="nonzero"/><path stroke="#000000" stroke-width="2.0" stroke-linecap="butt" stroke-opacity="0.0" clip-path="url(#id_0)" d="M144.0 181.0L144.0 146.0L540.0 146.0C541.10455 146.0 542.0 146.89543 542.0 148.0L542.0 179.0C542.0 180.10457 541.10455 181.0 540.0 181.0Z" fill-rule="nonzero"/><path fill="#34a853" clip-path="url(#id_0)" d="M144.0 181.0L144.0 146.0L540.0 146.0C541.10455 146.0 542.0 146.89543 542.0 148.0L542.0 179.0C542.0 180.10457 541.10455 181.0 540.0 181.0Z" fill-rule="nonzero"/><path stroke="#000000" stroke-width="2.0" stroke-linecap="butt" stroke-opacity="0.0" clip-path="url(#id_0)" d="M144.0 234.0L144.0 199.0L432.0 199.0C433.10458 199.0 434.0 199.89543 434.0 201.0L434.0 232.0C434.0 233.10457 433.10458 234.0 432.0 234.0Z" fill-rule="nonzero"/><path fill="#34a853" clip-path="url(#id_0)" d="M144.0 234.0L144.0 199.0L432.0 199.0C433.10458 199.0 434.0 199.89543 434.0 201.0L434.0 232.0C434.0 233.10457 433.10458 234.0 432.0 234.0Z" fill-rule="nonzero"/><path stroke="#000000" stroke-width="2.0" stroke-linecap="butt" stroke-opacity="0.0" clip-path="url(#id_0)" d="M144.0 288.0L144.0 253.0L502.0 253.0C503.10458 253.0 504.0 253.89543 504.0 255.0L504.0 286.0C504.0 287.10458 503.10458 288.0 502.0 288.0Z" fill-rule="nonzero"/><path fill="#34a853" clip-path="url(#id_0)" d="M144.0 288.0L144.0 253.0L502.0 253.0C503.10458 253.0 504.0 253.89543 504.0 255.0L504.0 286.0C504.0 287.10458 503.10458 288.0 502.0 288.0Z" fill-rule="nonzero"/><path stroke="#000000" stroke-width="2.0" stroke-linecap="butt" stroke-opacity="0.0" clip-path="url(#id_0)" d="M144.0 341.0L144.0 306.0L601.0 306.0C602.10455 306.0 603.0 306.89542 603.0 308.0L603.0 339.0C603.0 340.10458 602.10455 341.0 601.0 341.0Z" fill-rule="nonzero"/><path fill="#34a853" clip-path="url(#id_0)" d="M144.0 341.0L144.0 306.0L601.0 306.0C602.10455 306.0 603.0 306.89542 603.0 308.0L603.0 339.0C603.0 340.10458 602.10455 341.0 601.0 341.0Z" fill-rule="nonzero"/><path stroke="#34a853" stroke-width="3.0" stroke-linejoin="round" stroke-linecap="round" d="M290.15356 52.578125L286.6223 60.5L285.4817 60.5L288.9973 52.859375L284.38794 52.859375L284.38794 51.96875L290.15356 51.96875L290.15356 52.578125ZM296.82544 54.1875Q296.82544 54.828125 296.4817 55.328125Q296.13794 55.828125 295.57544 56.109375Q296.2317 56.390625 296.6223 56.953125Q297.01294 57.5 297.01294 58.203125Q297.01294 59.296875 296.26294 59.96875Q295.52856 60.625 294.3098 60.625Q293.07544 60.625 292.32544 59.96875Q291.59106 59.296875 291.59106 58.203125Q291.59106 57.5 291.96606 56.953125Q292.34106 56.390625 293.01294 56.109375Q292.45044 55.828125 292.1223 55.328125Q291.7942 54.828125 291.7942 54.1875Q291.7942 53.109375 292.4817 52.484375Q293.1692 51.84375 294.3098 51.84375Q295.4348 51.84375 296.1223 52.484375Q296.82544 53.109375 296.82544 54.1875ZM295.9348 58.171875Q295.9348 57.453125 295.4817 57.015625Q295.02856 56.5625 294.2942 56.5625Q293.5598 56.5625 293.1067 57.015625Q292.6692 57.453125 292.6692 58.1875Q292.6692 58.90625 293.1067 59.328125Q293.5442 59.734375 294.3098 59.734375Q295.0598 59.734375 295.4973 59.3125Q295.9348 58.890625 295.9348 58.171875ZM294.3098 52.734375Q293.6692 52.734375 293.26294 53.140625Q292.8723 53.53125 292.8723 54.21875Q292.8723 54.859375 293.26294 55.265625Q293.65356 55.671875 294.2942 55.671875Q294.95044 55.671875 295.34106 55.265625Q295.7317 54.859375 295.7317 54.21875Q295.7317 53.5625 295.32544 53.15625Q294.9192 52.734375 294.3098 52.734375ZM298.77856 59.9375Q298.77856 59.65625 298.9348 59.46875Q299.1067 59.28125 299.4348 59.28125Q299.77856 59.28125 299.95044 59.46875Q300.1223 59.65625 300.1223 59.9375Q300.1223 60.203125 299.95044 60.390625Q299.77856 60.5625 299.4348 60.5625Q299.1067 60.5625 298.9348 60.390625Q298.77856 60.203125 298.77856 59.9375ZM305.90356 51.96875L305.90356 52.875L305.70044 52.875Q304.4348 52.90625 303.6848 53.640625Q302.9348 54.359375 302.8098 55.671875Q303.4973 54.90625 304.65356 54.90625Q305.76294 54.90625 306.4348 55.6875Q307.1067 56.46875 307.1067 57.71875Q307.1067 59.03125 306.38794 59.828125Q305.6692 60.625 304.45044 60.625Q303.2317 60.625 302.46606 59.6875Q301.71606 58.734375 301.71606 57.25L301.71606 56.84375Q301.71606 54.484375 302.71606 53.234375Q303.71606 51.984375 305.70044 51.96875L305.90356 51.96875ZM304.4817 55.8125Q303.9192 55.8125 303.45044 56.140625Q302.9817 56.46875 302.7942 56.984375L302.7942 57.375Q302.7942 58.4375 303.26294 59.078125Q303.7473 59.71875 304.45044 59.71875Q305.1848 59.71875 305.6067 59.1875Q306.02856 58.640625 306.02856 57.765625Q306.02856 56.890625 305.6067 56.359375Q305.1848 55.8125 304.4817 55.8125Z" fill-rule="nonzero"/><path fill="#ffffff" d="M290.15356 52.578125L286.6223 60.5L285.4817 60.5L288.9973 52.859375L284.38794 52.859375L284.38794 51.96875L290.15356 51.96875L290.15356 52.578125ZM296.82544 54.1875Q296.82544 54.828125 296.4817 55.328125Q296.13794 55.828125 295.57544 56.109375Q296.2317 56.390625 296.6223 56.953125Q297.01294 57.5 297.01294 58.203125Q297.01294 59.296875 296.26294 59.96875Q295.52856 60.625 294.3098 60.625Q293.07544 60.625 292.32544 59.96875Q291.59106 59.296875 291.59106 58.203125Q291.59106 57.5 291.96606 56.953125Q292.34106 56.390625 293.01294 56.109375Q292.45044 55.828125 292.1223 55.328125Q291.7942 54.828125 291.7942 54.1875Q291.7942 53.109375 292.4817 52.484375Q293.1692 51.84375 294.3098 51.84375Q295.4348 51.84375 296.1223 52.484375Q296.82544 53.109375 296.82544 54.1875ZM295.9348 58.171875Q295.9348 57.453125 295.4817 57.015625Q295.02856 56.5625 294.2942 56.5625Q293.5598 56.5625 293.1067 57.015625Q292.6692 57.453125 292.6692 58.1875Q292.6692 58.90625 293.1067 59.328125Q293.5442 59.734375 294.3098 59.734375Q295.0598 59.734375 295.4973 59.3125Q295.9348 58.890625 295.9348 58.171875ZM294.3098 52.734375Q293.6692 52.734375 293.26294 53.140625Q292.8723 53.53125 292.8723 54.21875Q292.8723 54.859375 293.26294 55.265625Q293.65356 55.671875 294.2942 55.671875Q294.95044 55.671875 295.34106 55.265625Q295.7317 54.859375 295.7317 54.21875Q295.7317 53.5625 295.32544 53.15625Q294.9192 52.734375 294.3098 52.734375ZM298.77856 59.9375Q298.77856 59.65625 298.9348 59.46875Q299.1067 59.28125 299.4348 59.28125Q299.77856 59.28125 299.95044 59.46875Q300.1223 59.65625 300.1223 59.9375Q300.1223 60.203125 299.95044 60.390625Q299.77856 60.5625 299.4348 60.5625Q299.1067 60.5625 298.9348 60.390625Q298.77856 60.203125 298.77856 59.9375ZM305.90356 51.96875L305.90356 52.875L305.70044 52.875Q304.4348 52.90625 303.6848 53.640625Q302.9348 54.359375 302.8098 55.671875Q303.4973 54.90625 304.65356 54.90625Q305.76294 54.90625 306.4348 55.6875Q307.1067 56.46875 307.1067 57.71875Q307.1067 59.03125 306.38794 59.828125Q305.6692 60.625 304.45044 60.625Q303.2317 60.625 302.46606 59.6875Q301.71606 58.734375 301.71606 57.25L301.71606 56.84375Q301.71606 54.484375 302.71606 53.234375Q303.71606 51.984375 305.70044 51.96875L305.90356 51.96875ZM304.4817 55.8125Q303.9192 55.8125 303.45044 56.140625Q302.9817 56.46875 302.7942 56.984375L302.7942 57.375Q302.7942 58.4375 303.26294 59.078125Q303.7473 59.71875 304.45044 59.71875Q305.1848 59.71875 305.6067 59.1875Q306.02856 58.640625 306.02856 57.765625Q306.02856 56.890625 305.6067 56.359375Q305.1848 55.8125 304.4817 55.8125Z" fill-rule="nonzero"/><path stroke="#34a853" stroke-width="3.0" stroke-linejoin="round" stroke-linecap="round" d="M346.27515 105.578125L342.7439 113.5L341.60327 113.5L345.1189 105.859375L340.50952 105.859375L340.50952 104.96875L346.27515 104.96875L346.27515 105.578125ZM351.91577 109.75Q351.58765 110.15625 351.10327 110.40625Q350.63452 110.640625 350.07202 110.640625Q349.33765 110.640625 348.79077 110.28125Q348.2439 109.921875 347.94702 109.265625Q347.65015 108.59375 347.65015 107.796875Q347.65015 106.953125 347.96265 106.265625Q348.29077 105.578125 348.88452 105.21875Q349.4939 104.84375 350.29077 104.84375Q351.5564 104.84375 352.27515 105.796875Q353.00952 106.75 353.00952 108.375L353.00952 108.6875Q353.00952 111.1875 352.02515 112.328125Q351.04077 113.46875 349.0564 113.5L348.83765 113.5L348.83765 112.59375L349.07202 112.59375Q350.41577 112.5625 351.13452 111.890625Q351.85327 111.21875 351.91577 109.75ZM350.2439 109.75Q350.79077 109.75 351.2439 109.421875Q351.71265 109.078125 351.9314 108.59375L351.9314 108.15625Q351.9314 107.09375 351.46265 106.421875Q350.9939 105.75 350.29077 105.75Q349.57202 105.75 349.13452 106.296875Q348.71265 106.84375 348.71265 107.75Q348.71265 108.625 349.1189 109.1875Q349.54077 109.75 350.2439 109.75ZM354.90015 112.9375Q354.90015 112.65625 355.0564 112.46875Q355.22827 112.28125 355.5564 112.28125Q355.90015 112.28125 356.07202 112.46875Q356.2439 112.65625 356.2439 112.9375Q356.2439 113.203125 356.07202 113.390625Q355.90015 113.5625 355.5564 113.5625Q355.22827 113.5625 355.0564 113.390625Q354.90015 113.203125 354.90015 112.9375ZM362.94702 107.1875Q362.94702 107.828125 362.60327 108.328125Q362.25952 108.828125 361.69702 109.109375Q362.35327 109.390625 362.7439 109.953125Q363.13452 110.5 363.13452 111.203125Q363.13452 112.296875 362.38452 112.96875Q361.65015 113.625 360.4314 113.625Q359.19702 113.625 358.44702 112.96875Q357.71265 112.296875 357.71265 111.203125Q357.71265 110.5 358.08765 109.953125Q358.46265 109.390625 359.13452 109.109375Q358.57202 108.828125 358.2439 108.328125Q357.91577 107.828125 357.91577 107.1875Q357.91577 106.109375 358.60327 105.484375Q359.29077 104.84375 360.4314 104.84375Q361.5564 104.84375 362.2439 105.484375Q362.94702 106.109375 362.94702 107.1875ZM362.0564 111.171875Q362.0564 110.453125 361.60327 110.015625Q361.15015 109.5625 360.41577 109.5625Q359.6814 109.5625 359.22827 110.015625Q358.79077 110.453125 358.79077 111.1875Q358.79077 111.90625 359.22827 112.328125Q359.66577 112.734375 360.4314 112.734375Q361.1814 112.734375 361.6189 112.3125Q362.0564 111.890625 362.0564 111.171875ZM360.4314 105.734375Q359.79077 105.734375 359.38452 106.140625Q358.9939 106.53125 358.9939 107.21875Q358.9939 107.859375 359.38452 108.265625Q359.77515 108.671875 360.41577 108.671875Q361.07202 108.671875 361.46265 108.265625Q361.85327 107.859375 361.85327 107.21875Q361.85327 106.5625 361.44702 106.15625Q361.04077 105.734375 360.4314 105.734375Z" fill-rule="nonzero"/><path fill="#ffffff" d="M346.27515 105.578125L342.7439 113.5L341.60327 113.5L345.1189 105.859375L340.50952 105.859375L340.50952 104.96875L346.27515 104.96875L346.27515 105.578125ZM351.91577 109.75Q351.58765 110.15625 351.10327 110.40625Q350.63452 110.640625 350.07202 110.640625Q349.33765 110.640625 348.79077 110.28125Q348.2439 109.921875 347.94702 109.265625Q347.65015 108.59375 347.65015 107.796875Q347.65015 106.953125 347.96265 106.265625Q348.29077 105.578125 348.88452 105.21875Q349.4939 104.84375 350.29077 104.84375Q351.5564 104.84375 352.27515 105.796875Q353.00952 106.75 353.00952 108.375L353.00952 108.6875Q353.00952 111.1875 352.02515 112.328125Q351.04077 113.46875 349.0564 113.5L348.83765 113.5L348.83765 112.59375L349.07202 112.59375Q350.41577 112.5625 351.13452 111.890625Q351.85327 111.21875 351.91577 109.75ZM350.2439 109.75Q350.79077 109.75 351.2439 109.421875Q351.71265 109.078125 351.9314 108.59375L351.9314 108.15625Q351.9314 107.09375 351.46265 106.421875Q350.9939 105.75 350.29077 105.75Q349.57202 105.75 349.13452 106.296875Q348.71265 106.84375 348.71265 107.75Q348.71265 108.625 349.1189 109.1875Q349.54077 109.75 350.2439 109.75ZM354.90015 112.9375Q354.90015 112.65625 355.0564 112.46875Q355.22827 112.28125 355.5564 112.28125Q355.90015 112.28125 356.07202 112.46875Q356.2439 112.65625 356.2439 112.9375Q356.2439 113.203125 356.07202 113.390625Q355.90015 113.5625 355.5564 113.5625Q355.22827 113.5625 355.0564 113.390625Q354.90015 113.203125 354.90015 112.9375ZM362.94702 107.1875Q362.94702 107.828125 362.60327 108.328125Q362.25952 108.828125 361.69702 109.109375Q362.35327 109.390625 362.7439 109.953125Q363.13452 110.5 363.13452 111.203125Q363.13452 112.296875 362.38452 112.96875Q361.65015 113.625 360.4314 113.625Q359.19702 113.625 358.44702 112.96875Q357.71265 112.296875 357.71265 111.203125Q357.71265 110.5 358.08765 109.953125Q358.46265 109.390625 359.13452 109.109375Q358.57202 108.828125 358.2439 108.328125Q357.91577 107.828125 357.91577 107.1875Q357.91577 106.109375 358.60327 105.484375Q359.29077 104.84375 360.4314 104.84375Q361.5564 104.84375 362.2439 105.484375Q362.94702 106.109375 362.94702 107.1875ZM362.0564 111.171875Q362.0564 110.453125 361.60327 110.015625Q361.15015 109.5625 360.41577 109.5625Q359.6814 109.5625 359.22827 110.015625Q358.79077 110.453125 358.79077 111.1875Q358.79077 111.90625 359.22827 112.328125Q359.66577 112.734375 360.4314 112.734375Q361.1814 112.734375 361.6189 112.3125Q362.0564 111.890625 362.0564 111.171875ZM360.4314 105.734375Q359.79077 105.734375 359.38452 106.140625Q358.9939 106.53125 358.9939 107.21875Q358.9939 107.859375 359.38452 108.265625Q359.77515 108.671875 360.41577 108.671875Q361.07202 108.671875 361.46265 108.265625Q361.85327 107.859375 361.85327 107.21875Q361.85327 106.5625 361.44702 106.15625Q361.04077 105.734375 360.4314 105.734375Z" fill-rule="nonzero"/><path stroke="#34a853" stroke-width="3.0" stroke-linejoin="round" stroke-linecap="round" d="M518.98865 161.1875Q518.98865 161.82812 518.6449 162.32812Q518.30115 162.82812 517.73865 163.10938Q518.3949 163.39062 518.7855 163.95312Q519.17615 164.5 519.17615 165.20312Q519.17615 166.29688 518.42615 166.96875Q517.6918 167.625 516.473 167.625Q515.23865 167.625 514.48865 166.96875Q513.7543 166.29688 513.7543 165.20312Q513.7543 164.5 514.1293 163.95312Q514.5043 163.39062 515.17615 163.10938Q514.61365 162.82812 514.2855 162.32812Q513.9574 161.82812 513.9574 161.1875Q513.9574 160.10938 514.6449 159.48438Q515.3324 158.84375 516.473 158.84375Q517.598 158.84375 518.2855 159.48438Q518.98865 160.10938 518.98865 161.1875ZM518.098 165.17188Q518.098 164.45312 517.6449 164.01562Q517.1918 163.5625 516.4574 163.5625Q515.723 163.5625 515.2699 164.01562Q514.8324 164.45312 514.8324 165.1875Q514.8324 165.90625 515.2699 166.32812Q515.7074 166.73438 516.473 166.73438Q517.223 166.73438 517.6605 166.3125Q518.098 165.89062 518.098 165.17188ZM516.473 159.73438Q515.8324 159.73438 515.42615 160.14062Q515.0355 160.53125 515.0355 161.21875Q515.0355 161.85938 515.42615 162.26562Q515.8168 162.67188 516.4574 162.67188Q517.11365 162.67188 517.5043 162.26562Q517.8949 161.85938 517.8949 161.21875Q517.8949 160.5625 517.48865 160.15625Q517.0824 159.73438 516.473 159.73438ZM522.3793 162.70312L523.1918 162.70312Q523.973 162.6875 524.4105 162.29688Q524.848 161.90625 524.848 161.23438Q524.848 159.73438 523.348 159.73438Q522.6449 159.73438 522.223 160.14062Q521.8168 160.54688 521.8168 161.20312L520.723 161.20312Q520.723 160.1875 521.4574 159.51562Q522.2074 158.84375 523.348 158.84375Q524.55115 158.84375 525.23865 159.48438Q525.92615 160.125 525.92615 161.26562Q525.92615 161.82812 525.5668 162.34375Q525.2074 162.85938 524.5824 163.125Q525.2855 163.34375 525.6605 163.85938Q526.05115 164.375 526.05115 165.125Q526.05115 166.26562 525.30115 166.95312Q524.55115 167.625 523.348 167.625Q522.1605 167.625 521.3949 166.96875Q520.6449 166.3125 520.6449 165.25L521.73865 165.25Q521.73865 165.92188 522.17615 166.32812Q522.61365 166.73438 523.36365 166.73438Q524.1449 166.73438 524.55115 166.32812Q524.973 165.90625 524.973 165.14062Q524.973 164.40625 524.5199 164.01562Q524.0668 163.60938 523.1918 163.59375L522.3793 163.59375L522.3793 162.70312ZM527.9418 166.9375Q527.9418 166.65625 528.098 166.46875Q528.2699 166.28125 528.598 166.28125Q528.9418 166.28125 529.11365 166.46875Q529.2855 166.65625 529.2855 166.9375Q529.2855 167.20312 529.11365 167.39062Q528.9418 167.5625 528.598 167.5625Q528.2699 167.5625 528.098 167.39062Q527.9418 167.20312 527.9418 166.9375ZM531.30115 163.21875L531.73865 158.96875L536.11365 158.96875L536.11365 159.96875L532.6605 159.96875L532.3949 162.29688Q533.0355 161.92188 533.8324 161.92188Q534.98865 161.92188 535.67615 162.70312Q536.36365 163.46875 536.36365 164.78125Q536.36365 166.09375 535.6449 166.85938Q534.9418 167.625 533.6605 167.625Q532.5355 167.625 531.8168 167.0Q531.098 166.35938 531.0043 165.25L532.0199 165.25Q532.1293 165.98438 532.55115 166.35938Q532.973 166.73438 533.6605 166.73438Q534.4105 166.73438 534.848 166.21875Q535.2855 165.70312 535.2855 164.79688Q535.2855 163.9375 534.8168 163.42188Q534.348 162.90625 533.5668 162.90625Q532.86365 162.90625 532.4574 163.20312L532.17615 163.4375L531.30115 163.21875Z" fill-rule="nonzero"/><path fill="#ffffff" d="M518.98865 161.1875Q518.98865 161.82812 518.6449 162.32812Q518.30115 162.82812 517.73865 163.10938Q518.3949 163.39062 518.7855 163.95312Q519.17615 164.5 519.17615 165.20312Q519.17615 166.29688 518.42615 166.96875Q517.6918 167.625 516.473 167.625Q515.23865 167.625 514.48865 166.96875Q513.7543 166.29688 513.7543 165.20312Q513.7543 164.5 514.1293 163.95312Q514.5043 163.39062 515.17615 163.10938Q514.61365 162.82812 514.2855 162.32812Q513.9574 161.82812 513.9574 161.1875Q513.9574 160.10938 514.6449 159.48438Q515.3324 158.84375 516.473 158.84375Q517.598 158.84375 518.2855 159.48438Q518.98865 160.10938 518.98865 161.1875ZM518.098 165.17188Q518.098 164.45312 517.6449 164.01562Q517.1918 163.5625 516.4574 163.5625Q515.723 163.5625 515.2699 164.01562Q514.8324 164.45312 514.8324 165.1875Q514.8324 165.90625 515.2699 166.32812Q515.7074 166.73438 516.473 166.73438Q517.223 166.73438 517.6605 166.3125Q518.098 165.89062 518.098 165.17188ZM516.473 159.73438Q515.8324 159.73438 515.42615 160.14062Q515.0355 160.53125 515.0355 161.21875Q515.0355 161.85938 515.42615 162.26562Q515.8168 162.67188 516.4574 162.67188Q517.11365 162.67188 517.5043 162.26562Q517.8949 161.85938 517.8949 161.21875Q517.8949 160.5625 517.48865 160.15625Q517.0824 159.73438 516.473 159.73438ZM522.3793 162.70312L523.1918 162.70312Q523.973 162.6875 524.4105 162.29688Q524.848 161.90625 524.848 161.23438Q524.848 159.73438 523.348 159.73438Q522.6449 159.73438 522.223 160.14062Q521.8168 160.54688 521.8168 161.20312L520.723 161.20312Q520.723 160.1875 521.4574 159.51562Q522.2074 158.84375 523.348 158.84375Q524.55115 158.84375 525.23865 159.48438Q525.92615 160.125 525.92615 161.26562Q525.92615 161.82812 525.5668 162.34375Q525.2074 162.85938 524.5824 163.125Q525.2855 163.34375 525.6605 163.85938Q526.05115 164.375 526.05115 165.125Q526.05115 166.26562 525.30115 166.95312Q524.55115 167.625 523.348 167.625Q522.1605 167.625 521.3949 166.96875Q520.6449 166.3125 520.6449 165.25L521.73865 165.25Q521.73865 165.92188 522.17615 166.32812Q522.61365 166.73438 523.36365 166.73438Q524.1449 166.73438 524.55115 166.32812Q524.973 165.90625 524.973 165.14062Q524.973 164.40625 524.5199 164.01562Q524.0668 163.60938 523.1918 163.59375L522.3793 163.59375L522.3793 162.70312ZM527.9418 166.9375Q527.9418 166.65625 528.098 166.46875Q528.2699 166.28125 528.598 166.28125Q528.9418 166.28125 529.11365 166.46875Q529.2855 166.65625 529.2855 166.9375Q529.2855 167.20312 529.11365 167.39062Q528.9418 167.5625 528.598 167.5625Q528.2699 167.5625 528.098 167.39062Q527.9418 167.20312 527.9418 166.9375ZM531.30115 163.21875L531.73865 158.96875L536.11365 158.96875L536.11365 159.96875L532.6605 159.96875L532.3949 162.29688Q533.0355 161.92188 533.8324 161.92188Q534.98865 161.92188 535.67615 162.70312Q536.36365 163.46875 536.36365 164.78125Q536.36365 166.09375 535.6449 166.85938Q534.9418 167.625 533.6605 167.625Q532.5355 167.625 531.8168 167.0Q531.098 166.35938 531.0043 165.25L532.0199 165.25Q532.1293 165.98438 532.55115 166.35938Q532.973 166.73438 533.6605 166.73438Q534.4105 166.73438 534.848 166.21875Q535.2855 165.70312 535.2855 164.79688Q535.2855 163.9375 534.8168 163.42188Q534.348 162.90625 533.5668 162.90625Q532.86365 162.90625 532.4574 163.20312L532.17615 163.4375L531.30115 163.21875Z" fill-rule="nonzero"/><path stroke="#34a853" stroke-width="3.0" stroke-linejoin="round" stroke-linecap="round" d="M411.4222 214.1875Q411.4222 214.82812 411.07846 215.32812Q410.7347 215.82812 410.1722 216.10938Q410.82846 216.39062 411.2191 216.95312Q411.6097 217.5 411.6097 218.20312Q411.6097 219.29688 410.8597 219.96875Q410.12534 220.625 408.9066 220.625Q407.6722 220.625 406.9222 219.96875Q406.18784 219.29688 406.18784 218.20312Q406.18784 217.5 406.56284 216.95312Q406.93784 216.39062 407.6097 216.10938Q407.0472 215.82812 406.7191 215.32812Q406.39096 214.82812 406.39096 214.1875Q406.39096 213.10938 407.07846 212.48438Q407.76596 211.84375 408.9066 211.84375Q410.0316 211.84375 410.7191 212.48438Q411.4222 213.10938 411.4222 214.1875ZM410.5316 218.17188Q410.5316 217.45312 410.07846 217.01562Q409.62534 216.5625 408.89096 216.5625Q408.1566 216.5625 407.70346 217.01562Q407.26596 217.45312 407.26596 218.1875Q407.26596 218.90625 407.70346 219.32812Q408.14096 219.73438 408.9066 219.73438Q409.6566 219.73438 410.0941 219.3125Q410.5316 218.89062 410.5316 218.17188ZM408.9066 212.73438Q408.26596 212.73438 407.8597 213.14062Q407.4691 213.53125 407.4691 214.21875Q407.4691 214.85938 407.8597 215.26562Q408.25034 215.67188 408.89096 215.67188Q409.5472 215.67188 409.93784 215.26562Q410.32846 214.85938 410.32846 214.21875Q410.32846 213.5625 409.9222 213.15625Q409.51596 212.73438 408.9066 212.73438ZM416.7972 220.5L415.7191 220.5L415.7191 213.28125L413.5316 214.07812L413.5316 213.09375L416.64096 211.92188L416.7972 211.92188L416.7972 220.5ZM420.37534 219.9375Q420.37534 219.65625 420.5316 219.46875Q420.70346 219.28125 421.0316 219.28125Q421.37534 219.28125 421.5472 219.46875Q421.7191 219.65625 421.7191 219.9375Q421.7191 220.20312 421.5472 220.39062Q421.37534 220.5625 421.0316 220.5625Q420.70346 220.5625 420.5316 220.39062Q420.37534 220.20312 420.37534 219.9375ZM428.82846 220.5L423.2347 220.5L423.2347 219.71875L426.18784 216.4375Q426.8441 215.6875 427.0941 215.23438Q427.3441 214.76562 427.3441 214.26562Q427.3441 213.59375 426.93784 213.17188Q426.5472 212.73438 425.8597 212.73438Q425.06284 212.73438 424.6097 213.20312Q424.1566 213.65625 424.1566 214.48438L423.07846 214.48438Q423.07846 213.29688 423.82846 212.57812Q424.5941 211.84375 425.8597 211.84375Q427.06284 211.84375 427.75034 212.46875Q428.43784 213.09375 428.43784 214.14062Q428.43784 215.39062 426.82846 217.14062L424.5472 219.60938L428.82846 219.60938L428.82846 220.5Z" fill-rule="nonzero"/><path fill="#ffffff" d="M411.4222 214.1875Q411.4222 214.82812 411.07846 215.32812Q410.7347 215.82812 410.1722 216.10938Q410.82846 216.39062 411.2191 216.95312Q411.6097 217.5 411.6097 218.20312Q411.6097 219.29688 410.8597 219.96875Q410.12534 220.625 408.9066 220.625Q407.6722 220.625 406.9222 219.96875Q406.18784 219.29688 406.18784 218.20312Q406.18784 217.5 406.56284 216.95312Q406.93784 216.39062 407.6097 216.10938Q407.0472 215.82812 406.7191 215.32812Q406.39096 214.82812 406.39096 214.1875Q406.39096 213.10938 407.07846 212.48438Q407.76596 211.84375 408.9066 211.84375Q410.0316 211.84375 410.7191 212.48438Q411.4222 213.10938 411.4222 214.1875ZM410.5316 218.17188Q410.5316 217.45312 410.07846 217.01562Q409.62534 216.5625 408.89096 216.5625Q408.1566 216.5625 407.70346 217.01562Q407.26596 217.45312 407.26596 218.1875Q407.26596 218.90625 407.70346 219.32812Q408.14096 219.73438 408.9066 219.73438Q409.6566 219.73438 410.0941 219.3125Q410.5316 218.89062 410.5316 218.17188ZM408.9066 212.73438Q408.26596 212.73438 407.8597 213.14062Q407.4691 213.53125 407.4691 214.21875Q407.4691 214.85938 407.8597 215.26562Q408.25034 215.67188 408.89096 215.67188Q409.5472 215.67188 409.93784 215.26562Q410.32846 214.85938 410.32846 214.21875Q410.32846 213.5625 409.9222 213.15625Q409.51596 212.73438 408.9066 212.73438ZM416.7972 220.5L415.7191 220.5L415.7191 213.28125L413.5316 214.07812L413.5316 213.09375L416.64096 211.92188L416.7972 211.92188L416.7972 220.5ZM420.37534 219.9375Q420.37534 219.65625 420.5316 219.46875Q420.70346 219.28125 421.0316 219.28125Q421.37534 219.28125 421.5472 219.46875Q421.7191 219.65625 421.7191 219.9375Q421.7191 220.20312 421.5472 220.39062Q421.37534 220.5625 421.0316 220.5625Q420.70346 220.5625 420.5316 220.39062Q420.37534 220.20312 420.37534 219.9375ZM428.82846 220.5L423.2347 220.5L423.2347 219.71875L426.18784 216.4375Q426.8441 215.6875 427.0941 215.23438Q427.3441 214.76562 427.3441 214.26562Q427.3441 213.59375 426.93784 213.17188Q426.5472 212.73438 425.8597 212.73438Q425.06284 212.73438 424.6097 213.20312Q424.1566 213.65625 424.1566 214.48438L423.07846 214.48438Q423.07846 213.29688 423.82846 212.57812Q424.5941 211.84375 425.8597 211.84375Q427.06284 211.84375 427.75034 212.46875Q428.43784 213.09375 428.43784 214.14062Q428.43784 215.39062 426.82846 217.14062L424.5472 219.60938L428.82846 219.60938L428.82846 220.5Z" fill-rule="nonzero"/><path stroke="#34a853" stroke-width="3.0" stroke-linejoin="round" stroke-linecap="round" d="M481.57422 268.1875Q481.57422 268.82812 481.23047 269.32812Q480.88672 269.82812 480.32422 270.10938Q480.98047 270.39062 481.3711 270.95312Q481.76172 271.5 481.76172 272.20312Q481.76172 273.29688 481.01172 273.96875Q480.27734 274.625 479.0586 274.625Q477.82422 274.625 477.07422 273.96875Q476.33984 273.29688 476.33984 272.20312Q476.33984 271.5 476.71484 270.95312Q477.08984 270.39062 477.76172 270.10938Q477.19922 269.82812 476.8711 269.32812Q476.54297 268.82812 476.54297 268.1875Q476.54297 267.10938 477.23047 266.48438Q477.91797 265.84375 479.0586 265.84375Q480.1836 265.84375 480.8711 266.48438Q481.57422 267.10938 481.57422 268.1875ZM480.6836 272.17188Q480.6836 271.45312 480.23047 271.01562Q479.77734 270.5625 479.04297 270.5625Q478.3086 270.5625 477.85547 271.01562Q477.41797 271.45312 477.41797 272.1875Q477.41797 272.90625 477.85547 273.32812Q478.29297 273.73438 479.0586 273.73438Q479.8086 273.73438 480.2461 273.3125Q480.6836 272.89062 480.6836 272.17188ZM479.0586 266.73438Q478.41797 266.73438 478.01172 267.14062Q477.6211 267.53125 477.6211 268.21875Q477.6211 268.85938 478.01172 269.26562Q478.40234 269.67188 479.04297 269.67188Q479.69922 269.67188 480.08984 269.26562Q480.48047 268.85938 480.48047 268.21875Q480.48047 267.5625 480.07422 267.15625Q479.66797 266.73438 479.0586 266.73438ZM488.98047 274.5L483.38672 274.5L483.38672 273.71875L486.33984 270.4375Q486.9961 269.6875 487.2461 269.23438Q487.4961 268.76562 487.4961 268.26562Q487.4961 267.59375 487.08984 267.17188Q486.69922 266.73438 486.01172 266.73438Q485.21484 266.73438 484.76172 267.20312Q484.3086 267.65625 484.3086 268.48438L483.23047 268.48438Q483.23047 267.29688 483.98047 266.57812Q484.7461 265.84375 486.01172 265.84375Q487.21484 265.84375 487.90234 266.46875Q488.58984 267.09375 488.58984 268.14062Q488.58984 269.39062 486.98047 271.14062L484.69922 273.60938L488.98047 273.60938L488.98047 274.5ZM490.52734 273.9375Q490.52734 273.65625 490.6836 273.46875Q490.85547 273.28125 491.1836 273.28125Q491.52734 273.28125 491.69922 273.46875Q491.8711 273.65625 491.8711 273.9375Q491.8711 274.20312 491.69922 274.39062Q491.52734 274.5625 491.1836 274.5625Q490.85547 274.5625 490.6836 274.39062Q490.52734 274.20312 490.52734 273.9375ZM498.90234 266.57812L495.3711 274.5L494.23047 274.5L497.7461 266.85938L493.13672 266.85938L493.13672 265.96875L498.90234 265.96875L498.90234 266.57812Z" fill-rule="nonzero"/><path fill="#ffffff" d="M481.57422 268.1875Q481.57422 268.82812 481.23047 269.32812Q480.88672 269.82812 480.32422 270.10938Q480.98047 270.39062 481.3711 270.95312Q481.76172 271.5 481.76172 272.20312Q481.76172 273.29688 481.01172 273.96875Q480.27734 274.625 479.0586 274.625Q477.82422 274.625 477.07422 273.96875Q476.33984 273.29688 476.33984 272.20312Q476.33984 271.5 476.71484 270.95312Q477.08984 270.39062 477.76172 270.10938Q477.19922 269.82812 476.8711 269.32812Q476.54297 268.82812 476.54297 268.1875Q476.54297 267.10938 477.23047 266.48438Q477.91797 265.84375 479.0586 265.84375Q480.1836 265.84375 480.8711 266.48438Q481.57422 267.10938 481.57422 268.1875ZM480.6836 272.17188Q480.6836 271.45312 480.23047 271.01562Q479.77734 270.5625 479.04297 270.5625Q478.3086 270.5625 477.85547 271.01562Q477.41797 271.45312 477.41797 272.1875Q477.41797 272.90625 477.85547 273.32812Q478.29297 273.73438 479.0586 273.73438Q479.8086 273.73438 480.2461 273.3125Q480.6836 272.89062 480.6836 272.17188ZM479.0586 266.73438Q478.41797 266.73438 478.01172 267.14062Q477.6211 267.53125 477.6211 268.21875Q477.6211 268.85938 478.01172 269.26562Q478.40234 269.67188 479.04297 269.67188Q479.69922 269.67188 480.08984 269.26562Q480.48047 268.85938 480.48047 268.21875Q480.48047 267.5625 480.07422 267.15625Q479.66797 266.73438 479.0586 266.73438ZM488.98047 274.5L483.38672 274.5L483.38672 273.71875L486.33984 270.4375Q486.9961 269.6875 487.2461 269.23438Q487.4961 268.76562 487.4961 268.26562Q487.4961 267.59375 487.08984 267.17188Q486.69922 266.73438 486.01172 266.73438Q485.21484 266.73438 484.76172 267.20312Q484.3086 267.65625 484.3086 268.48438L483.23047 268.48438Q483.23047 267.29688 483.98047 266.57812Q484.7461 265.84375 486.01172 265.84375Q487.21484 265.84375 487.90234 266.46875Q488.58984 267.09375 488.58984 268.14062Q488.58984 269.39062 486.98047 271.14062L484.69922 273.60938L488.98047 273.60938L488.98047 274.5ZM490.52734 273.9375Q490.52734 273.65625 490.6836 273.46875Q490.85547 273.28125 491.1836 273.28125Q491.52734 273.28125 491.69922 273.46875Q491.8711 273.65625 491.8711 273.9375Q491.8711 274.20312 491.69922 274.39062Q491.52734 274.5625 491.1836 274.5625Q490.85547 274.5625 490.6836 274.39062Q490.52734 274.20312 490.52734 273.9375ZM498.90234 266.57812L495.3711 274.5L494.23047 274.5L497.7461 266.85938L493.13672 266.85938L493.13672 265.96875L498.90234 265.96875L498.90234 266.57812Z" fill-rule="nonzero"/><path stroke="#34a853" stroke-width="3.0" stroke-linejoin="round" stroke-linecap="round" d="M579.78705 321.1875Q579.78705 321.82812 579.4433 322.32812Q579.09955 322.82812 578.53705 323.10938Q579.1933 323.39062 579.5839 323.95312Q579.97455 324.5 579.97455 325.20312Q579.97455 326.29688 579.22455 326.96875Q578.4902 327.625 577.2714 327.625Q576.03705 327.625 575.28705 326.96875Q574.5527 326.29688 574.5527 325.20312Q574.5527 324.5 574.9277 323.95312Q575.3027 323.39062 575.97455 323.10938Q575.41205 322.82812 575.0839 322.32812Q574.7558 321.82812 574.7558 321.1875Q574.7558 320.10938 575.4433 319.48438Q576.1308 318.84375 577.2714 318.84375Q578.3964 318.84375 579.0839 319.48438Q579.78705 320.10938 579.78705 321.1875ZM578.8964 325.17188Q578.8964 324.45312 578.4433 324.01562Q577.9902 323.5625 577.2558 323.5625Q576.5214 323.5625 576.0683 324.01562Q575.6308 324.45312 575.6308 325.1875Q575.6308 325.90625 576.0683 326.32812Q576.5058 326.73438 577.2714 326.73438Q578.0214 326.73438 578.4589 326.3125Q578.8964 325.89062 578.8964 325.17188ZM577.2714 319.73438Q576.6308 319.73438 576.22455 320.14062Q575.8339 320.53125 575.8339 321.21875Q575.8339 321.85938 576.22455 322.26562Q576.6152 322.67188 577.2558 322.67188Q577.91205 322.67188 578.3027 322.26562Q578.6933 321.85938 578.6933 321.21875Q578.6933 320.5625 578.28705 320.15625Q577.8808 319.73438 577.2714 319.73438ZM586.1777 324.64062L587.3652 324.64062L587.3652 325.51562L586.1777 325.51562L586.1777 327.5L585.09955 327.5L585.09955 325.51562L581.2089 325.51562L581.2089 324.875L585.0214 318.96875L586.1777 318.96875L586.1777 324.64062ZM582.4433 324.64062L585.09955 324.64062L585.09955 320.45312L584.9589 320.6875L582.4433 324.64062ZM588.7402 326.9375Q588.7402 326.65625 588.8964 326.46875Q589.0683 326.28125 589.3964 326.28125Q589.7402 326.28125 589.91205 326.46875Q590.0839 326.65625 590.0839 326.9375Q590.0839 327.20312 589.91205 327.39062Q589.7402 327.5625 589.3964 327.5625Q589.0683 327.5625 588.8964 327.39062Q588.7402 327.20312 588.7402 326.9375ZM596.78705 321.1875Q596.78705 321.82812 596.4433 322.32812Q596.09955 322.82812 595.53705 323.10938Q596.1933 323.39062 596.5839 323.95312Q596.97455 324.5 596.97455 325.20312Q596.97455 326.29688 596.22455 326.96875Q595.4902 327.625 594.2714 327.625Q593.03705 327.625 592.28705 326.96875Q591.5527 326.29688 591.5527 325.20312Q591.5527 324.5 591.9277 323.95312Q592.3027 323.39062 592.97455 323.10938Q592.41205 322.82812 592.0839 322.32812Q591.7558 321.82812 591.7558 321.1875Q591.7558 320.10938 592.4433 319.48438Q593.1308 318.84375 594.2714 318.84375Q595.3964 318.84375 596.0839 319.48438Q596.78705 320.10938 596.78705 321.1875ZM595.8964 325.17188Q595.8964 324.45312 595.4433 324.01562Q594.9902 323.5625 594.2558 323.5625Q593.5214 323.5625 593.0683 324.01562Q592.6308 324.45312 592.6308 325.1875Q592.6308 325.90625 593.0683 326.32812Q593.5058 326.73438 594.2714 326.73438Q595.0214 326.73438 595.4589 326.3125Q595.8964 325.89062 595.8964 325.17188ZM594.2714 319.73438Q593.6308 319.73438 593.22455 320.14062Q592.8339 320.53125 592.8339 321.21875Q592.8339 321.85938 593.22455 322.26562Q593.6152 322.67188 594.2558 322.67188Q594.91205 322.67188 595.3027 322.26562Q595.6933 321.85938 595.6933 321.21875Q595.6933 320.5625 595.28705 320.15625Q594.8808 319.73438 594.2714 319.73438Z" fill-rule="nonzero"/><path fill="#ffffff" d="M579.78705 321.1875Q579.78705 321.82812 579.4433 322.32812Q579.09955 322.82812 578.53705 323.10938Q579.1933 323.39062 579.5839 323.95312Q579.97455 324.5 579.97455 325.20312Q579.97455 326.29688 579.22455 326.96875Q578.4902 327.625 577.2714 327.625Q576.03705 327.625 575.28705 326.96875Q574.5527 326.29688 574.5527 325.20312Q574.5527 324.5 574.9277 323.95312Q575.3027 323.39062 575.97455 323.10938Q575.41205 322.82812 575.0839 322.32812Q574.7558 321.82812 574.7558 321.1875Q574.7558 320.10938 575.4433 319.48438Q576.1308 318.84375 577.2714 318.84375Q578.3964 318.84375 579.0839 319.48438Q579.78705 320.10938 579.78705 321.1875ZM578.8964 325.17188Q578.8964 324.45312 578.4433 324.01562Q577.9902 323.5625 577.2558 323.5625Q576.5214 323.5625 576.0683 324.01562Q575.6308 324.45312 575.6308 325.1875Q575.6308 325.90625 576.0683 326.32812Q576.5058 326.73438 577.2714 326.73438Q578.0214 326.73438 578.4589 326.3125Q578.8964 325.89062 578.8964 325.17188ZM577.2714 319.73438Q576.6308 319.73438 576.22455 320.14062Q575.8339 320.53125 575.8339 321.21875Q575.8339 321.85938 576.22455 322.26562Q576.6152 322.67188 577.2558 322.67188Q577.91205 322.67188 578.3027 322.26562Q578.6933 321.85938 578.6933 321.21875Q578.6933 320.5625 578.28705 320.15625Q577.8808 319.73438 577.2714 319.73438ZM586.1777 324.64062L587.3652 324.64062L587.3652 325.51562L586.1777 325.51562L586.1777 327.5L585.09955 327.5L585.09955 325.51562L581.2089 325.51562L581.2089 324.875L585.0214 318.96875L586.1777 318.96875L586.1777 324.64062ZM582.4433 324.64062L585.09955 324.64062L585.09955 320.45312L584.9589 320.6875L582.4433 324.64062ZM588.7402 326.9375Q588.7402 326.65625 588.8964 326.46875Q589.0683 326.28125 589.3964 326.28125Q589.7402 326.28125 589.91205 326.46875Q590.0839 326.65625 590.0839 326.9375Q590.0839 327.20312 589.91205 327.39062Q589.7402 327.5625 589.3964 327.5625Q589.0683 327.5625 588.8964 327.39062Q588.7402 327.20312 588.7402 326.9375ZM596.78705 321.1875Q596.78705 321.82812 596.4433 322.32812Q596.09955 322.82812 595.53705 323.10938Q596.1933 323.39062 596.5839 323.95312Q596.97455 324.5 596.97455 325.20312Q596.97455 326.29688 596.22455 326.96875Q595.4902 327.625 594.2714 327.625Q593.03705 327.625 592.28705 326.96875Q591.5527 326.29688 591.5527 325.20312Q591.5527 324.5 591.9277 323.95312Q592.3027 323.39062 592.97455 323.10938Q592.41205 322.82812 592.0839 322.32812Q591.7558 321.82812 591.7558 321.1875Q591.7558 320.10938 592.4433 319.48438Q593.1308 318.84375 594.2714 318.84375Q595.3964 318.84375 596.0839 319.48438Q596.78705 320.10938 596.78705 321.1875ZM595.8964 325.17188Q595.8964 324.45312 595.4433 324.01562Q594.9902 323.5625 594.2558 323.5625Q593.5214 323.5625 593.0683 324.01562Q592.6308 324.45312 592.6308 325.1875Q592.6308 325.90625 593.0683 326.32812Q593.5058 326.73438 594.2714 326.73438Q595.0214 326.73438 595.4589 326.3125Q595.8964 325.89062 595.8964 325.17188ZM594.2714 319.73438Q593.6308 319.73438 593.22455 320.14062Q592.8339 320.53125 592.8339 321.21875Q592.8339 321.85938 593.22455 322.26562Q593.6152 322.67188 594.2558 322.67188Q594.91205 322.67188 595.3027 322.26562Q595.6933 321.85938 595.6933 321.21875Q595.6933 320.5625 595.28705 320.15625Q594.8808 319.73438 594.2714 319.73438Z" fill-rule="nonzero"/><path fill="#000000" d="M54.245 59.996063L54.245 51.402313L57.479374 51.402313Q58.46375 51.402313 59.0575 51.66794Q59.65125 51.933563 59.979374 52.48044Q60.323124 53.01169 60.323124 53.60544Q60.323124 54.152313 60.02625 54.63669Q59.729374 55.121063 59.12 55.41794Q59.90125 55.652313 60.3075 56.214813Q60.729374 56.76169 60.729374 57.51169Q60.729374 58.10544 60.479374 58.63669Q60.229374 59.152313 59.854374 59.433563Q59.479374 59.714813 58.90125 59.85544Q58.33875 59.996063 57.52625 59.996063L54.245 59.996063ZM55.385624 55.01169L57.245 55.01169Q57.995 55.01169 58.323124 54.91794Q58.760624 54.79294 58.979374 54.496063Q59.198124 54.183563 59.198124 53.73044Q59.198124 53.308563 58.995 52.98044Q58.791874 52.652313 58.40125 52.54294Q58.02625 52.41794 57.104374 52.41794L55.385624 52.41794L55.385624 55.01169ZM55.385624 58.98044L57.52625 58.98044Q58.073124 58.98044 58.291874 58.933563Q58.698124 58.871063 58.948124 58.714813Q59.21375 58.54294 59.385624 58.23044Q59.5575 57.91794 59.5575 57.51169Q59.5575 57.027313 59.3075 56.66794Q59.073124 56.308563 58.635624 56.16794Q58.198124 56.027313 57.37 56.027313L55.385624 56.027313L55.385624 58.98044ZM62.323124 59.996063L62.323124 51.402313L68.526245 51.402313L68.526245 52.41794L63.46375 52.41794L63.46375 55.04294L68.213745 55.04294L68.213745 56.058563L63.46375 56.058563L63.46375 58.98044L68.72937 58.98044L68.72937 59.996063L62.323124 59.996063ZM70.307495 59.996063L70.307495 51.402313L74.119995 51.402313Q75.276245 51.402313 75.869995 51.63669Q76.463745 51.871063 76.82312 52.464813Q77.182495 53.04294 77.182495 53.746063Q77.182495 54.66794 76.588745 55.29294Q75.994995 55.91794 74.76062 56.089813Q75.213745 56.308563 75.44812 56.51169Q75.94812 56.964813 76.38562 57.652313L77.88562 59.996063L76.44812 59.996063L75.32312 58.214813Q74.82312 57.433563 74.494995 57.027313Q74.182495 56.621063 73.91687 56.464813Q73.66687 56.29294 73.401245 56.214813Q73.213745 56.183563 72.776245 56.183563L71.44812 56.183563L71.44812 59.996063L70.307495 59.996063ZM71.44812 55.19919L73.901245 55.19919Q74.66687 55.19919 75.10437 55.04294Q75.557495 54.871063 75.776245 54.527313Q76.01062 54.16794 76.01062 53.746063Q76.01062 53.13669 75.557495 52.746063Q75.119995 52.35544 74.16687 52.35544L71.44812 52.35544L71.44812 55.19919ZM81.47937 59.996063L81.47937 52.41794L78.651245 52.41794L78.651245 51.402313L85.463745 51.402313L85.463745 52.41794L82.619995 52.41794L82.619995 59.996063L81.47937 59.996063ZM85.744995 57.41794L85.744995 56.35544L88.994995 56.35544L88.994995 57.41794L85.744995 57.41794ZM92.47937 59.996063L92.47937 52.41794L89.651245 52.41794L89.651245 51.402313L96.463745 51.402313L96.463745 52.41794L93.619995 52.41794L93.619995 59.996063L92.47937 59.996063ZM97.16687 59.996063L97.16687 51.402313L98.213745 51.402313L98.213745 54.48044Q98.94812 53.63669 100.07312 53.63669Q100.776245 53.63669 101.276245 53.91794Q101.79187 54.183563 102.01062 54.66794Q102.22937 55.13669 102.22937 56.058563L102.22937 59.996063L101.182495 59.996063L101.182495 56.058563Q101.182495 55.26169 100.838745 54.902313Q100.494995 54.54294 99.869995 54.54294Q99.401245 54.54294 98.97937 54.79294Q98.57312 55.027313 98.38562 55.44919Q98.213745 55.85544 98.213745 56.589813L98.213745 59.996063L97.16687 59.996063ZM108.41687 57.996063L109.51062 58.121063Q109.26062 59.07419 108.557495 59.60544Q107.85437 60.13669 106.776245 60.13669Q105.41687 60.13669 104.60437 59.29294Q103.807495 58.44919 103.807495 56.933563Q103.807495 55.371063 104.619995 54.51169Q105.432495 53.63669 106.713745 53.63669Q107.963745 53.63669 108.744995 54.48044Q109.54187 55.32419 109.54187 56.871063Q109.54187 56.964813 109.54187 57.152313L104.901245 57.152313Q104.963745 58.183563 105.47937 58.73044Q105.994995 59.26169 106.776245 59.26169Q107.35437 59.26169 107.76062 58.964813Q108.182495 58.652313 108.41687 57.996063ZM104.963745 56.29294L108.432495 56.29294Q108.369995 55.496063 108.04187 55.10544Q107.526245 54.496063 106.72937 54.496063Q105.994995 54.496063 105.494995 54.98044Q105.01062 55.464813 104.963745 56.29294ZM110.744995 58.13669L111.776245 57.98044Q111.869995 58.60544 112.26062 58.933563Q112.66687 59.26169 113.401245 59.26169Q114.119995 59.26169 114.463745 58.98044Q114.82312 58.683563 114.82312 58.277313Q114.82312 57.91794 114.51062 57.714813Q114.29187 57.57419 113.432495 57.35544Q112.276245 57.058563 111.82312 56.85544Q111.38562 56.63669 111.151245 56.26169Q110.91687 55.88669 110.91687 55.41794Q110.91687 55.01169 111.10437 54.652313Q111.29187 54.29294 111.619995 54.058563Q111.869995 53.88669 112.29187 53.76169Q112.713745 53.63669 113.213745 53.63669Q113.932495 53.63669 114.47937 53.85544Q115.04187 54.058563 115.307495 54.41794Q115.57312 54.777313 115.66687 55.371063L114.63562 55.51169Q114.57312 55.04294 114.22937 54.777313Q113.901245 54.496063 113.276245 54.496063Q112.557495 54.496063 112.244995 54.746063Q111.932495 54.98044 111.932495 55.308563Q111.932495 55.51169 112.057495 55.66794Q112.19812 55.839813 112.463745 55.94919Q112.619995 56.01169 113.401245 56.214813Q114.526245 56.527313 114.963745 56.714813Q115.401245 56.902313 115.651245 57.26169Q115.901245 57.621063 115.901245 58.16794Q115.901245 58.69919 115.588745 59.16794Q115.29187 59.621063 114.713745 59.88669Q114.13562 60.13669 113.401245 60.13669Q112.182495 60.13669 111.54187 59.63669Q110.91687 59.121063 110.744995 58.13669ZM122.41687 57.996063L123.51062 58.121063Q123.26062 59.07419 122.557495 59.60544Q121.85437 60.13669 120.776245 60.13669Q119.41687 60.13669 118.60437 59.29294Q117.807495 58.44919 117.807495 56.933563Q117.807495 55.371063 118.619995 54.51169Q119.432495 53.63669 120.713745 53.63669Q121.963745 53.63669 122.744995 54.48044Q123.54187 55.32419 123.54187 56.871063Q123.54187 56.964813 123.54187 57.152313L118.901245 57.152313Q118.963745 58.183563 119.47937 58.73044Q119.994995 59.26169 120.776245 59.26169Q121.35437 59.26169 121.76062 58.964813Q122.182495 58.652313 122.41687 57.996063ZM118.963745 56.29294L122.432495 56.29294Q122.369995 55.496063 122.04187 55.10544Q121.526245 54.496063 120.72937 54.496063Q119.994995 54.496063 119.494995 54.98044Q119.01062 55.464813 118.963745 56.29294ZM129.245 59.996063L129.245 59.07419Q128.51062 60.13669 127.26062 60.13669Q126.713745 60.13669 126.22937 59.933563Q125.76062 59.714813 125.526245 59.402313Q125.29187 59.07419 125.19812 58.60544Q125.13562 58.308563 125.13562 57.621063L125.13562 53.777313L126.19812 53.777313L126.19812 57.23044Q126.19812 58.04294 126.26062 58.339813Q126.35437 58.746063 126.66687 58.996063Q126.994995 59.23044 127.47937 59.23044Q127.94812 59.23044 128.35437 58.996063Q128.77625 58.746063 128.94812 58.32419Q129.13562 57.902313 129.13562 57.10544L129.13562 53.777313L130.1825 53.777313L130.1825 59.996063L129.245 59.996063ZM131.745 58.13669L132.77625 57.98044Q132.87 58.60544 133.26062 58.933563Q133.66687 59.26169 134.40125 59.26169Q135.12 59.26169 135.46375 58.98044Q135.82312 58.683563 135.82312 58.277313Q135.82312 57.91794 135.51062 57.714813Q135.29187 57.57419 134.4325 57.35544Q133.27625 57.058563 132.82312 56.85544Q132.38562 56.63669 132.15125 56.26169Q131.91687 55.88669 131.91687 55.41794Q131.91687 55.01169 132.10437 54.652313Q132.29187 54.29294 132.62 54.058563Q132.87 53.88669 133.29187 53.76169Q133.71375 53.63669 134.21375 53.63669Q134.9325 53.63669 135.47937 53.85544Q136.04187 54.058563 136.3075 54.41794Q136.57312 54.777313 136.66687 55.371063L135.63562 55.51169Q135.57312 55.04294 135.22937 54.777313Q134.90125 54.496063 134.27625 54.496063Q133.5575 54.496063 133.245 54.746063Q132.9325 54.98044 132.9325 55.308563Q132.9325 55.51169 133.0575 55.66794Q133.19812 55.839813 133.46375 55.94919Q133.62 56.01169 134.40125 56.214813Q135.52625 56.527313 135.96375 56.714813Q136.40125 56.902313 136.65125 57.26169Q136.90125 57.621063 136.90125 58.16794Q136.90125 58.69919 136.58875 59.16794Q136.29187 59.621063 135.71375 59.88669Q135.13562 60.13669 134.40125 60.13669Q133.1825 60.13669 132.54187 59.63669Q131.91687 59.121063 131.745 58.13669Z" fill-rule="nonzero"/><path fill="#000000" d="M91.46375 112.46014L91.62 113.38201Q91.16688 113.47576 90.82313 113.47576Q90.245 113.47576 89.9325 113.30389Q89.62 113.11639 89.47938 112.81951Q89.35438 112.52264 89.35438 111.56951L89.35438 107.99139L88.58875 107.99139L88.58875 107.17889L89.35438 107.17889L89.35438 105.63201L90.40125 105.00701L90.40125 107.17889L91.46375 107.17889L91.46375 107.99139L90.40125 107.99139L90.40125 111.63201Q90.40125 112.08514 90.44813 112.21014Q90.51063 112.33514 90.63563 112.41326Q90.76063 112.49139 90.995 112.49139Q91.1825 112.49139 91.46375 112.46014ZM92.16688 106.02264L92.16688 104.80389L93.22938 104.80389L93.22938 106.02264L92.16688 106.02264ZM92.16688 113.39764L92.16688 107.17889L93.22938 107.17889L93.22938 113.39764L92.16688 113.39764ZM95.16688 113.39764L95.16688 107.17889L96.10438 107.17889L96.10438 108.05389Q96.79188 107.03826 98.08875 107.03826Q98.65125 107.03826 99.12 107.24139Q99.60438 107.44451 99.83875 107.77264Q100.07313 108.10076 100.16688 108.53826Q100.21375 108.83514 100.21375 109.56951L100.21375 113.39764L99.16688 113.39764L99.16688 109.61639Q99.16688 108.96014 99.04188 108.64764Q98.91688 108.33514 98.60438 108.14764Q98.29188 107.94451 97.87 107.94451Q97.19813 107.94451 96.69813 108.38201Q96.21375 108.80389 96.21375 109.99139L96.21375 113.39764L95.16688 113.39764ZM102.12 115.78826L101.995 114.80389Q102.33875 114.89764 102.60438 114.89764Q102.94813 114.89764 103.15125 114.77264Q103.37 114.66326 103.51063 114.46014Q103.60438 114.28826 103.83875 113.66326Q103.85438 113.58514 103.9325 113.41326L101.5575 107.17889L102.69813 107.17889L103.995 110.77264Q104.245 111.46014 104.44813 112.22576Q104.63563 111.49139 104.88563 110.80389L106.21375 107.17889L107.26063 107.17889L104.90125 113.50701Q104.51063 114.52264 104.3075 114.91326Q104.02625 115.44451 103.65125 115.67889Q103.29188 115.92889 102.79188 115.92889Q102.495 115.92889 102.12 115.78826ZM107.245 113.39764L107.245 104.80389L110.47938 104.80389Q111.46375 104.80389 112.0575 105.06951Q112.65125 105.33514 112.97938 105.88201Q113.32313 106.41326 113.32313 107.00701Q113.32313 107.55389 113.02625 108.03826Q112.72938 108.52264 112.12 108.81951Q112.90125 109.05389 113.3075 109.61639Q113.72938 110.16326 113.72938 110.91326Q113.72938 111.50701 113.47938 112.03826Q113.22938 112.55389 112.85438 112.83514Q112.47938 113.11639 111.90125 113.25701Q111.33875 113.39764 110.52625 113.39764L107.245 113.39764ZM108.38563 108.41326L110.245 108.41326Q110.995 108.41326 111.32313 108.31951Q111.76063 108.19451 111.97938 107.89764Q112.19813 107.58514 112.19813 107.13201Q112.19813 106.71014 111.995 106.38201Q111.79188 106.05389 111.40125 105.94451Q111.02625 105.81951 110.10438 105.81951L108.38563 105.81951L108.38563 108.41326ZM108.38563 112.38201L110.52625 112.38201Q111.07313 112.38201 111.29188 112.33514Q111.69813 112.27264 111.94813 112.11639Q112.21375 111.94451 112.38563 111.63201Q112.5575 111.31951 112.5575 110.91326Q112.5575 110.42889 112.3075 110.06951Q112.07313 109.71014 111.63563 109.56951Q111.19813 109.42889 110.37 109.42889L108.38563 109.42889L108.38563 112.38201ZM115.32313 113.39764L115.32313 104.80389L121.52625 104.80389L121.52625 105.81951L116.46375 105.81951L116.46375 108.44451L121.21375 108.44451L121.21375 109.46014L116.46375 109.46014L116.46375 112.38201L121.72938 112.38201L121.72938 113.39764L115.32313 113.39764ZM123.3075 113.39764L123.3075 104.80389L127.12 104.80389Q128.27625 104.80389 128.87 105.03826Q129.46375 105.27264 129.82312 105.86639Q130.1825 106.44451 130.1825 107.14764Q130.1825 108.06951 129.58875 108.69451Q128.995 109.31951 127.76063 109.49139Q128.21375 109.71014 128.44812 109.91326Q128.94812 110.36639 129.38562 111.05389L130.88562 113.39764L129.44812 113.39764L128.32312 111.61639Q127.82313 110.83514 127.495 110.42889Q127.1825 110.02264 126.91688 109.86639Q126.66688 109.69451 126.40125 109.61639Q126.21375 109.58514 125.77625 109.58514L124.44813 109.58514L124.44813 113.39764L123.3075 113.39764ZM124.44813 108.60076L126.90125 108.60076Q127.66688 108.60076 128.10437 108.44451Q128.5575 108.27264 128.77625 107.92889Q129.01062 107.56951 129.01062 107.14764Q129.01062 106.53826 128.5575 106.14764Q128.12 105.75701 127.16688 105.75701L124.44813 105.75701L124.44813 108.60076ZM134.47937 113.39764L134.47937 105.81951L131.65125 105.81951L131.65125 104.80389L138.46375 104.80389L138.46375 105.81951L135.62 105.81951L135.62 113.39764L134.47937 113.39764Z" fill-rule="nonzero"/><path fill="#000000" d="M87.26063 166.79921L87.26063 158.20546L88.97938 158.20546L91.01063 164.28358Q91.29188 165.14296 91.41688 165.56483Q91.5575 165.09608 91.87 164.18983L93.9325 158.20546L95.46375 158.20546L95.46375 166.79921L94.37 166.79921L94.37 159.61171L91.87 166.79921L90.83875 166.79921L88.35438 159.48671L88.35438 166.79921L87.26063 166.79921ZM95.35438 166.79921L98.65125 158.20546L99.87 158.20546L103.38563 166.79921L102.10438 166.79921L101.08875 164.18983L97.51063 164.18983L96.5575 166.79921L95.35438 166.79921ZM97.83875 163.26796L100.745 163.26796L99.85438 160.89296Q99.4325 159.81483 99.245 159.11171Q99.07313 159.93983 98.77625 160.75233L97.83875 163.26796ZM105.47938 166.79921L105.47938 159.22108L102.65125 159.22108L102.65125 158.20546L109.46375 158.20546L109.46375 159.22108L106.62 159.22108L106.62 166.79921L105.47938 166.79921ZM110.32313 166.79921L110.32313 158.20546L116.52625 158.20546L116.52625 159.22108L111.46375 159.22108L111.46375 161.84608L116.21375 161.84608L116.21375 162.86171L111.46375 162.86171L111.46375 165.78358L116.72938 165.78358L116.72938 166.79921L110.32313 166.79921ZM117.745 164.22108L117.745 163.15858L120.995 163.15858L120.995 164.22108L117.745 164.22108ZM122.245 166.79921L122.245 158.20546L123.38563 158.20546L123.38563 162.47108L127.65125 158.20546L129.19812 158.20546L125.58875 161.68983L129.35437 166.79921L127.85438 166.79921L124.79188 162.45546L123.38563 163.81483L123.38563 166.79921L122.245 166.79921ZM130.29187 166.79921L130.29187 158.20546L133.26062 158.20546Q134.26062 158.20546 134.79187 158.33046Q135.52625 158.50233 136.04187 158.93983Q136.72937 159.51796 137.0575 160.42421Q137.40125 161.31483 137.40125 162.45546Q137.40125 163.43983 137.16687 164.18983Q136.94812 164.93983 136.58875 165.43983Q136.22937 165.93983 135.79187 166.22108Q135.37 166.50233 134.77625 166.65858Q134.1825 166.79921 133.40125 166.79921L130.29187 166.79921ZM131.4325 165.78358L133.26062 165.78358Q134.12 165.78358 134.60437 165.62733Q135.08875 165.47108 135.37 165.17421Q135.77625 164.78358 135.995 164.09608Q136.22937 163.40858 136.22937 162.43983Q136.22937 161.09608 135.77625 160.37733Q135.33875 159.64296 134.71375 159.39296Q134.245 159.22108 133.245 159.22108L131.4325 159.22108L131.4325 165.78358Z" fill-rule="nonzero"/><path fill="#000000" d="M56.291874 220.20079L56.291874 211.60704L59.260624 211.60704Q60.260624 211.60704 60.791874 211.73204Q61.52625 211.90392 62.041874 212.34142Q62.729374 212.91954 63.0575 213.82579Q63.40125 214.71642 63.40125 215.85704Q63.40125 216.84142 63.166874 217.59142Q62.948124 218.34142 62.58875 218.84142Q62.229374 219.34142 61.791874 219.62267Q61.37 219.90392 60.77625 220.06017Q60.1825 220.20079 59.40125 220.20079L56.291874 220.20079ZM57.4325 219.18517L59.260624 219.18517Q60.12 219.18517 60.604374 219.02892Q61.08875 218.87267 61.37 218.57579Q61.77625 218.18517 61.995 217.49767Q62.229374 216.81017 62.229374 215.84142Q62.229374 214.49767 61.77625 213.77892Q61.33875 213.04454 60.71375 212.79454Q60.245 212.62267 59.245 212.62267L57.4325 212.62267L57.4325 219.18517ZM65.16687 212.82579L65.16687 211.60704L66.22937 211.60704L66.22937 212.82579L65.16687 212.82579ZM65.16687 220.20079L65.16687 213.98204L66.22937 213.98204L66.22937 220.20079L65.16687 220.20079ZM67.744995 218.34142L68.776245 218.18517Q68.869995 218.81017 69.26062 219.13829Q69.66687 219.46642 70.401245 219.46642Q71.119995 219.46642 71.463745 219.18517Q71.82312 218.88829 71.82312 218.48204Q71.82312 218.12267 71.51062 217.91954Q71.29187 217.77892 70.432495 217.56017Q69.276245 217.26329 68.82312 217.06017Q68.38562 216.84142 68.151245 216.46642Q67.91687 216.09142 67.91687 215.62267Q67.91687 215.21642 68.10437 214.85704Q68.29187 214.49767 68.619995 214.26329Q68.869995 214.09142 69.29187 213.96642Q69.713745 213.84142 70.213745 213.84142Q70.932495 213.84142 71.47937 214.06017Q72.04187 214.26329 72.307495 214.62267Q72.57312 214.98204 72.66687 215.57579L71.63562 215.71642Q71.57312 215.24767 71.22937 214.98204Q70.901245 214.70079 70.276245 214.70079Q69.557495 214.70079 69.244995 214.95079Q68.932495 215.18517 68.932495 215.51329Q68.932495 215.71642 69.057495 215.87267Q69.19812 216.04454 69.463745 216.15392Q69.619995 216.21642 70.401245 216.41954Q71.526245 216.73204 71.963745 216.91954Q72.401245 217.10704 72.651245 217.46642Q72.901245 217.82579 72.901245 218.37267Q72.901245 218.90392 72.588745 219.37267Q72.29187 219.82579 71.713745 220.09142Q71.13562 220.34142 70.401245 220.34142Q69.182495 220.34142 68.54187 219.84142Q67.91687 219.32579 67.744995 218.34142ZM77.463745 219.26329L77.619995 220.18517Q77.16687 220.27892 76.82312 220.27892Q76.244995 220.27892 75.932495 220.10704Q75.619995 219.91954 75.47937 219.62267Q75.35437 219.32579 75.35437 218.37267L75.35437 214.79454L74.588745 214.79454L74.588745 213.98204L75.35437 213.98204L75.35437 212.43517L76.401245 211.81017L76.401245 213.98204L77.463745 213.98204L77.463745 214.79454L76.401245 214.79454L76.401245 218.43517Q76.401245 218.88829 76.44812 219.01329Q76.51062 219.13829 76.63562 219.21642Q76.76062 219.29454 76.994995 219.29454Q77.182495 219.29454 77.463745 219.26329ZM78.16687 212.82579L78.16687 211.60704L79.22937 211.60704L79.22937 212.82579L78.16687 212.82579ZM78.16687 220.20079L78.16687 213.98204L79.22937 213.98204L79.22937 220.20079L78.16687 220.20079ZM81.13562 220.20079L81.13562 211.60704L82.19812 211.60704L82.19812 220.20079L81.13562 220.20079ZM84.307495 220.20079L84.307495 211.60704L88.119995 211.60704Q89.276245 211.60704 89.869995 211.84142Q90.463745 212.07579 90.82312 212.66954Q91.182495 213.24767 91.182495 213.95079Q91.182495 214.87267 90.588745 215.49767Q89.994995 216.12267 88.76062 216.29454Q89.213745 216.51329 89.44812 216.71642Q89.94812 217.16954 90.38562 217.85704L91.88562 220.20079L90.44812 220.20079L89.32312 218.41954Q88.82312 217.63829 88.494995 217.23204Q88.182495 216.82579 87.91687 216.66954Q87.66687 216.49767 87.401245 216.41954Q87.213745 216.38829 86.776245 216.38829L85.44812 216.38829L85.44812 220.20079L84.307495 220.20079ZM85.44812 215.40392L87.901245 215.40392Q88.66687 215.40392 89.10437 215.24767Q89.557495 215.07579 89.776245 214.73204Q90.01062 214.37267 90.01062 213.95079Q90.01062 213.34142 89.557495 212.95079Q89.119995 212.56017 88.16687 212.56017L85.44812 212.56017L85.44812 215.40392ZM92.776245 217.09142Q92.776245 215.35704 93.72937 214.52892Q94.526245 213.84142 95.682495 213.84142Q96.963745 213.84142 97.776245 214.68517Q98.60437 215.51329 98.60437 216.99767Q98.60437 218.20079 98.244995 218.88829Q97.88562 219.57579 97.182495 219.96642Q96.494995 220.34142 95.682495 220.34142Q94.38562 220.34142 93.57312 219.51329Q92.776245 218.66954 92.776245 217.09142ZM93.85437 217.09142Q93.85437 218.27892 94.369995 218.87267Q94.901245 219.46642 95.682495 219.46642Q96.47937 219.46642 96.994995 218.87267Q97.51062 218.27892 97.51062 217.06017Q97.51062 215.90392 96.97937 215.31017Q96.463745 214.71642 95.682495 214.71642Q94.901245 214.71642 94.369995 215.31017Q93.85437 215.88829 93.85437 217.09142ZM100.244995 220.20079L100.244995 211.60704L103.47937 211.60704Q104.463745 211.60704 105.057495 211.87267Q105.651245 212.13829 105.97937 212.68517Q106.32312 213.21642 106.32312 213.81017Q106.32312 214.35704 106.026245 214.84142Q105.72937 215.32579 105.119995 215.62267Q105.901245 215.85704 106.307495 216.41954Q106.72937 216.96642 106.72937 217.71642Q106.72937 218.31017 106.47937 218.84142Q106.22937 219.35704 105.85437 219.63829Q105.47937 219.91954 104.901245 220.06017Q104.338745 220.20079 103.526245 220.20079L100.244995 220.20079ZM101.38562 215.21642L103.244995 215.21642Q103.994995 215.21642 104.32312 215.12267Q104.76062 214.99767 104.97937 214.70079Q105.19812 214.38829 105.19812 213.93517Q105.19812 213.51329 104.994995 213.18517Q104.79187 212.85704 104.401245 212.74767Q104.026245 212.62267 103.10437 212.62267L101.38562 212.62267L101.38562 215.21642ZM101.38562 219.18517L103.526245 219.18517Q104.07312 219.18517 104.29187 219.13829Q104.69812 219.07579 104.94812 218.91954Q105.213745 218.74767 105.38562 218.43517Q105.557495 218.12267 105.557495 217.71642Q105.557495 217.23204 105.307495 216.87267Q105.07312 216.51329 104.63562 216.37267Q104.19812 216.23204 103.369995 216.23204L101.38562 216.23204L101.38562 219.18517ZM108.32312 220.20079L108.32312 211.60704L114.526245 211.60704L114.526245 212.62267L109.463745 212.62267L109.463745 215.24767L114.213745 215.24767L114.213745 216.26329L109.463745 216.26329L109.463745 219.18517L114.72937 219.18517L114.72937 220.20079L108.32312 220.20079ZM116.307495 220.20079L116.307495 211.60704L120.119995 211.60704Q121.276245 211.60704 121.869995 211.84142Q122.463745 212.07579 122.82312 212.66954Q123.182495 213.24767 123.182495 213.95079Q123.182495 214.87267 122.588745 215.49767Q121.994995 216.12267 120.76062 216.29454Q121.213745 216.51329 121.44812 216.71642Q121.94812 217.16954 122.38562 217.85704L123.88562 220.20079L122.44812 220.20079L121.32312 218.41954Q120.82312 217.63829 120.494995 217.23204Q120.182495 216.82579 119.91687 216.66954Q119.66687 216.49767 119.401245 216.41954Q119.213745 216.38829 118.776245 216.38829L117.44812 216.38829L117.44812 220.20079L116.307495 220.20079ZM117.44812 215.40392L119.901245 215.40392Q120.66687 215.40392 121.10437 215.24767Q121.557495 215.07579 121.776245 214.73204Q122.01062 214.37267 122.01062 213.95079Q122.01062 213.34142 121.557495 212.95079Q121.119995 212.56017 120.16687 212.56017L117.44812 212.56017L117.44812 215.40392ZM127.47937 220.20079L127.47937 212.62267L124.651245 212.62267L124.651245 211.60704L131.46375 211.60704L131.46375 212.62267L128.62 212.62267L128.62 220.20079L127.47937 220.20079ZM136.22937 219.43517Q135.63562 219.93517 135.08875 220.13829Q134.5575 220.34142 133.9325 220.34142Q132.90125 220.34142 132.35437 219.84142Q131.8075 219.34142 131.8075 218.56017Q131.8075 218.10704 132.01062 217.73204Q132.21375 217.34142 132.5575 217.12267Q132.90125 216.88829 133.32312 216.77892Q133.62 216.68517 134.26062 216.60704Q135.52625 216.46642 136.13562 216.24767Q136.13562 216.02892 136.13562 215.98204Q136.13562 215.32579 135.83875 215.06017Q135.4325 214.71642 134.63562 214.71642Q133.90125 214.71642 133.54187 214.98204Q133.1825 215.23204 133.01062 215.88829L131.97937 215.74767Q132.12 215.09142 132.44812 214.68517Q132.77625 214.27892 133.38562 214.06017Q133.995 213.84142 134.79187 213.84142Q135.58875 213.84142 136.08875 214.02892Q136.58875 214.21642 136.82312 214.49767Q137.0575 214.77892 137.15125 215.21642Q137.19812 215.48204 137.19812 216.18517L137.19812 217.59142Q137.19812 219.06017 137.26062 219.45079Q137.33875 219.84142 137.54187 220.20079L136.4325 220.20079Q136.27625 219.87267 136.22937 219.43517ZM136.13562 217.07579Q135.5575 217.31017 134.41687 217.48204Q133.76062 217.57579 133.495 217.70079Q133.22937 217.81017 133.07312 218.02892Q132.9325 218.24767 132.9325 218.52892Q132.9325 218.95079 133.245 219.23204Q133.57312 219.51329 134.1825 219.51329Q134.79187 219.51329 135.26062 219.24767Q135.745 218.98204 135.96375 218.51329Q136.13562 218.15392 136.13562 217.46642L136.13562 217.07579Z" fill-rule="nonzero"/><path fill="#000000" d="M27.291876 273.60236L27.291876 265.0086L30.260626 265.0086Q31.260626 265.0086 31.791876 265.1336Q32.526253 265.30548 33.041878 265.74298Q33.729378 266.3211 34.057503 267.22736Q34.401253 268.11798 34.401253 269.2586Q34.401253 270.24298 34.166878 270.99298Q33.948128 271.74298 33.588753 272.24298Q33.229378 272.74298 32.791878 273.02423Q32.370003 273.30548 31.77625 273.46173Q31.1825 273.60236 30.40125 273.60236L27.291876 273.60236ZM28.4325 272.58673L30.260626 272.58673Q31.12 272.58673 31.604376 272.43048Q32.088753 272.27423 32.370003 271.97736Q32.776253 271.58673 32.995003 270.89923Q33.229378 270.21173 33.229378 269.24298Q33.229378 267.89923 32.776253 267.18048Q32.338753 266.4461 31.71375 266.1961Q31.245 266.02423 30.245 266.02423L28.4325 266.02423L28.4325 272.58673ZM36.166878 266.22736L36.166878 265.0086L37.229378 265.0086L37.229378 266.22736L36.166878 266.22736ZM36.166878 273.60236L36.166878 267.3836L37.229378 267.3836L37.229378 273.60236L36.166878 273.60236ZM38.745003 271.74298L39.776253 271.58673Q39.870003 272.21173 40.260628 272.53986Q40.666878 272.86798 41.401253 272.86798Q42.120003 272.86798 42.463753 272.58673Q42.823128 272.28986 42.823128 271.8836Q42.823128 271.52423 42.510628 271.3211Q42.291878 271.18048 41.432503 270.96173Q40.276253 270.66486 39.823128 270.46173Q39.385628 270.24298 39.151253 269.86798Q38.916878 269.49298 38.916878 269.02423Q38.916878 268.61798 39.104378 268.2586Q39.291878 267.89923 39.620003 267.66486Q39.870003 267.49298 40.291878 267.36798Q40.713753 267.24298 41.213753 267.24298Q41.932503 267.24298 42.479378 267.46173Q43.041878 267.66486 43.307503 268.02423Q43.573128 268.3836 43.666878 268.97736L42.635628 269.11798Q42.573128 268.64923 42.229378 268.3836Q41.901253 268.10236 41.276253 268.10236Q40.557503 268.10236 40.245003 268.35236Q39.932503 268.58673 39.932503 268.91486Q39.932503 269.11798 40.057503 269.27423Q40.198128 269.4461 40.463753 269.55548Q40.620003 269.61798 41.401253 269.8211Q42.526253 270.1336 42.963753 270.3211Q43.401253 270.5086 43.651253 270.86798Q43.901253 271.22736 43.901253 271.77423Q43.901253 272.30548 43.588753 272.77423Q43.291878 273.22736 42.713753 273.49298Q42.135628 273.74298 41.401253 273.74298Q40.182503 273.74298 39.541878 273.24298Q38.916878 272.72736 38.745003 271.74298ZM48.463753 272.66486L48.620003 273.58673Q48.166878 273.68048 47.823128 273.68048Q47.245003 273.68048 46.932503 273.5086Q46.620003 273.3211 46.479378 273.02423Q46.354378 272.72736 46.354378 271.77423L46.354378 268.1961L45.588753 268.1961L45.588753 267.3836L46.354378 267.3836L46.354378 265.83673L47.401253 265.21173L47.401253 267.3836L48.463753 267.3836L48.463753 268.1961L47.401253 268.1961L47.401253 271.83673Q47.401253 272.28986 47.448128 272.41486Q47.510628 272.53986 47.635628 272.61798Q47.760628 272.6961 47.995003 272.6961Q48.182503 272.6961 48.463753 272.66486ZM49.166878 266.22736L49.166878 265.0086L50.229378 265.0086L50.229378 266.22736L49.166878 266.22736ZM49.166878 273.60236L49.166878 267.3836L50.229378 267.3836L50.229378 273.60236L49.166878 273.60236ZM52.135628 273.60236L52.135628 265.0086L53.198128 265.0086L53.198128 273.60236L52.135628 273.60236ZM55.307503 273.60236L55.307503 265.0086L59.120003 265.0086Q60.276253 265.0086 60.870003 265.24298Q61.463753 265.47736 61.823128 266.0711Q62.182503 266.64923 62.182503 267.35236Q62.182503 268.27423 61.588753 268.89923Q60.995003 269.52423 59.760628 269.6961Q60.213753 269.91486 60.448128 270.11798Q60.948128 270.5711 61.385628 271.2586L62.885628 273.60236L61.448128 273.60236L60.323128 271.8211Q59.823128 271.03986 59.495003 270.6336Q59.182503 270.22736 58.916878 270.0711Q58.666878 269.89923 58.401253 269.8211Q58.213753 269.78986 57.776253 269.78986L56.448128 269.78986L56.448128 273.60236L55.307503 273.60236ZM56.448128 268.80548L58.901253 268.80548Q59.666878 268.80548 60.104378 268.64923Q60.557503 268.47736 60.776253 268.1336Q61.010628 267.77423 61.010628 267.35236Q61.010628 266.74298 60.557503 266.35236Q60.120003 265.96173 59.166878 265.96173L56.448128 265.96173L56.448128 268.80548ZM63.776253 270.49298Q63.776253 268.7586 64.72938 267.93048Q65.52625 267.24298 66.6825 267.24298Q67.96375 267.24298 68.77625 268.08673Q69.60438 268.91486 69.60438 270.39923Q69.60438 271.60236 69.245 272.28986Q68.88563 272.97736 68.1825 273.36798Q67.495 273.74298 66.6825 273.74298Q65.38563 273.74298 64.57313 272.91486Q63.776253 272.0711 63.776253 270.49298ZM64.85438 270.49298Q64.85438 271.68048 65.37 272.27423Q65.90125 272.86798 66.6825 272.86798Q67.47938 272.86798 67.995 272.27423Q68.51063 271.68048 68.51063 270.46173Q68.51063 269.30548 67.97938 268.71173Q67.46375 268.11798 66.6825 268.11798Q65.90125 268.11798 65.37 268.71173Q64.85438 269.28986 64.85438 270.49298ZM71.245 273.60236L71.245 265.0086L74.47938 265.0086Q75.46375 265.0086 76.0575 265.27423Q76.65125 265.53986 76.97938 266.08673Q77.32313 266.61798 77.32313 267.21173Q77.32313 267.7586 77.02625 268.24298Q76.72938 268.72736 76.12 269.02423Q76.90125 269.2586 77.3075 269.8211Q77.72938 270.36798 77.72938 271.11798Q77.72938 271.71173 77.47938 272.24298Q77.22938 272.7586 76.85438 273.03986Q76.47938 273.3211 75.90125 273.46173Q75.33875 273.60236 74.52625 273.60236L71.245 273.60236ZM72.38563 268.61798L74.245 268.61798Q74.995 268.61798 75.32313 268.52423Q75.76063 268.39923 75.97938 268.10236Q76.19813 267.78986 76.19813 267.33673Q76.19813 266.91486 75.995 266.58673Q75.79188 266.2586 75.40125 266.14923Q75.02625 266.02423 74.10438 266.02423L72.38563 266.02423L72.38563 268.61798ZM72.38563 272.58673L74.52625 272.58673Q75.07313 272.58673 75.29188 272.53986Q75.69813 272.47736 75.94813 272.3211Q76.21375 272.14923 76.38563 271.83673Q76.5575 271.52423 76.5575 271.11798Q76.5575 270.6336 76.3075 270.27423Q76.07313 269.91486 75.63563 269.77423Q75.19813 269.6336 74.37 269.6336L72.38563 269.6336L72.38563 272.58673ZM79.32313 273.60236L79.32313 265.0086L85.52625 265.0086L85.52625 266.02423L80.46375 266.02423L80.46375 268.64923L85.21375 268.64923L85.21375 269.66486L80.46375 269.66486L80.46375 272.58673L85.72938 272.58673L85.72938 273.60236L79.32313 273.60236ZM87.3075 273.60236L87.3075 265.0086L91.12 265.0086Q92.27625 265.0086 92.87 265.24298Q93.46375 265.47736 93.82313 266.0711Q94.1825 266.64923 94.1825 267.35236Q94.1825 268.27423 93.58875 268.89923Q92.995 269.52423 91.76063 269.6961Q92.21375 269.91486 92.44813 270.11798Q92.94813 270.5711 93.38563 271.2586L94.88563 273.60236L93.44813 273.60236L92.32313 271.8211Q91.82313 271.03986 91.495 270.6336Q91.1825 270.22736 90.91688 270.0711Q90.66688 269.89923 90.40125 269.8211Q90.21375 269.78986 89.77625 269.78986L88.44813 269.78986L88.44813 273.60236L87.3075 273.60236ZM88.44813 268.80548L90.90125 268.80548Q91.66688 268.80548 92.10438 268.64923Q92.5575 268.47736 92.77625 268.1336Q93.01063 267.77423 93.01063 267.35236Q93.01063 266.74298 92.5575 266.35236Q92.12 265.96173 91.16688 265.96173L88.44813 265.96173L88.44813 268.80548ZM98.47938 273.60236L98.47938 266.02423L95.65125 266.02423L95.65125 265.0086L102.46375 265.0086L102.46375 266.02423L99.62 266.02423L99.62 273.60236L98.47938 273.60236ZM107.22938 272.83673Q106.63563 273.33673 106.08875 273.53986Q105.5575 273.74298 104.9325 273.74298Q103.90125 273.74298 103.35438 273.24298Q102.8075 272.74298 102.8075 271.96173Q102.8075 271.5086 103.01063 271.1336Q103.21375 270.74298 103.5575 270.52423Q103.90125 270.28986 104.32313 270.18048Q104.62 270.08673 105.26063 270.0086Q106.52625 269.86798 107.13563 269.64923Q107.13563 269.43048 107.13563 269.3836Q107.13563 268.72736 106.83875 268.46173Q106.4325 268.11798 105.63563 268.11798Q104.90125 268.11798 104.54188 268.3836Q104.1825 268.6336 104.01063 269.28986L102.97938 269.14923Q103.12 268.49298 103.44813 268.08673Q103.77625 267.68048 104.38563 267.46173Q104.995 267.24298 105.79188 267.24298Q106.58875 267.24298 107.08875 267.43048Q107.58875 267.61798 107.82313 267.89923Q108.0575 268.18048 108.15125 268.61798Q108.19813 268.8836 108.19813 269.58673L108.19813 270.99298Q108.19813 272.46173 108.26063 272.85236Q108.33875 273.24298 108.54188 273.60236L107.4325 273.60236Q107.27625 273.27423 107.22938 272.83673ZM107.13563 270.47736Q106.5575 270.71173 105.41688 270.8836Q104.76063 270.97736 104.495 271.10236Q104.22938 271.21173 104.07313 271.43048Q103.9325 271.64923 103.9325 271.93048Q103.9325 272.35236 104.245 272.6336Q104.57313 272.91486 105.1825 272.91486Q105.79188 272.91486 106.26063 272.64923Q106.745 272.3836 106.96375 271.91486Q107.13563 271.55548 107.13563 270.86798L107.13563 270.47736ZM115.37 272.21173L115.37 269.85236L113.04188 269.85236L113.04188 268.86798L115.37 268.86798L115.37 266.53986L116.37 266.53986L116.37 268.86798L118.71375 268.86798L118.71375 269.85236L116.37 269.85236L116.37 272.21173L115.37 272.21173ZM123.3075 273.60236L123.3075 265.0086L127.12 265.0086Q128.27625 265.0086 128.87 265.24298Q129.46375 265.47736 129.82312 266.0711Q130.1825 266.64923 130.1825 267.35236Q130.1825 268.27423 129.58875 268.89923Q128.995 269.52423 127.76063 269.6961Q128.21375 269.91486 128.44812 270.11798Q128.94812 270.5711 129.38562 271.2586L130.88562 273.60236L129.44812 273.60236L128.32312 271.8211Q127.82313 271.03986 127.495 270.6336Q127.1825 270.22736 126.91688 270.0711Q126.66688 269.89923 126.40125 269.8211Q126.21375 269.78986 125.77625 269.78986L124.44813 269.78986L124.44813 273.60236L123.3075 273.60236ZM124.44813 268.80548L126.90125 268.80548Q127.66688 268.80548 128.10437 268.64923Q128.5575 268.47736 128.77625 268.1336Q129.01062 267.77423 129.01062 267.35236Q129.01062 266.74298 128.5575 266.35236Q128.12 265.96173 127.16688 265.96173L124.44813 265.96173L124.44813 268.80548ZM134.47937 273.60236L134.47937 266.02423L131.65125 266.02423L131.65125 265.0086L138.46375 265.0086L138.46375 266.02423L135.62 266.02423L135.62 273.60236L134.47937 273.60236Z" fill-rule="nonzero"/><path fill="#000000" d="M46.291874 320.00394L46.291874 311.4102L49.260624 311.4102Q50.260624 311.4102 50.791874 311.5352Q51.52625 311.70706 52.041874 312.14456Q52.729374 312.7227 53.0575 313.62894Q53.40125 314.51956 53.40125 315.6602Q53.40125 316.64456 53.166874 317.39456Q52.948124 318.14456 52.58875 318.64456Q52.229374 319.14456 51.791874 319.4258Q51.37 319.70706 50.77625 319.8633Q50.1825 320.00394 49.40125 320.00394L46.291874 320.00394ZM47.4325 318.9883L49.260624 318.9883Q50.12 318.9883 50.604374 318.83206Q51.08875 318.6758 51.37 318.37894Q51.77625 317.9883 51.995 317.3008Q52.229374 316.6133 52.229374 315.64456Q52.229374 314.3008 51.77625 313.58206Q51.33875 312.8477 50.71375 312.5977Q50.245 312.4258 49.245 312.4258L47.4325 312.4258L47.4325 318.9883ZM55.166874 312.62894L55.166874 311.4102L56.229374 311.4102L56.229374 312.62894L55.166874 312.62894ZM55.166874 320.00394L55.166874 313.7852L56.229374 313.7852L56.229374 320.00394L55.166874 320.00394ZM57.745 318.14456L58.77625 317.9883Q58.87 318.6133 59.260624 318.94144Q59.666874 319.26956 60.40125 319.26956Q61.12 319.26956 61.46375 318.9883Q61.823124 318.69144 61.823124 318.2852Q61.823124 317.9258 61.510624 317.7227Q61.291874 317.58206 60.4325 317.3633Q59.27625 317.06644 58.823124 316.8633Q58.385624 316.64456 58.15125 316.26956Q57.916874 315.89456 57.916874 315.4258Q57.916874 315.01956 58.104374 314.6602Q58.291874 314.3008 58.62 314.06644Q58.87 313.89456 59.291874 313.76956Q59.71375 313.64456 60.21375 313.64456Q60.9325 313.64456 61.479374 313.8633Q62.041874 314.06644 62.3075 314.4258Q62.573124 314.7852 62.666874 315.37894L61.635624 315.51956Q61.573124 315.0508 61.229374 314.7852Q60.90125 314.50394 60.27625 314.50394Q59.5575 314.50394 59.245 314.75394Q58.9325 314.9883 58.9325 315.31644Q58.9325 315.51956 59.0575 315.6758Q59.198124 315.8477 59.46375 315.95706Q59.62 316.01956 60.40125 316.2227Q61.52625 316.5352 61.96375 316.7227Q62.40125 316.9102 62.65125 317.26956Q62.90125 317.62894 62.90125 318.1758Q62.90125 318.70706 62.58875 319.1758Q62.291874 319.62894 61.71375 319.89456Q61.135624 320.14456 60.40125 320.14456Q59.1825 320.14456 58.541874 319.64456Q57.916874 319.12894 57.745 318.14456ZM67.463745 319.06644L67.619995 319.9883Q67.16687 320.08206 66.82312 320.08206Q66.244995 320.08206 65.932495 319.9102Q65.619995 319.7227 65.47937 319.4258Q65.35437 319.12894 65.35437 318.1758L65.35437 314.5977L64.588745 314.5977L64.588745 313.7852L65.35437 313.7852L65.35437 312.2383L66.401245 311.6133L66.401245 313.7852L67.463745 313.7852L67.463745 314.5977L66.401245 314.5977L66.401245 318.2383Q66.401245 318.69144 66.44812 318.81644Q66.51062 318.94144 66.63562 319.01956Q66.76062 319.0977 66.994995 319.0977Q67.182495 319.0977 67.463745 319.06644ZM68.16687 312.62894L68.16687 311.4102L69.22937 311.4102L69.22937 312.62894L68.16687 312.62894ZM68.16687 320.00394L68.16687 313.7852L69.22937 313.7852L69.22937 320.00394L68.16687 320.00394ZM71.13562 320.00394L71.13562 311.4102L72.19812 311.4102L72.19812 320.00394L71.13562 320.00394ZM74.307495 320.00394L74.307495 311.4102L78.119995 311.4102Q79.276245 311.4102 79.869995 311.64456Q80.463745 311.87894 80.82312 312.4727Q81.182495 313.0508 81.182495 313.75394Q81.182495 314.6758 80.588745 315.3008Q79.994995 315.9258 78.76062 316.0977Q79.213745 316.31644 79.44812 316.51956Q79.94812 316.9727 80.38562 317.6602L81.88562 320.00394L80.44812 320.00394L79.32312 318.2227Q78.82312 317.44144 78.494995 317.0352Q78.182495 316.62894 77.91687 316.4727Q77.66687 316.3008 77.401245 316.2227Q77.213745 316.19144 76.776245 316.19144L75.44812 316.19144L75.44812 320.00394L74.307495 320.00394ZM75.44812 315.20706L77.901245 315.20706Q78.66687 315.20706 79.10437 315.0508Q79.557495 314.87894 79.776245 314.5352Q80.01062 314.1758 80.01062 313.75394Q80.01062 313.14456 79.557495 312.75394Q79.119995 312.3633 78.16687 312.3633L75.44812 312.3633L75.44812 315.20706ZM82.776245 316.89456Q82.776245 315.1602 83.72937 314.33206Q84.526245 313.64456 85.682495 313.64456Q86.963745 313.64456 87.776245 314.4883Q88.60437 315.31644 88.60437 316.8008Q88.60437 318.00394 88.244995 318.69144Q87.88562 319.37894 87.182495 319.76956Q86.494995 320.14456 85.682495 320.14456Q84.38562 320.14456 83.57312 319.31644Q82.776245 318.4727 82.776245 316.89456ZM83.85437 316.89456Q83.85437 318.08206 84.369995 318.6758Q84.901245 319.26956 85.682495 319.26956Q86.47937 319.26956 86.994995 318.6758Q87.51062 318.08206 87.51062 316.8633Q87.51062 315.70706 86.97937 315.1133Q86.463745 314.51956 85.682495 314.51956Q84.901245 314.51956 84.369995 315.1133Q83.85437 315.69144 83.85437 316.89456ZM90.244995 320.00394L90.244995 311.4102L93.47937 311.4102Q94.463745 311.4102 95.057495 311.6758Q95.651245 311.94144 95.97937 312.4883Q96.32312 313.01956 96.32312 313.6133Q96.32312 314.1602 96.026245 314.64456Q95.72937 315.12894 95.119995 315.4258Q95.901245 315.6602 96.307495 316.2227Q96.72937 316.76956 96.72937 317.51956Q96.72937 318.1133 96.47937 318.64456Q96.22937 319.1602 95.85437 319.44144Q95.47937 319.7227 94.901245 319.8633Q94.338745 320.00394 93.526245 320.00394L90.244995 320.00394ZM91.38562 315.01956L93.244995 315.01956Q93.994995 315.01956 94.32312 314.9258Q94.76062 314.8008 94.97937 314.50394Q95.19812 314.19144 95.19812 313.7383Q95.19812 313.31644 94.994995 312.9883Q94.79187 312.6602 94.401245 312.5508Q94.026245 312.4258 93.10437 312.4258L91.38562 312.4258L91.38562 315.01956ZM91.38562 318.9883L93.526245 318.9883Q94.07312 318.9883 94.29187 318.94144Q94.69812 318.87894 94.94812 318.7227Q95.213745 318.5508 95.38562 318.2383Q95.557495 317.9258 95.557495 317.51956Q95.557495 317.0352 95.307495 316.6758Q95.07312 316.31644 94.63562 316.1758Q94.19812 316.0352 93.369995 316.0352L91.38562 316.0352L91.38562 318.9883ZM98.32312 320.00394L98.32312 311.4102L104.526245 311.4102L104.526245 312.4258L99.463745 312.4258L99.463745 315.0508L104.213745 315.0508L104.213745 316.06644L99.463745 316.06644L99.463745 318.9883L104.72937 318.9883L104.72937 320.00394L98.32312 320.00394ZM106.307495 320.00394L106.307495 311.4102L110.119995 311.4102Q111.276245 311.4102 111.869995 311.64456Q112.463745 311.87894 112.82312 312.4727Q113.182495 313.0508 113.182495 313.75394Q113.182495 314.6758 112.588745 315.3008Q111.994995 315.9258 110.76062 316.0977Q111.213745 316.31644 111.44812 316.51956Q111.94812 316.9727 112.38562 317.6602L113.88562 320.00394L112.44812 320.00394L111.32312 318.2227Q110.82312 317.44144 110.494995 317.0352Q110.182495 316.62894 109.91687 316.4727Q109.66687 316.3008 109.401245 316.2227Q109.213745 316.19144 108.776245 316.19144L107.44812 316.19144L107.44812 320.00394L106.307495 320.00394ZM107.44812 315.20706L109.901245 315.20706Q110.66687 315.20706 111.10437 315.0508Q111.557495 314.87894 111.776245 314.5352Q112.01062 314.1758 112.01062 313.75394Q112.01062 313.14456 111.557495 312.75394Q111.119995 312.3633 110.16687 312.3633L107.44812 312.3633L107.44812 315.20706ZM117.47937 320.00394L117.47937 312.4258L114.651245 312.4258L114.651245 311.4102L121.463745 311.4102L121.463745 312.4258L118.619995 312.4258L118.619995 320.00394L117.47937 320.00394ZM126.22937 319.2383Q125.63562 319.7383 125.088745 319.94144Q124.557495 320.14456 123.932495 320.14456Q122.901245 320.14456 122.35437 319.64456Q121.807495 319.14456 121.807495 318.3633Q121.807495 317.9102 122.01062 317.5352Q122.213745 317.14456 122.557495 316.9258Q122.901245 316.69144 123.32312 316.58206Q123.619995 316.4883 124.26062 316.4102Q125.526245 316.26956 126.13562 316.0508Q126.13562 315.83206 126.13562 315.7852Q126.13562 315.12894 125.838745 314.8633Q125.432495 314.51956 124.63562 314.51956Q123.901245 314.51956 123.54187 314.7852Q123.182495 315.0352 123.01062 315.69144L121.97937 315.5508Q122.119995 314.89456 122.44812 314.4883Q122.776245 314.08206 123.38562 313.8633Q123.994995 313.64456 124.79187 313.64456Q125.588745 313.64456 126.088745 313.83206Q126.588745 314.01956 126.82312 314.3008Q127.057495 314.58206 127.151245 315.01956Q127.19812 315.2852 127.19812 315.9883L127.19812 317.39456Q127.19812 318.8633 127.26062 319.25394Q127.338745 319.64456 127.54187 320.00394L126.432495 320.00394Q126.276245 319.6758 126.22937 319.2383ZM126.13562 316.87894Q125.557495 317.1133 124.41687 317.2852Q123.76062 317.37894 123.494995 317.50394Q123.22937 317.6133 123.07312 317.83206Q122.932495 318.0508 122.932495 318.33206Q122.932495 318.75394 123.244995 319.0352Q123.57312 319.31644 124.182495 319.31644Q124.79187 319.31644 125.26062 319.0508Q125.744995 318.7852 125.963745 318.31644Q126.13562 317.95706 126.13562 317.26956L126.13562 316.87894ZM134.37 318.6133L134.37 316.25394L132.04187 316.25394L132.04187 315.26956L134.37 315.26956L134.37 312.94144L135.37 312.94144L135.37 315.26956L137.71375 315.26956L137.71375 316.25394L135.37 316.25394L135.37 318.6133L134.37 318.6133Z" fill-rule="nonzero"/><path fill="#000000" d="M120.32313 330.62894L120.32313 329.62894L123.94813 329.6133L123.94813 332.8008Q123.12 333.4727 122.22938 333.81644Q121.33875 334.14456 120.40125 334.14456Q119.13563 334.14456 118.08875 333.6133Q117.0575 333.06644 116.52625 332.0508Q116.01063 331.01956 116.01063 329.75394Q116.01063 328.4883 116.52625 327.4102Q117.0575 326.31644 118.04188 325.8008Q119.02625 325.26956 120.3075 325.26956Q121.245 325.26956 121.995 325.56644Q122.745 325.8633 123.16688 326.4102Q123.60438 326.94144 123.82313 327.81644L122.8075 328.0977Q122.60438 327.44144 122.3075 327.06644Q122.02625 326.69144 121.495 326.4727Q120.96375 326.2383 120.32313 326.2383Q119.54188 326.2383 118.96375 326.4727Q118.40125 326.70706 118.04188 327.0977Q117.69813 327.4883 117.51063 327.95706Q117.1825 328.75394 117.1825 329.6758Q117.1825 330.83206 117.57313 331.6133Q117.97938 332.37894 118.72938 332.75394Q119.47938 333.12894 120.33875 333.12894Q121.07313 333.12894 121.77625 332.8477Q122.47938 332.5508 122.83875 332.2383L122.83875 330.62894L120.32313 330.62894ZM124.35438 334.00394L127.65125 325.4102L128.87 325.4102L132.38562 334.00394L131.10437 334.00394L130.08875 331.39456L126.51063 331.39456L125.5575 334.00394L124.35438 334.00394ZM126.83875 330.4727L129.745 330.4727L128.85437 328.0977Q128.4325 327.01956 128.245 326.31644Q128.07312 327.14456 127.77625 327.95706L126.83875 330.4727ZM132.245 334.00394L132.245 325.4102L133.38562 325.4102L133.38562 332.9883L137.62 332.9883L137.62 334.00394L132.245 334.00394Z" fill-rule="nonzero"/><path fill="#000000" d="M132.9325 368.58124L132.9325 367.5656L138.495 367.5656L138.495 368.39374Q137.6825 369.26874 136.87 370.72186Q136.07312 372.15936 135.63562 373.6906Q135.3075 374.76874 135.22937 376.05L134.13562 376.05Q134.15125 375.03436 134.52625 373.59686Q134.91687 372.15936 135.62 370.83124Q136.33875 369.5031 137.15125 368.58124L132.9325 368.58124ZM139.87 373.8L140.97937 373.70624Q141.10437 374.51874 141.54187 374.925Q141.995 375.33124 142.63562 375.33124Q143.38562 375.33124 143.91687 374.7531Q144.44812 374.175 144.44812 373.2375Q144.44812 372.33124 143.9325 371.8156Q143.4325 371.28436 142.60437 371.28436Q142.10437 371.28436 141.6825 371.51874Q141.27625 371.7531 141.04187 372.1125L140.0575 371.9875L140.88562 367.58124L145.16687 367.58124L145.16687 368.58124L141.72937 368.58124L141.27625 370.89374Q142.04187 370.34686 142.88562 370.34686Q144.01062 370.34686 144.77625 371.1281Q145.5575 371.90936 145.5575 373.14374Q145.5575 374.3 144.88562 375.15936Q144.0575 376.1906 142.63562 376.1906Q141.46375 376.1906 140.71375 375.53436Q139.97937 374.8781 139.87 373.8ZM147.46375 376.05L147.46375 374.84686L148.66687 374.84686L148.66687 376.05L147.46375 376.05ZM149.87 371.8156Q149.87 370.28436 150.1825 369.3625Q150.495 368.425 151.10437 367.925Q151.72937 367.425 152.66687 367.425Q153.35437 367.425 153.87 367.70624Q154.40125 367.9875 154.745 368.51874Q155.08875 369.03436 155.27625 369.78436Q155.46375 370.53436 155.46375 371.8156Q155.46375 373.33124 155.15125 374.2531Q154.85437 375.175 154.22937 375.6906Q153.62 376.1906 152.66687 376.1906Q151.4325 376.1906 150.71375 375.3Q149.87 374.2375 149.87 371.8156ZM150.94812 371.8156Q150.94812 373.925 151.44812 374.6281Q151.94812 375.33124 152.66687 375.33124Q153.40125 375.33124 153.88562 374.6281Q154.38562 373.925 154.38562 371.8156Q154.38562 369.6906 153.88562 369.0031Q153.40125 368.3 152.65125 368.3Q151.9325 368.3 151.495 368.90936Q150.94812 369.6906 150.94812 371.8156Z" fill-rule="nonzero"/><path fill="#000000" d="M226.4685 368.58124L226.4685 367.5656L232.031 367.5656L232.031 368.39374Q231.2185 369.26874 230.406 370.72186Q229.60913 372.15936 229.17163 373.6906Q228.8435 374.76874 228.76538 376.05L227.67163 376.05Q227.68726 375.03436 228.06226 373.59686Q228.45288 372.15936 229.156 370.83124Q229.87476 369.5031 230.68726 368.58124L226.4685 368.58124ZM233.4685 368.58124L233.4685 367.5656L239.031 367.5656L239.031 368.39374Q238.2185 369.26874 237.406 370.72186Q236.60913 372.15936 236.17163 373.6906Q235.8435 374.76874 235.76538 376.05L234.67163 376.05Q234.68726 375.03436 235.06226 373.59686Q235.45288 372.15936 236.156 370.83124Q236.87476 369.5031 237.68726 368.58124L233.4685 368.58124ZM240.99976 376.05L240.99976 374.84686L242.20288 374.84686L242.20288 376.05L240.99976 376.05ZM243.406 371.8156Q243.406 370.28436 243.7185 369.3625Q244.031 368.425 244.64038 367.925Q245.26538 367.425 246.20288 367.425Q246.89038 367.425 247.406 367.70624Q247.93726 367.9875 248.281 368.51874Q248.62476 369.03436 248.81226 369.78436Q248.99976 370.53436 248.99976 371.8156Q248.99976 373.33124 248.68726 374.2531Q248.39038 375.175 247.76538 375.6906Q247.156 376.1906 246.20288 376.1906Q244.9685 376.1906 244.24976 375.3Q243.406 374.2375 243.406 371.8156ZM244.48413 371.8156Q244.48413 373.925 244.98413 374.6281Q245.48413 375.33124 246.20288 375.33124Q246.93726 375.33124 247.42163 374.6281Q247.92163 373.925 247.92163 371.8156Q247.92163 369.6906 247.42163 369.0031Q246.93726 368.3 246.18726 368.3Q245.4685 368.3 245.031 368.90936Q244.48413 369.6906 244.48413 371.8156Z" fill-rule="nonzero"/><path fill="#000000" d="M320.0045 368.58124L320.0045 367.5656L325.567 367.5656L325.567 368.39374Q324.7545 369.26874 323.942 370.72186Q323.1451 372.15936 322.7076 373.6906Q322.3795 374.76874 322.30136 376.05L321.2076 376.05Q321.22324 375.03436 321.59824 373.59686Q321.98886 372.15936 322.692 370.83124Q323.41074 369.5031 324.22324 368.58124L320.0045 368.58124ZM327.09824 374.0656L328.11386 373.97186Q328.23886 374.6906 328.59824 375.01874Q328.97324 375.33124 329.53574 375.33124Q330.0201 375.33124 330.3795 375.1125Q330.7545 374.8781 330.98886 374.51874Q331.22324 374.14374 331.3795 373.51874Q331.53574 372.8781 331.53574 372.22186Q331.53574 372.14374 331.53574 372.0031Q331.22324 372.5031 330.67636 372.83124Q330.1295 373.14374 329.48886 373.14374Q328.41074 373.14374 327.67636 372.3781Q326.942 371.59686 326.942 370.33124Q326.942 369.01874 327.7076 368.22186Q328.48886 367.425 329.6451 367.425Q330.47324 367.425 331.16074 367.8781Q331.86386 368.33124 332.22324 369.175Q332.5826 370.0031 332.5826 371.58124Q332.5826 373.22186 332.22324 374.20624Q331.8795 375.175 331.16074 375.6906Q330.4576 376.1906 329.5201 376.1906Q328.5045 376.1906 327.86386 375.64374Q327.22324 375.08124 327.09824 374.0656ZM331.41074 370.26874Q331.41074 369.3625 330.92636 368.83124Q330.4576 368.3 329.7701 368.3Q329.067 368.3 328.53574 368.8781Q328.0201 369.4406 328.0201 370.3625Q328.0201 371.175 328.5201 371.6906Q329.0201 372.20624 329.73886 372.20624Q330.47324 372.20624 330.942 371.6906Q331.41074 371.175 331.41074 370.26874ZM334.53574 376.05L334.53574 374.84686L335.73886 374.84686L335.73886 376.05L334.53574 376.05ZM336.942 371.8156Q336.942 370.28436 337.2545 369.3625Q337.567 368.425 338.17636 367.925Q338.80136 367.425 339.73886 367.425Q340.42636 367.425 340.942 367.70624Q341.47324 367.9875 341.817 368.51874Q342.16074 369.03436 342.34824 369.78436Q342.53574 370.53436 342.53574 371.8156Q342.53574 373.33124 342.22324 374.2531Q341.92636 375.175 341.30136 375.6906Q340.692 376.1906 339.73886 376.1906Q338.5045 376.1906 337.78574 375.3Q336.942 374.2375 336.942 371.8156ZM338.0201 371.8156Q338.0201 373.925 338.5201 374.6281Q339.0201 375.33124 339.73886 375.33124Q340.47324 375.33124 340.9576 374.6281Q341.4576 373.925 341.4576 371.8156Q341.4576 369.6906 340.9576 369.0031Q340.47324 368.3 339.72324 368.3Q339.0045 368.3 338.567 368.90936Q338.0201 369.6906 338.0201 371.8156Z" fill-rule="nonzero"/><path fill="#000000" d="M415.103 371.39374Q414.44675 371.14374 414.11862 370.70624Q413.80612 370.2531 413.80612 369.64374Q413.80612 368.70624 414.478 368.0656Q415.1655 367.425 416.27487 367.425Q417.39987 367.425 418.08737 368.08124Q418.77487 368.7375 418.77487 369.675Q418.77487 370.26874 418.46237 370.70624Q418.14987 371.14374 417.50925 371.39374Q418.30612 371.64374 418.71237 372.22186Q419.11862 372.8 419.11862 373.59686Q419.11862 374.6906 418.33737 375.4406Q417.57175 376.1906 416.2905 376.1906Q415.02487 376.1906 414.24362 375.4406Q413.46237 374.6906 413.46237 373.5656Q413.46237 372.72186 413.88425 372.15936Q414.32175 371.59686 415.103 371.39374ZM414.88425 369.59686Q414.88425 370.20624 415.27487 370.59686Q415.68112 370.9875 416.30612 370.9875Q416.9155 370.9875 417.30612 370.6125Q417.69675 370.22186 417.69675 369.65936Q417.69675 369.08124 417.2905 368.6906Q416.88425 368.28436 416.2905 368.28436Q415.68112 368.28436 415.27487 368.675Q414.88425 369.0656 414.88425 369.59686ZM414.55612 373.5656Q414.55612 374.01874 414.75925 374.4406Q414.978 374.8625 415.39987 375.09686Q415.82175 375.33124 416.30612 375.33124Q417.05612 375.33124 417.5405 374.84686Q418.0405 374.3625 418.0405 373.6125Q418.0405 372.84686 417.5405 372.34686Q417.0405 371.84686 416.27487 371.84686Q415.52487 371.84686 415.0405 372.34686Q414.55612 372.83124 414.55612 373.5656ZM424.44675 376.05L423.39987 376.05L423.39987 369.33124Q423.00925 369.6906 422.38425 370.0656Q421.77487 370.425 421.2905 370.59686L421.2905 369.58124Q422.1655 369.15936 422.82175 368.58124Q423.49362 367.9875 423.77487 367.425L424.44675 367.425L424.44675 376.05ZM428.07175 376.05L428.07175 374.84686L429.27487 374.84686L429.27487 376.05L428.07175 376.05ZM430.478 371.8156Q430.478 370.28436 430.7905 369.3625Q431.103 368.425 431.71237 367.925Q432.33737 367.425 433.27487 367.425Q433.96237 367.425 434.478 367.70624Q435.00925 367.9875 435.353 368.51874Q435.69675 369.03436 435.88425 369.78436Q436.07175 370.53436 436.07175 371.8156Q436.07175 373.33124 435.75925 374.2531Q435.46237 375.175 434.83737 375.6906Q434.228 376.1906 433.27487 376.1906Q432.0405 376.1906 431.32175 375.3Q430.478 374.2375 430.478 371.8156ZM431.55612 371.8156Q431.55612 373.925 432.05612 374.6281Q432.55612 375.33124 433.27487 375.33124Q434.00925 375.33124 434.49362 374.6281Q434.99362 373.925 434.99362 371.8156Q434.99362 369.6906 434.49362 369.0031Q434.00925 368.3 433.25925 368.3Q432.5405 368.3 432.103 368.90936Q431.55612 369.6906 431.55612 371.8156Z" fill-rule="nonzero"/><path fill="#000000" d="M508.639 371.39374Q507.98276 371.14374 507.65463 370.70624Q507.34213 370.2531 507.34213 369.64374Q507.34213 368.70624 508.014 368.0656Q508.7015 367.425 509.81088 367.425Q510.93588 367.425 511.62338 368.08124Q512.3109 368.7375 512.3109 369.675Q512.3109 370.26874 511.99838 370.70624Q511.68588 371.14374 511.04526 371.39374Q511.84213 371.64374 512.2484 372.22186Q512.65466 372.8 512.65466 373.59686Q512.65466 374.6906 511.87338 375.4406Q511.10776 376.1906 509.8265 376.1906Q508.56088 376.1906 507.77963 375.4406Q506.99838 374.6906 506.99838 373.5656Q506.99838 372.72186 507.42026 372.15936Q507.85776 371.59686 508.639 371.39374ZM508.42026 369.59686Q508.42026 370.20624 508.81088 370.59686Q509.21713 370.9875 509.84213 370.9875Q510.4515 370.9875 510.84213 370.6125Q511.23276 370.22186 511.23276 369.65936Q511.23276 369.08124 510.8265 368.6906Q510.42026 368.28436 509.8265 368.28436Q509.21713 368.28436 508.81088 368.675Q508.42026 369.0656 508.42026 369.59686ZM508.09213 373.5656Q508.09213 374.01874 508.29526 374.4406Q508.514 374.8625 508.93588 375.09686Q509.35776 375.33124 509.84213 375.33124Q510.59213 375.33124 511.0765 374.84686Q511.5765 374.3625 511.5765 373.6125Q511.5765 372.84686 511.0765 372.34686Q510.5765 371.84686 509.81088 371.84686Q509.06088 371.84686 508.5765 372.34686Q508.09213 372.83124 508.09213 373.5656ZM514.01404 373.78436L515.07654 373.64374Q515.2484 374.53436 515.6859 374.9406Q516.1234 375.33124 516.7484 375.33124Q517.4984 375.33124 518.01404 374.8156Q518.52966 374.3 518.52966 373.53436Q518.52966 372.8156 518.0453 372.34686Q517.57654 371.8625 516.84216 371.8625Q516.5453 371.8625 516.09216 371.9875L516.21716 371.05Q516.32654 371.0656 516.38904 371.0656Q517.0609 371.0656 517.59216 370.72186Q518.13904 370.3625 518.13904 369.6281Q518.13904 369.05 517.7484 368.675Q517.3578 368.28436 516.7328 368.28436Q516.1234 368.28436 515.70154 368.675Q515.2953 369.0656 515.1859 369.83124L514.1234 369.64374Q514.3109 368.59686 514.9984 368.01874Q515.6859 367.425 516.70154 367.425Q517.40466 367.425 517.9984 367.7375Q518.59216 368.03436 518.90466 368.55Q519.21716 369.0656 519.21716 369.65936Q519.21716 370.20624 518.9203 370.675Q518.6234 371.1281 518.0453 371.39374Q518.7953 371.5656 519.21716 372.1281Q519.63904 372.675 519.63904 373.51874Q519.63904 374.64374 518.8109 375.425Q517.9984 376.20624 516.7484 376.20624Q515.6234 376.20624 514.8734 375.53436Q514.1234 374.84686 514.01404 373.78436ZM521.6078 376.05L521.6078 374.84686L522.8109 374.84686L522.8109 376.05L521.6078 376.05ZM524.01404 371.8156Q524.01404 370.28436 524.32654 369.3625Q524.63904 368.425 525.2484 367.925Q525.8734 367.425 526.8109 367.425Q527.4984 367.425 528.01404 367.70624Q528.5453 367.9875 528.88904 368.51874Q529.2328 369.03436 529.4203 369.78436Q529.6078 370.53436 529.6078 371.8156Q529.6078 373.33124 529.2953 374.2531Q528.9984 375.175 528.3734 375.6906Q527.76404 376.1906 526.8109 376.1906Q525.57654 376.1906 524.8578 375.3Q524.01404 374.2375 524.01404 371.8156ZM525.09216 371.8156Q525.09216 373.925 525.59216 374.6281Q526.09216 375.33124 526.8109 375.33124Q527.5453 375.33124 528.02966 374.6281Q528.52966 373.925 528.52966 371.8156Q528.52966 369.6906 528.02966 369.0031Q527.5453 368.3 526.7953 368.3Q526.07654 368.3 525.63904 368.90936Q525.09216 369.6906 525.09216 371.8156Z" fill-rule="nonzero"/><path fill="#000000" d="M602.175 371.39374Q601.51874 371.14374 601.1906 370.70624Q600.8781 370.2531 600.8781 369.64374Q600.8781 368.70624 601.55 368.0656Q602.2375 367.425 603.34686 367.425Q604.47186 367.425 605.15936 368.08124Q605.84686 368.7375 605.84686 369.675Q605.84686 370.26874 605.53436 370.70624Q605.22186 371.14374 604.58124 371.39374Q605.3781 371.64374 605.78436 372.22186Q606.1906 372.8 606.1906 373.59686Q606.1906 374.6906 605.40936 375.4406Q604.64374 376.1906 603.3625 376.1906Q602.09686 376.1906 601.3156 375.4406Q600.53436 374.6906 600.53436 373.5656Q600.53436 372.72186 600.95624 372.15936Q601.39374 371.59686 602.175 371.39374ZM601.95624 369.59686Q601.95624 370.20624 602.34686 370.59686Q602.7531 370.9875 603.3781 370.9875Q603.9875 370.9875 604.3781 370.6125Q604.76874 370.22186 604.76874 369.65936Q604.76874 369.08124 604.3625 368.6906Q603.95624 368.28436 603.3625 368.28436Q602.7531 368.28436 602.34686 368.675Q601.95624 369.0656 601.95624 369.59686ZM601.6281 373.5656Q601.6281 374.01874 601.83124 374.4406Q602.05 374.8625 602.47186 375.09686Q602.89374 375.33124 603.3781 375.33124Q604.1281 375.33124 604.6125 374.84686Q605.1125 374.3625 605.1125 373.6125Q605.1125 372.84686 604.6125 372.34686Q604.1125 371.84686 603.34686 371.84686Q602.59686 371.84686 602.1125 372.34686Q601.6281 372.83124 601.6281 373.5656ZM607.55 373.8L608.65936 373.70624Q608.78436 374.51874 609.22186 374.925Q609.675 375.33124 610.3156 375.33124Q611.0656 375.33124 611.59686 374.7531Q612.1281 374.175 612.1281 373.2375Q612.1281 372.33124 611.6125 371.8156Q611.1125 371.28436 610.28436 371.28436Q609.78436 371.28436 609.3625 371.51874Q608.95624 371.7531 608.72186 372.1125L607.7375 371.9875L608.5656 367.58124L612.84686 367.58124L612.84686 368.58124L609.40936 368.58124L608.95624 370.89374Q609.72186 370.34686 610.5656 370.34686Q611.6906 370.34686 612.45624 371.1281Q613.2375 371.90936 613.2375 373.14374Q613.2375 374.3 612.5656 375.15936Q611.7375 376.1906 610.3156 376.1906Q609.14374 376.1906 608.39374 375.53436Q607.65936 374.8781 607.55 373.8ZM615.14374 376.05L615.14374 374.84686L616.34686 374.84686L616.34686 376.05L615.14374 376.05ZM617.55 371.8156Q617.55 370.28436 617.8625 369.3625Q618.175 368.425 618.78436 367.925Q619.40936 367.425 620.34686 367.425Q621.03436 367.425 621.55 367.70624Q622.08124 367.9875 622.425 368.51874Q622.76874 369.03436 622.95624 369.78436Q623.14374 370.53436 623.14374 371.8156Q623.14374 373.33124 622.83124 374.2531Q622.53436 375.175 621.90936 375.6906Q621.3 376.1906 620.34686 376.1906Q619.1125 376.1906 618.39374 375.3Q617.55 374.2375 617.55 371.8156ZM618.6281 371.8156Q618.6281 373.925 619.1281 374.6281Q619.6281 375.33124 620.34686 375.33124Q621.08124 375.33124 621.5656 374.6281Q622.0656 373.925 622.0656 371.8156Q622.0656 369.6906 621.5656 369.0031Q621.08124 368.3 620.33124 368.3Q619.6125 368.3 619.175 368.90936Q618.6281 369.6906 618.6281 371.8156Z" fill-rule="nonzero"/></svg>